<?xml version="1.0" encoding="UTF-8" standalone="no"?>
<!DOCTYPE svg PUBLIC "-//W3C//DTD SVG 1.1//EN"
 "http://www.w3.org/Graphics/SVG/1.1/DTD/svg11.dtd">
<!-- Generated by graphviz version 2.36.0 (20140111.2315)
 -->
<!-- Title: /home/travis/build/AliceO2Group/Monitoring/examples/6&#45;Increment.cxx Pages: 1 -->
<!--zoomable 386 -->
<svg id="main" version="1.1" xmlns="http://www.w3.org/2000/svg" xmlns:xlink="http://www.w3.org/1999/xlink" xml:space="preserve" onload="init(evt)">
<style type="text/css"><![CDATA[
.edge:hover path { stroke: red; }
.edge:hover polygon { stroke: red; fill: red; }
]]></style>
<script type="text/javascript"><![CDATA[
var edges = document.getElementsByTagName('g');
if (edges && edges.length) {
  for (var i=0;i<edges.length;i++) {
    if (edges[i].id.substr(0,4)=='edge') {
      edges[i].setAttribute('class','edge');
    }
  }
}
]]></script>
        <defs>
                <circle id="rim" cx="0" cy="0" r="7"/>
                <circle id="rim2" cx="0" cy="0" r="3.5"/>
                <g id="zoomPlus">
                        <use xlink:href="#rim" fill="#404040">
                                <set attributeName="fill" to="#808080" begin="zoomplus.mouseover" end="zoomplus.mouseout"/>
                        </use>
                        <path d="M-4,0h8M0,-4v8" fill="none" stroke="white" stroke-width="1.5" pointer-events="none"/>
                </g>
                <g id="zoomMin">
                        <use xlink:href="#rim" fill="#404040">
                                <set attributeName="fill" to="#808080" begin="zoomminus.mouseover" end="zoomminus.mouseout"/>
                        </use>
                        <path d="M-4,0h8" fill="none" stroke="white" stroke-width="1.5" pointer-events="none"/>
                </g>
                <g id="dirArrow">
                        <path fill="none" stroke="white" stroke-width="1.5" d="M0,-3.0v7 M-2.5,-0.5L0,-3.0L2.5,-0.5"/>
                </g>
               <g id="resetDef">
                       <use xlink:href="#rim2" fill="#404040">
                               <set attributeName="fill" to="#808080" begin="reset.mouseover" end="reset.mouseout"/>
                       </use>
               </g>
        </defs>

<script type="text/javascript">
var viewWidth = 1007;
var viewHeight = 386;
var sectionId = 'dynsection-0';
</script>
<script xlink:href="../../svgpan.js"/>
<svg id="graph" class="graph">
<g id="viewport">
<title>/home/travis/build/AliceO2Group/Monitoring/examples/6&#45;Increment.cxx</title>
<!-- Node1 -->
<g id="node1" class="node"><title>Node1</title>
<polygon fill="#bfbfbf" stroke="black" points="418.796,-336.5 418.796,-377.5 553.796,-377.5 553.796,-336.5 418.796,-336.5"/>
<text text-anchor="start" x="426.796" y="-365.5" font-family="Helvetica,sans-Serif" font-size="10.00">/home/travis/build</text>
<text text-anchor="start" x="426.796" y="-354.5" font-family="Helvetica,sans-Serif" font-size="10.00">/AliceO2Group/Monitoring</text>
<text text-anchor="middle" x="486.296" y="-343.5" font-family="Helvetica,sans-Serif" font-size="10.00">/examples/6&#45;Increment.cxx</text>
</g>
<!-- Node2 -->
<g id="node2" class="node"><title>Node2</title>
<g id="a_node2"><a xlink:href="../../df/d4e/MonitoringFactory_8h.html" target="_top" xlink:title="Monitoring/MonitoringFactory.h">
<polygon fill="none" stroke="black" points="410.796,-280.5 410.796,-299.5 561.796,-299.5 561.796,-280.5 410.796,-280.5"/>
<text text-anchor="middle" x="486.296" y="-287.5" font-family="Helvetica,sans-Serif" font-size="10.00">Monitoring/MonitoringFactory.h</text>
</a>
</g>
</g>
<!-- Node1&#45;&gt;Node2 -->
<g id="edge1" class="edge"><title>Node1&#45;&gt;Node2</title>
<path fill="none" stroke="midnightblue" d="M486.296,-336.498C486.296,-328.065 486.296,-318.235 486.296,-309.874"/>
<polygon fill="midnightblue" stroke="midnightblue" points="489.796,-309.652 486.296,-299.652 482.796,-309.653 489.796,-309.652"/>
</g>
<!-- Node3 -->
<g id="node3" class="node"><title>Node3</title>
<g id="a_node3"><a xlink:href="../../d0/d98/Monitoring_8h.html" target="_top" xlink:title="Monitoring/Monitoring.h">
<polygon fill="none" stroke="black" points="427.296,-224.5 427.296,-243.5 545.296,-243.5 545.296,-224.5 427.296,-224.5"/>
<text text-anchor="middle" x="486.296" y="-231.5" font-family="Helvetica,sans-Serif" font-size="10.00">Monitoring/Monitoring.h</text>
</a>
</g>
</g>
<!-- Node2&#45;&gt;Node3 -->
<g id="edge2" class="edge"><title>Node2&#45;&gt;Node3</title>
<path fill="none" stroke="midnightblue" d="M486.296,-280.083C486.296,-273.006 486.296,-262.861 486.296,-253.986"/>
<polygon fill="midnightblue" stroke="midnightblue" points="489.796,-253.751 486.296,-243.751 482.796,-253.751 489.796,-253.751"/>
</g>
<!-- Node4 -->
<g id="node4" class="node"><title>Node4</title>
<polygon fill="none" stroke="#bfbfbf" points="533.296,-112.5 533.296,-131.5 579.296,-131.5 579.296,-112.5 533.296,-112.5"/>
<text text-anchor="middle" x="556.296" y="-119.5" font-family="Helvetica,sans-Serif" font-size="10.00">atomic</text>
</g>
<!-- Node3&#45;&gt;Node4 -->
<g id="edge3" class="edge"><title>Node3&#45;&gt;Node4</title>
<path fill="none" stroke="midnightblue" d="M493.18,-224.249C500.082,-215.334 510.865,-201.007 519.296,-188 529.427,-172.371 539.821,-153.85 547.003,-140.584"/>
<polygon fill="midnightblue" stroke="midnightblue" points="550.178,-142.067 551.811,-131.599 544.007,-138.765 550.178,-142.067"/>
</g>
<!-- Node5 -->
<g id="node5" class="node"><title>Node5</title>
<polygon fill="none" stroke="#bfbfbf" points="27.2961,-56.5 27.2961,-75.5 73.2961,-75.5 73.2961,-56.5 27.2961,-56.5"/>
<text text-anchor="middle" x="50.2961" y="-63.5" font-family="Helvetica,sans-Serif" font-size="10.00">chrono</text>
</g>
<!-- Node3&#45;&gt;Node5 -->
<g id="edge4" class="edge"><title>Node3&#45;&gt;Node5</title>
<path fill="none" stroke="midnightblue" d="M427.057,-230.472C318.57,-225.282 96.732,-211.862 71.2961,-188 43.2679,-161.706 44.2982,-112.453 47.3619,-85.6066"/>
<polygon fill="midnightblue" stroke="midnightblue" points="50.8425,-85.9855 48.7206,-75.6053 43.9062,-85.0431 50.8425,-85.9855"/>
</g>
<!-- Node6 -->
<g id="node6" class="node"><title>Node6</title>
<polygon fill="none" stroke="#bfbfbf" points="769.796,-168.5 769.796,-187.5 804.796,-187.5 804.796,-168.5 769.796,-168.5"/>
<text text-anchor="middle" x="787.296" y="-175.5" font-family="Helvetica,sans-Serif" font-size="10.00">map</text>
</g>
<!-- Node3&#45;&gt;Node6 -->
<g id="edge5" class="edge"><title>Node3&#45;&gt;Node6</title>
<path fill="none" stroke="midnightblue" d="M545.424,-224.991C600.166,-217.132 683.671,-204.014 755.296,-188 756.774,-187.669 758.286,-187.312 759.809,-186.937"/>
<polygon fill="midnightblue" stroke="midnightblue" points="761.007,-190.24 769.778,-184.296 759.215,-183.473 761.007,-190.24"/>
</g>
<!-- Node7 -->
<g id="node7" class="node"><title>Node7</title>
<polygon fill="none" stroke="#bfbfbf" points="129.296,-112.5 129.296,-131.5 181.296,-131.5 181.296,-112.5 129.296,-112.5"/>
<text text-anchor="middle" x="155.296" y="-119.5" font-family="Helvetica,sans-Serif" font-size="10.00">memory</text>
</g>
<!-- Node3&#45;&gt;Node7 -->
<g id="edge6" class="edge"><title>Node3&#45;&gt;Node7</title>
<path fill="none" stroke="midnightblue" d="M426.864,-225.806C382.441,-219.213 320.763,-207.451 269.296,-188 234.611,-174.892 197.953,-152.179 175.848,-137.372"/>
<polygon fill="midnightblue" stroke="midnightblue" points="177.55,-134.297 167.314,-131.562 173.61,-140.083 177.55,-134.297"/>
</g>
<!-- Node8 -->
<g id="node8" class="node"><title>Node8</title>
<polygon fill="none" stroke="#bfbfbf" points="197.796,-0.5 197.796,-19.5 238.796,-19.5 238.796,-0.5 197.796,-0.5"/>
<text text-anchor="middle" x="218.296" y="-7.5" font-family="Helvetica,sans-Serif" font-size="10.00">string</text>
</g>
<!-- Node3&#45;&gt;Node8 -->
<g id="edge7" class="edge"><title>Node3&#45;&gt;Node8</title>
<path fill="none" stroke="midnightblue" d="M427.118,-230.395C315.538,-224.97 82.6554,-211.017 54.2961,-188 7.08109,-149.679 -19.6912,-103.484 18.2961,-56 39.1565,-29.9245 136.898,-17.8974 187.601,-13.3341"/>
<polygon fill="midnightblue" stroke="midnightblue" points="187.998,-16.813 197.662,-12.4712 187.4,-9.83857 187.998,-16.813"/>
</g>
<!-- Node9 -->
<g id="node9" class="node"><title>Node9</title>
<polygon fill="none" stroke="#bfbfbf" points="955.296,-112.5 955.296,-131.5 999.296,-131.5 999.296,-112.5 955.296,-112.5"/>
<text text-anchor="middle" x="977.296" y="-119.5" font-family="Helvetica,sans-Serif" font-size="10.00">thread</text>
</g>
<!-- Node3&#45;&gt;Node9 -->
<g id="edge8" class="edge"><title>Node3&#45;&gt;Node9</title>
<path fill="none" stroke="midnightblue" d="M545.389,-226.256C593.619,-219.674 663.063,-207.714 721.296,-188 740.123,-181.627 742.496,-174.451 761.296,-168 838.464,-141.523 861.699,-149.899 941.296,-132 942.569,-131.714 943.866,-131.417 945.174,-131.112"/>
<polygon fill="midnightblue" stroke="midnightblue" points="946.347,-134.43 955.251,-128.688 944.71,-127.624 946.347,-134.43"/>
</g>
<!-- Node10 -->
<g id="node10" class="node"><title>Node10</title>
<polygon fill="none" stroke="#bfbfbf" points="823.296,-168.5 823.296,-187.5 861.296,-187.5 861.296,-168.5 823.296,-168.5"/>
<text text-anchor="middle" x="842.296" y="-175.5" font-family="Helvetica,sans-Serif" font-size="10.00">tuple</text>
</g>
<!-- Node3&#45;&gt;Node10 -->
<g id="edge9" class="edge"><title>Node3&#45;&gt;Node10</title>
<path fill="none" stroke="midnightblue" d="M545.59,-227.795C611.503,-221.326 720.857,-208.558 813.296,-188 813.396,-187.978 813.496,-187.955 813.596,-187.933"/>
<polygon fill="midnightblue" stroke="midnightblue" points="814.286,-191.37 823.072,-185.45 812.511,-184.599 814.286,-191.37"/>
</g>
<!-- Node11 -->
<g id="node11" class="node"><title>Node11</title>
<polygon fill="none" stroke="#bfbfbf" points="393.796,-112.5 393.796,-131.5 476.796,-131.5 476.796,-112.5 393.796,-112.5"/>
<text text-anchor="middle" x="435.296" y="-119.5" font-family="Helvetica,sans-Serif" font-size="10.00">unordered_map</text>
</g>
<!-- Node3&#45;&gt;Node11 -->
<g id="edge10" class="edge"><title>Node3&#45;&gt;Node11</title>
<path fill="none" stroke="midnightblue" d="M482.294,-224.368C473.989,-206.456 454.733,-164.923 443.617,-140.948"/>
<polygon fill="midnightblue" stroke="midnightblue" points="446.661,-139.192 439.279,-131.591 440.31,-142.136 446.661,-139.192"/>
</g>
<!-- Node12 -->
<g id="node12" class="node"><title>Node12</title>
<polygon fill="none" stroke="#bfbfbf" points="429.296,-56.5 429.296,-75.5 473.296,-75.5 473.296,-56.5 429.296,-56.5"/>
<text text-anchor="middle" x="451.296" y="-63.5" font-family="Helvetica,sans-Serif" font-size="10.00">vector</text>
</g>
<!-- Node3&#45;&gt;Node12 -->
<g id="edge11" class="edge"><title>Node3&#45;&gt;Node12</title>
<path fill="none" stroke="midnightblue" d="M488.004,-224.483C491.68,-204.287 498.953,-152.178 485.296,-112 481.648,-101.266 474.345,-91.0368 467.439,-83.0512"/>
<polygon fill="midnightblue" stroke="midnightblue" points="469.918,-80.5765 460.557,-75.6146 464.78,-85.3311 469.918,-80.5765"/>
</g>
<!-- Node13 -->
<g id="node13" class="node"><title>Node13</title>
<g id="a_node13"><a xlink:href="../../df/d83/Backend_8h.html" target="_top" xlink:title="Monitoring/Backend.h">
<polygon fill="none" stroke="black" points="80.7961,-168.5 80.7961,-187.5 191.796,-187.5 191.796,-168.5 80.7961,-168.5"/>
<text text-anchor="middle" x="136.296" y="-175.5" font-family="Helvetica,sans-Serif" font-size="10.00">Monitoring/Backend.h</text>
</a>
</g>
</g>
<!-- Node3&#45;&gt;Node13 -->
<g id="edge12" class="edge"><title>Node3&#45;&gt;Node13</title>
<path fill="none" stroke="midnightblue" d="M430.838,-224.444C368.629,-214.846 267.816,-199.292 201.783,-189.104"/>
<polygon fill="midnightblue" stroke="midnightblue" points="201.912,-185.582 191.495,-187.516 200.844,-192.5 201.912,-185.582"/>
</g>
<!-- Node17 -->
<g id="node17" class="node"><title>Node17</title>
<g id="a_node17"><a xlink:href="../../dc/de0/DerivedMetrics_8h.html" target="_top" xlink:title="Monitoring/DerivedMetrics.h">
<polygon fill="none" stroke="black" points="278.796,-168.5 278.796,-187.5 417.796,-187.5 417.796,-168.5 278.796,-168.5"/>
<text text-anchor="middle" x="348.296" y="-175.5" font-family="Helvetica,sans-Serif" font-size="10.00">Monitoring/DerivedMetrics.h</text>
</a>
</g>
</g>
<!-- Node3&#45;&gt;Node17 -->
<g id="edge22" class="edge"><title>Node3&#45;&gt;Node17</title>
<path fill="none" stroke="midnightblue" d="M464.43,-224.444C441.517,-215.478 405.321,-201.314 379.43,-191.183"/>
<polygon fill="midnightblue" stroke="midnightblue" points="380.648,-187.901 370.06,-187.516 378.097,-194.42 380.648,-187.901"/>
</g>
<!-- Node18 -->
<g id="node18" class="node"><title>Node18</title>
<g id="a_node18"><a xlink:href="../../df/d93/ProcessMonitor_8h.html" target="_top" xlink:title="Monitoring/ProcessMonitor.h">
<polygon fill="none" stroke="black" points="571.796,-168.5 571.796,-187.5 712.796,-187.5 712.796,-168.5 571.796,-168.5"/>
<text text-anchor="middle" x="642.296" y="-175.5" font-family="Helvetica,sans-Serif" font-size="10.00">Monitoring/ProcessMonitor.h</text>
</a>
</g>
</g>
<!-- Node3&#45;&gt;Node18 -->
<g id="edge28" class="edge"><title>Node3&#45;&gt;Node18</title>
<path fill="none" stroke="midnightblue" d="M511.015,-224.444C537.145,-215.399 578.555,-201.064 607.873,-190.916"/>
<polygon fill="midnightblue" stroke="midnightblue" points="609.388,-194.095 617.693,-187.516 607.098,-187.48 609.388,-194.095"/>
</g>
<!-- Node13&#45;&gt;Node5 -->
<g id="edge13" class="edge"><title>Node13&#45;&gt;Node5</title>
<path fill="none" stroke="midnightblue" d="M124.846,-168.216C114.263,-159.72 98.5232,-146.093 87.2961,-132 75.5616,-117.271 65.2477,-98.3685 58.5109,-84.7489"/>
<polygon fill="midnightblue" stroke="midnightblue" points="61.5677,-83.0283 54.0923,-75.5203 55.254,-86.0513 61.5677,-83.0283"/>
</g>
<!-- Node13&#45;&gt;Node8 -->
<g id="edge14" class="edge"><title>Node13&#45;&gt;Node8</title>
<path fill="none" stroke="midnightblue" d="M131.304,-168.153C124.879,-155.63 115.122,-132.029 120.296,-112 127.411,-84.4562 132.062,-76.9605 151.296,-56 162.919,-43.3336 178.79,-32.4724 192.168,-24.5953"/>
<polygon fill="midnightblue" stroke="midnightblue" points="193.964,-27.6003 200.948,-19.6331 190.52,-21.5062 193.964,-27.6003"/>
</g>
<!-- Node14 -->
<g id="node14" class="node"><title>Node14</title>
<g id="a_node14"><a xlink:href="../../d9/d92/Metric_8h.html" target="_top" xlink:title="Monitoring/Metric.h">
<polygon fill="none" stroke="black" points="199.296,-112.5 199.296,-131.5 299.296,-131.5 299.296,-112.5 199.296,-112.5"/>
<text text-anchor="middle" x="249.296" y="-119.5" font-family="Helvetica,sans-Serif" font-size="10.00">Monitoring/Metric.h</text>
</a>
</g>
</g>
<!-- Node13&#45;&gt;Node14 -->
<g id="edge15" class="edge"><title>Node13&#45;&gt;Node14</title>
<path fill="none" stroke="midnightblue" d="M154.201,-168.444C172.55,-159.675 201.302,-145.935 222.39,-135.858"/>
<polygon fill="midnightblue" stroke="midnightblue" points="223.961,-138.986 231.475,-131.516 220.943,-132.67 223.961,-138.986"/>
</g>
<!-- Node14&#45;&gt;Node5 -->
<g id="edge17" class="edge"><title>Node14&#45;&gt;Node5</title>
<path fill="none" stroke="midnightblue" d="M217.764,-112.444C180.999,-102.467 120.52,-86.0556 83.1834,-75.9242"/>
<polygon fill="midnightblue" stroke="midnightblue" points="83.873,-72.4848 73.3054,-73.2437 82.0397,-79.2405 83.873,-72.4848"/>
</g>
<!-- Node14&#45;&gt;Node8 -->
<g id="edge16" class="edge"><title>Node14&#45;&gt;Node8</title>
<path fill="none" stroke="midnightblue" d="M211.328,-112.411C191.888,-105.883 169.92,-94.7151 158.296,-76 145.889,-56.0233 169.791,-36.689 191.005,-24.3758"/>
<polygon fill="midnightblue" stroke="midnightblue" points="192.73,-27.4216 199.818,-19.5472 189.366,-21.2826 192.73,-27.4216"/>
</g>
<!-- Node14&#45;&gt;Node12 -->
<g id="edge18" class="edge"><title>Node14&#45;&gt;Node12</title>
<path fill="none" stroke="midnightblue" d="M281.304,-112.444C319.029,-102.358 381.355,-85.6971 419.144,-75.5952"/>
<polygon fill="midnightblue" stroke="midnightblue" points="420.354,-78.8947 429.111,-72.9308 418.546,-72.1322 420.354,-78.8947"/>
</g>
<!-- Node15 -->
<g id="node15" class="node"><title>Node15</title>
<polygon fill="none" stroke="#bfbfbf" points="167.296,-56.5 167.296,-75.5 259.296,-75.5 259.296,-56.5 167.296,-56.5"/>
<text text-anchor="middle" x="213.296" y="-63.5" font-family="Helvetica,sans-Serif" font-size="10.00">boost/variant.hpp</text>
</g>
<!-- Node14&#45;&gt;Node15 -->
<g id="edge19" class="edge"><title>Node14&#45;&gt;Node15</title>
<path fill="none" stroke="midnightblue" d="M243.351,-112.083C238.319,-104.534 230.959,-93.4948 224.783,-84.2298"/>
<polygon fill="midnightblue" stroke="midnightblue" points="227.589,-82.1301 219.13,-75.7511 221.765,-86.0131 227.589,-82.1301"/>
</g>
<!-- Node16 -->
<g id="node16" class="node"><title>Node16</title>
<g id="a_node16"><a xlink:href="../../d9/d33/Tag_8h.html" target="_top" xlink:title="Tag.h">
<polygon fill="none" stroke="black" points="277.796,-56.5 277.796,-75.5 318.796,-75.5 318.796,-56.5 277.796,-56.5"/>
<text text-anchor="middle" x="298.296" y="-63.5" font-family="Helvetica,sans-Serif" font-size="10.00">Tag.h</text>
</a>
</g>
</g>
<!-- Node14&#45;&gt;Node16 -->
<g id="edge20" class="edge"><title>Node14&#45;&gt;Node16</title>
<path fill="none" stroke="midnightblue" d="M257.387,-112.083C264.451,-104.298 274.884,-92.8015 283.445,-83.3665"/>
<polygon fill="midnightblue" stroke="midnightblue" points="286.227,-85.5087 290.355,-75.7511 281.043,-80.8047 286.227,-85.5087"/>
</g>
<!-- Node16&#45;&gt;Node8 -->
<g id="edge21" class="edge"><title>Node16&#45;&gt;Node8</title>
<path fill="none" stroke="midnightblue" d="M285.443,-56.324C273.08,-47.979 254.166,-35.2122 239.559,-25.3524"/>
<polygon fill="midnightblue" stroke="midnightblue" points="241.364,-22.3483 231.118,-19.6545 237.448,-28.1503 241.364,-22.3483"/>
</g>
<!-- Node17&#45;&gt;Node7 -->
<g id="edge24" class="edge"><title>Node17&#45;&gt;Node7</title>
<path fill="none" stroke="midnightblue" d="M317.715,-168.444C283.321,-158.821 227.529,-143.21 191.122,-133.024"/>
<polygon fill="midnightblue" stroke="midnightblue" points="191.975,-129.628 181.402,-130.304 190.089,-136.369 191.975,-129.628"/>
</g>
<!-- Node17&#45;&gt;Node8 -->
<g id="edge25" class="edge"><title>Node17&#45;&gt;Node8</title>
<path fill="none" stroke="midnightblue" d="M349.415,-168.252C351.681,-146.625 354.495,-89.9416 327.296,-56 308.141,-32.0956 274.142,-20.7618 249.194,-15.4701"/>
<polygon fill="midnightblue" stroke="midnightblue" points="249.604,-11.9854 239.126,-13.5532 248.295,-18.8619 249.604,-11.9854"/>
</g>
<!-- Node17&#45;&gt;Node11 -->
<g id="edge23" class="edge"><title>Node17&#45;&gt;Node11</title>
<path fill="none" stroke="midnightblue" d="M362.274,-168.324C375.846,-159.9 396.676,-146.971 412.621,-137.074"/>
<polygon fill="midnightblue" stroke="midnightblue" points="414.702,-139.902 421.353,-131.655 411.011,-133.954 414.702,-139.902"/>
</g>
<!-- Node17&#45;&gt;Node12 -->
<g id="edge26" class="edge"><title>Node17&#45;&gt;Node12</title>
<path fill="none" stroke="midnightblue" d="M351.602,-168.182C356.923,-154.853 368.421,-129.297 384.296,-112 395.92,-99.3349 411.791,-88.4737 425.169,-80.5963"/>
<polygon fill="midnightblue" stroke="midnightblue" points="426.965,-83.6013 433.949,-75.6339 423.521,-77.5073 426.965,-83.6013"/>
</g>
<!-- Node17&#45;&gt;Node14 -->
<g id="edge27" class="edge"><title>Node17&#45;&gt;Node14</title>
<path fill="none" stroke="midnightblue" d="M332.39,-168.324C316.658,-159.743 292.354,-146.486 274.087,-136.522"/>
<polygon fill="midnightblue" stroke="midnightblue" points="275.618,-133.37 265.163,-131.655 272.266,-139.516 275.618,-133.37"/>
</g>
<!-- Node18&#45;&gt;Node4 -->
<g id="edge29" class="edge"><title>Node18&#45;&gt;Node4</title>
<path fill="none" stroke="midnightblue" d="M628.479,-168.324C615.063,-159.9 594.472,-146.971 578.71,-137.074"/>
<polygon fill="midnightblue" stroke="midnightblue" points="580.409,-134.008 570.079,-131.655 576.687,-139.936 580.409,-134.008"/>
</g>
<!-- Node18&#45;&gt;Node8 -->
<g id="edge33" class="edge"><title>Node18&#45;&gt;Node8</title>
<path fill="none" stroke="midnightblue" d="M704.994,-168.455C781.545,-157.722 901.73,-139.77 908.296,-132 914.033,-125.211 914.109,-118.725 908.296,-112 820.979,-10.9709 371.812,-9.05981 249.233,-10.4639"/>
<polygon fill="midnightblue" stroke="midnightblue" points="248.999,-6.96653 239.045,-10.5974 249.09,-13.9659 248.999,-6.96653"/>
</g>
<!-- Node18&#45;&gt;Node9 -->
<g id="edge34" class="edge"><title>Node18&#45;&gt;Node9</title>
<path fill="none" stroke="midnightblue" d="M711.501,-168.493C772.313,-160.565 863.051,-147.631 941.296,-132 942.575,-131.744 943.878,-131.473 945.191,-131.19"/>
<polygon fill="midnightblue" stroke="midnightblue" points="946.332,-134.518 955.287,-128.856 944.755,-127.698 946.332,-134.518"/>
</g>
<!-- Node18&#45;&gt;Node12 -->
<g id="edge35" class="edge"><title>Node18&#45;&gt;Node12</title>
<path fill="none" stroke="midnightblue" d="M637.18,-168.071C628.746,-154.121 610.614,-127.186 588.296,-112 556.221,-90.1751 512.776,-78.2834 483.48,-72.2965"/>
<polygon fill="midnightblue" stroke="midnightblue" points="483.856,-68.8047 473.375,-70.3505 482.532,-75.6784 483.856,-68.8047"/>
</g>
<!-- Node18&#45;&gt;Node14 -->
<g id="edge36" class="edge"><title>Node18&#45;&gt;Node14</title>
<path fill="none" stroke="midnightblue" d="M580.024,-168.444C505.814,-158.247 382.678,-141.327 309.425,-131.262"/>
<polygon fill="midnightblue" stroke="midnightblue" points="309.813,-127.783 299.43,-129.889 308.86,-134.717 309.813,-127.783"/>
</g>
<!-- Node19 -->
<g id="node19" class="node"><title>Node19</title>
<polygon fill="none" stroke="#bfbfbf" points="635.796,-112.5 635.796,-131.5 764.796,-131.5 764.796,-112.5 635.796,-112.5"/>
<text text-anchor="middle" x="700.296" y="-119.5" font-family="Helvetica,sans-Serif" font-size="10.00">boost/algorithm/string.hpp</text>
</g>
<!-- Node18&#45;&gt;Node19 -->
<g id="edge30" class="edge"><title>Node18&#45;&gt;Node19</title>
<path fill="none" stroke="midnightblue" d="M651.615,-168.324C660.189,-160.341 673.108,-148.313 683.484,-138.653"/>
<polygon fill="midnightblue" stroke="midnightblue" points="685.874,-141.21 690.808,-131.834 681.104,-136.086 685.874,-141.21"/>
</g>
<!-- Node20 -->
<g id="node20" class="node"><title>Node20</title>
<polygon fill="none" stroke="#bfbfbf" points="783.296,-112.5 783.296,-131.5 827.296,-131.5 827.296,-112.5 783.296,-112.5"/>
<text text-anchor="middle" x="805.296" y="-119.5" font-family="Helvetica,sans-Serif" font-size="10.00">mutex</text>
</g>
<!-- Node18&#45;&gt;Node20 -->
<g id="edge31" class="edge"><title>Node18&#45;&gt;Node20</title>
<path fill="none" stroke="midnightblue" d="M668.124,-168.444C696.675,-158.985 742.686,-143.742 773.448,-133.551"/>
<polygon fill="midnightblue" stroke="midnightblue" points="774.856,-136.771 783.248,-130.304 772.655,-130.127 774.856,-136.771"/>
</g>
<!-- Node21 -->
<g id="node21" class="node"><title>Node21</title>
<polygon fill="none" stroke="#bfbfbf" points="845.296,-112.5 845.296,-131.5 899.296,-131.5 899.296,-112.5 845.296,-112.5"/>
<text text-anchor="middle" x="872.296" y="-119.5" font-family="Helvetica,sans-Serif" font-size="10.00">iostream</text>
</g>
<!-- Node18&#45;&gt;Node21 -->
<g id="edge32" class="edge"><title>Node18&#45;&gt;Node21</title>
<path fill="none" stroke="midnightblue" d="M679.32,-168.478C718.191,-159.505 781.076,-144.915 835.296,-132 835.397,-131.976 835.497,-131.952 835.598,-131.928"/>
<polygon fill="midnightblue" stroke="midnightblue" points="836.319,-135.355 845.225,-129.616 834.685,-128.548 836.319,-135.355"/>
</g>
</g>
</svg>
        <g id="navigator" transform="translate(0 0)" fill="#404254">
                <rect fill="#f2f5e9" fill-opacity="0.5" stroke="#606060" stroke-width=".5" x="0" y="0" width="60" height="60"/>
                <use id="zoomplus" xlink:href="#zoomPlus" x="17" y="9" onmousedown="handleZoom(evt,'in')"/>
                <use id="zoomminus" xlink:href="#zoomMin" x="42" y="9" onmousedown="handleZoom(evt,'out')"/>
                <use id="reset" xlink:href="#resetDef" x="30" y="36" onmousedown="handleReset()"/>
                <g id="arrowUp" xlink:href="#dirArrow" transform="translate(30 24)" onmousedown="handlePan(0,-1)">
                  <use xlink:href="#rim" fill="#404040">
                        <set attributeName="fill" to="#808080" begin="arrowUp.mouseover" end="arrowUp.mouseout"/>
                  </use>
                  <path fill="none" stroke="white" stroke-width="1.5" d="M0,-3.0v7 M-2.5,-0.5L0,-3.0L2.5,-0.5"/>
                </g>
                <g id="arrowRight" xlink:href="#dirArrow" transform="rotate(90) translate(36 -43)" onmousedown="handlePan(1,0)">
                  <use xlink:href="#rim" fill="#404040">
                        <set attributeName="fill" to="#808080" begin="arrowRight.mouseover" end="arrowRight.mouseout"/>
                  </use>
                  <path fill="none" stroke="white" stroke-width="1.5" d="M0,-3.0v7 M-2.5,-0.5L0,-3.0L2.5,-0.5"/>
                </g>
                <g id="arrowDown" xlink:href="#dirArrow" transform="rotate(180) translate(-30 -48)" onmousedown="handlePan(0,1)">
                  <use xlink:href="#rim" fill="#404040">
                        <set attributeName="fill" to="#808080" begin="arrowDown.mouseover" end="arrowDown.mouseout"/>
                  </use>
                  <path fill="none" stroke="white" stroke-width="1.5" d="M0,-3.0v7 M-2.5,-0.5L0,-3.0L2.5,-0.5"/>
                </g>
                <g id="arrowLeft" xlink:href="#dirArrow" transform="rotate(270) translate(-36 17)" onmousedown="handlePan(-1,0)">
                  <use xlink:href="#rim" fill="#404040">
                        <set attributeName="fill" to="#808080" begin="arrowLeft.mouseover" end="arrowLeft.mouseout"/>
                  </use>
                  <path fill="none" stroke="white" stroke-width="1.5" d="M0,-3.0v7 M-2.5,-0.5L0,-3.0L2.5,-0.5"/>
                </g>
        </g>
        <svg viewBox="0 0 15 15" width="100%" height="30px" preserveAspectRatio="xMaxYMin meet">
         <g id="arrow_out" transform="scale(0.3 0.3)">
          <a xlink:href="6-Increment_8cxx__incl_org.svg" target="_base">
           <rect id="button" ry="5" rx="5" y="6" x="6" height="38" width="38"
                fill="#f2f5e9" fill-opacity="0.5" stroke="#606060" stroke-width="1.0"/>
           <path id="arrow"
             d="M 11.500037,31.436501 C 11.940474,20.09759 22.043105,11.32322 32.158766,21.979434 L 37.068811,17.246167 C 37.068811,17.246167 37.088388,32 37.088388,32 L 22.160133,31.978069 C 22.160133,31.978069 26.997745,27.140456 26.997745,27.140456 C 18.528582,18.264221 13.291696,25.230495 11.500037,31.436501 z"
             style="fill:#404040;"/>
          </a>
         </g>
        </svg>
</svg>
