<?xml version="1.0" encoding="UTF-8" standalone="no"?>
<!DOCTYPE svg PUBLIC "-//W3C//DTD SVG 1.1//EN"
 "http://www.w3.org/Graphics/SVG/1.1/DTD/svg11.dtd">
<!-- Generated by graphviz version 2.36.0 (20140111.2315)
 -->
<!-- Title: /home/travis/build/AliceO2Group/Monitoring/examples/9&#45;Timer.cxx Pages: 1 -->
<svg width="1035pt" height="386pt"
 viewBox="0.00 0.00 1035.49 386.00" xmlns="http://www.w3.org/2000/svg" xmlns:xlink="http://www.w3.org/1999/xlink">
<g id="graph0" class="graph" transform="scale(1 1) rotate(0) translate(4 382)">
<title>/home/travis/build/AliceO2Group/Monitoring/examples/9&#45;Timer.cxx</title>
<!-- Node1 -->
<g id="node1" class="node"><title>Node1</title>
<polygon fill="#bfbfbf" stroke="black" points="91,-336.5 91,-377.5 219,-377.5 219,-336.5 91,-336.5"/>
<text text-anchor="start" x="99" y="-365.5" font-family="Helvetica,sans-Serif" font-size="10.00">/home/travis/build</text>
<text text-anchor="start" x="99" y="-354.5" font-family="Helvetica,sans-Serif" font-size="10.00">/AliceO2Group/Monitoring</text>
<text text-anchor="middle" x="155" y="-343.5" font-family="Helvetica,sans-Serif" font-size="10.00">/examples/9&#45;Timer.cxx</text>
</g>
<!-- Node2 -->
<g id="node2" class="node"><title>Node2</title>
<g id="a_node2"><a xlink:href="../../df/d4e/MonitoringFactory_8h.html" target="_top" xlink:title="Monitoring/MonitoringFactory.h">
<polygon fill="none" stroke="black" points="235.5,-280.5 235.5,-299.5 386.5,-299.5 386.5,-280.5 235.5,-280.5"/>
<text text-anchor="middle" x="311" y="-287.5" font-family="Helvetica,sans-Serif" font-size="10.00">Monitoring/MonitoringFactory.h</text>
</a>
</g>
</g>
<!-- Node1&#45;&gt;Node2 -->
<g id="edge1" class="edge"><title>Node1&#45;&gt;Node2</title>
<path fill="none" stroke="midnightblue" d="M201.805,-336.498C227.448,-325.813 258.476,-312.885 280.893,-303.545"/>
<polygon fill="midnightblue" stroke="midnightblue" points="282.349,-306.729 290.234,-299.652 279.657,-300.268 282.349,-306.729"/>
</g>
<!-- Node5 -->
<g id="node5" class="node"><title>Node5</title>
<polygon fill="none" stroke="#bfbfbf" points="27,-56.5 27,-75.5 73,-75.5 73,-56.5 27,-56.5"/>
<text text-anchor="middle" x="50" y="-63.5" font-family="Helvetica,sans-Serif" font-size="10.00">chrono</text>
</g>
<!-- Node1&#45;&gt;Node5 -->
<g id="edge37" class="edge"><title>Node1&#45;&gt;Node5</title>
<path fill="none" stroke="midnightblue" d="M95.073,-336.354C51.456,-317.852 0,-285.354 0,-235 0,-235 0,-235 0,-177 0,-141.184 22.2399,-104.214 37.0547,-83.5601"/>
<polygon fill="midnightblue" stroke="midnightblue" points="39.8779,-85.6289 43.0477,-75.5193 34.2654,-81.4456 39.8779,-85.6289"/>
</g>
<!-- Node3 -->
<g id="node3" class="node"><title>Node3</title>
<g id="a_node3"><a xlink:href="../../d0/d98/Monitoring_8h.html" target="_top" xlink:title="Monitoring/Monitoring.h">
<polygon fill="none" stroke="black" points="459,-224.5 459,-243.5 577,-243.5 577,-224.5 459,-224.5"/>
<text text-anchor="middle" x="518" y="-231.5" font-family="Helvetica,sans-Serif" font-size="10.00">Monitoring/Monitoring.h</text>
</a>
</g>
</g>
<!-- Node2&#45;&gt;Node3 -->
<g id="edge2" class="edge"><title>Node2&#45;&gt;Node3</title>
<path fill="none" stroke="midnightblue" d="M343.8,-280.444C379.38,-271.162 436.314,-256.309 475.347,-246.127"/>
<polygon fill="midnightblue" stroke="midnightblue" points="476.561,-249.427 485.354,-243.516 474.794,-242.654 476.561,-249.427"/>
</g>
<!-- Node4 -->
<g id="node4" class="node"><title>Node4</title>
<polygon fill="none" stroke="#bfbfbf" points="966,-112.5 966,-131.5 1012,-131.5 1012,-112.5 966,-112.5"/>
<text text-anchor="middle" x="989" y="-119.5" font-family="Helvetica,sans-Serif" font-size="10.00">atomic</text>
</g>
<!-- Node3&#45;&gt;Node4 -->
<g id="edge3" class="edge"><title>Node3&#45;&gt;Node4</title>
<path fill="none" stroke="midnightblue" d="M577.235,-229.965C643.564,-225.397 753.725,-214.284 845,-188 889.091,-175.303 937.044,-151.446 964.988,-136.435"/>
<polygon fill="midnightblue" stroke="midnightblue" points="966.89,-139.384 973.998,-131.527 963.542,-133.237 966.89,-139.384"/>
</g>
<!-- Node3&#45;&gt;Node5 -->
<g id="edge4" class="edge"><title>Node3&#45;&gt;Node5</title>
<path fill="none" stroke="midnightblue" d="M458.869,-230.732C345.443,-225.841 106.005,-212.694 78,-188 48.8488,-162.295 46.8672,-112.801 48.2468,-85.7613"/>
<polygon fill="midnightblue" stroke="midnightblue" points="51.7452,-85.9085 48.9744,-75.6824 44.7634,-85.4044 51.7452,-85.9085"/>
</g>
<!-- Node6 -->
<g id="node6" class="node"><title>Node6</title>
<polygon fill="none" stroke="#bfbfbf" points="744.5,-168.5 744.5,-187.5 779.5,-187.5 779.5,-168.5 744.5,-168.5"/>
<text text-anchor="middle" x="762" y="-175.5" font-family="Helvetica,sans-Serif" font-size="10.00">map</text>
</g>
<!-- Node3&#45;&gt;Node6 -->
<g id="edge5" class="edge"><title>Node3&#45;&gt;Node6</title>
<path fill="none" stroke="midnightblue" d="M562.45,-224.439C605.478,-215.947 672.462,-202.182 730,-188 731.471,-187.637 732.977,-187.255 734.494,-186.859"/>
<polygon fill="midnightblue" stroke="midnightblue" points="735.715,-190.155 744.449,-184.158 733.882,-183.399 735.715,-190.155"/>
</g>
<!-- Node7 -->
<g id="node7" class="node"><title>Node7</title>
<polygon fill="none" stroke="#bfbfbf" points="336,-112.5 336,-131.5 388,-131.5 388,-112.5 336,-112.5"/>
<text text-anchor="middle" x="362" y="-119.5" font-family="Helvetica,sans-Serif" font-size="10.00">memory</text>
</g>
<!-- Node3&#45;&gt;Node7 -->
<g id="edge6" class="edge"><title>Node3&#45;&gt;Node7</title>
<path fill="none" stroke="midnightblue" d="M505.759,-224.368C479.103,-205.573 415.562,-160.768 382.611,-137.533"/>
<polygon fill="midnightblue" stroke="midnightblue" points="384.374,-134.494 374.184,-131.591 380.34,-140.215 384.374,-134.494"/>
</g>
<!-- Node8 -->
<g id="node8" class="node"><title>Node8</title>
<polygon fill="none" stroke="#bfbfbf" points="259.5,-0.5 259.5,-19.5 300.5,-19.5 300.5,-0.5 259.5,-0.5"/>
<text text-anchor="middle" x="280" y="-7.5" font-family="Helvetica,sans-Serif" font-size="10.00">string</text>
</g>
<!-- Node3&#45;&gt;Node8 -->
<g id="edge7" class="edge"><title>Node3&#45;&gt;Node8</title>
<path fill="none" stroke="midnightblue" d="M577.258,-229.07C722.054,-218.295 1077.99,-184.162 1021,-112 976.05,-55.0797 445.03,-20.5768 310.714,-12.7228"/>
<polygon fill="midnightblue" stroke="midnightblue" points="310.878,-9.22646 300.693,-12.1434 310.474,-16.2148 310.878,-9.22646"/>
</g>
<!-- Node9 -->
<g id="node9" class="node"><title>Node9</title>
<polygon fill="none" stroke="#bfbfbf" points="904,-112.5 904,-131.5 948,-131.5 948,-112.5 904,-112.5"/>
<text text-anchor="middle" x="926" y="-119.5" font-family="Helvetica,sans-Serif" font-size="10.00">thread</text>
</g>
<!-- Node3&#45;&gt;Node9 -->
<g id="edge8" class="edge"><title>Node3&#45;&gt;Node9</title>
<path fill="none" stroke="midnightblue" d="M563.486,-224.468C599.976,-216.921 652.16,-204.539 696,-188 714.226,-181.124 716.708,-174.698 735,-168 801.41,-143.681 821.248,-148.577 890,-132 891.268,-131.694 892.561,-131.38 893.867,-131.062"/>
<polygon fill="midnightblue" stroke="midnightblue" points="895.059,-134.373 903.93,-128.58 893.382,-127.577 895.059,-134.373"/>
</g>
<!-- Node10 -->
<g id="node10" class="node"><title>Node10</title>
<polygon fill="none" stroke="#bfbfbf" points="798,-168.5 798,-187.5 836,-187.5 836,-168.5 798,-168.5"/>
<text text-anchor="middle" x="817" y="-175.5" font-family="Helvetica,sans-Serif" font-size="10.00">tuple</text>
</g>
<!-- Node3&#45;&gt;Node10 -->
<g id="edge9" class="edge"><title>Node3&#45;&gt;Node10</title>
<path fill="none" stroke="midnightblue" d="M577.187,-225.493C632.199,-217.96 716.217,-205.037 788,-188 788.099,-187.976 788.199,-187.953 788.299,-187.929"/>
<polygon fill="midnightblue" stroke="midnightblue" points="789.018,-191.36 797.758,-185.372 787.191,-184.603 789.018,-191.36"/>
</g>
<!-- Node11 -->
<g id="node11" class="node"><title>Node11</title>
<polygon fill="none" stroke="#bfbfbf" points="406.5,-112.5 406.5,-131.5 489.5,-131.5 489.5,-112.5 406.5,-112.5"/>
<text text-anchor="middle" x="448" y="-119.5" font-family="Helvetica,sans-Serif" font-size="10.00">unordered_map</text>
</g>
<!-- Node3&#45;&gt;Node11 -->
<g id="edge10" class="edge"><title>Node3&#45;&gt;Node11</title>
<path fill="none" stroke="midnightblue" d="M512.507,-224.368C501.006,-206.296 474.203,-164.176 459.014,-140.307"/>
<polygon fill="midnightblue" stroke="midnightblue" points="461.789,-138.149 453.467,-131.591 455.883,-141.907 461.789,-138.149"/>
</g>
<!-- Node12 -->
<g id="node12" class="node"><title>Node12</title>
<polygon fill="none" stroke="#bfbfbf" points="442,-56.5 442,-75.5 486,-75.5 486,-56.5 442,-56.5"/>
<text text-anchor="middle" x="464" y="-63.5" font-family="Helvetica,sans-Serif" font-size="10.00">vector</text>
</g>
<!-- Node3&#45;&gt;Node12 -->
<g id="edge11" class="edge"><title>Node3&#45;&gt;Node12</title>
<path fill="none" stroke="midnightblue" d="M517.97,-224.395C517.609,-204.011 514.964,-151.523 498,-112 493.529,-101.582 486.147,-91.3829 479.402,-83.3356"/>
<polygon fill="midnightblue" stroke="midnightblue" points="481.997,-80.9861 472.753,-75.8094 476.751,-85.6209 481.997,-80.9861"/>
</g>
<!-- Node13 -->
<g id="node13" class="node"><title>Node13</title>
<g id="a_node13"><a xlink:href="../../df/d83/Backend_8h.html" target="_top" xlink:title="Monitoring/Backend.h">
<polygon fill="none" stroke="black" points="87.5,-168.5 87.5,-187.5 198.5,-187.5 198.5,-168.5 87.5,-168.5"/>
<text text-anchor="middle" x="143" y="-175.5" font-family="Helvetica,sans-Serif" font-size="10.00">Monitoring/Backend.h</text>
</a>
</g>
</g>
<!-- Node3&#45;&gt;Node13 -->
<g id="edge12" class="edge"><title>Node3&#45;&gt;Node13</title>
<path fill="none" stroke="midnightblue" d="M458.994,-224.503C390.973,-214.708 279.481,-198.653 208.737,-188.466"/>
<polygon fill="midnightblue" stroke="midnightblue" points="209.002,-184.968 198.605,-187.007 208.004,-191.897 209.002,-184.968"/>
</g>
<!-- Node17 -->
<g id="node17" class="node"><title>Node17</title>
<g id="a_node17"><a xlink:href="../../dc/de0/DerivedMetrics_8h.html" target="_top" xlink:title="Monitoring/DerivedMetrics.h">
<polygon fill="none" stroke="black" points="239.5,-168.5 239.5,-187.5 378.5,-187.5 378.5,-168.5 239.5,-168.5"/>
<text text-anchor="middle" x="309" y="-175.5" font-family="Helvetica,sans-Serif" font-size="10.00">Monitoring/DerivedMetrics.h</text>
</a>
</g>
</g>
<!-- Node3&#45;&gt;Node17 -->
<g id="edge22" class="edge"><title>Node3&#45;&gt;Node17</title>
<path fill="none" stroke="midnightblue" d="M484.883,-224.444C448.882,-215.142 391.23,-200.246 351.814,-190.062"/>
<polygon fill="midnightblue" stroke="midnightblue" points="352.519,-186.629 341.962,-187.516 350.768,-193.407 352.519,-186.629"/>
</g>
<!-- Node18 -->
<g id="node18" class="node"><title>Node18</title>
<g id="a_node18"><a xlink:href="../../df/d93/ProcessMonitor_8h.html" target="_top" xlink:title="Monitoring/ProcessMonitor.h">
<polygon fill="none" stroke="black" points="546.5,-168.5 546.5,-187.5 687.5,-187.5 687.5,-168.5 546.5,-168.5"/>
<text text-anchor="middle" x="617" y="-175.5" font-family="Helvetica,sans-Serif" font-size="10.00">Monitoring/ProcessMonitor.h</text>
</a>
</g>
</g>
<!-- Node3&#45;&gt;Node18 -->
<g id="edge28" class="edge"><title>Node3&#45;&gt;Node18</title>
<path fill="none" stroke="midnightblue" d="M533.906,-224.324C549.638,-215.743 573.942,-202.486 592.209,-192.522"/>
<polygon fill="midnightblue" stroke="midnightblue" points="594.03,-195.516 601.133,-187.655 590.678,-189.37 594.03,-195.516"/>
</g>
<!-- Node13&#45;&gt;Node5 -->
<g id="edge13" class="edge"><title>Node13&#45;&gt;Node5</title>
<path fill="none" stroke="midnightblue" d="M134.144,-168.297C125.241,-159.419 111.259,-145.121 100,-132 86.4405,-116.198 72.0552,-97.2373 62.2131,-83.8838"/>
<polygon fill="midnightblue" stroke="midnightblue" points="64.9171,-81.6518 56.1912,-75.6427 59.2652,-85.7818 64.9171,-81.6518"/>
</g>
<!-- Node13&#45;&gt;Node8 -->
<g id="edge14" class="edge"><title>Node13&#45;&gt;Node8</title>
<path fill="none" stroke="midnightblue" d="M141.192,-168.244C137.259,-146.599 130.291,-89.8775 157,-56 179.095,-27.9747 220.33,-17.3989 248.931,-13.4105"/>
<polygon fill="midnightblue" stroke="midnightblue" points="249.694,-16.8443 259.208,-12.1818 248.863,-9.89376 249.694,-16.8443"/>
</g>
<!-- Node14 -->
<g id="node14" class="node"><title>Node14</title>
<g id="a_node14"><a xlink:href="../../d9/d92/Metric_8h.html" target="_top" xlink:title="Monitoring/Metric.h">
<polygon fill="none" stroke="black" points="180,-112.5 180,-131.5 280,-131.5 280,-112.5 180,-112.5"/>
<text text-anchor="middle" x="230" y="-119.5" font-family="Helvetica,sans-Serif" font-size="10.00">Monitoring/Metric.h</text>
</a>
</g>
</g>
<!-- Node13&#45;&gt;Node14 -->
<g id="edge15" class="edge"><title>Node13&#45;&gt;Node14</title>
<path fill="none" stroke="midnightblue" d="M156.978,-168.324C170.55,-159.9 191.38,-146.971 207.325,-137.074"/>
<polygon fill="midnightblue" stroke="midnightblue" points="209.406,-139.902 216.057,-131.655 205.714,-133.954 209.406,-139.902"/>
</g>
<!-- Node14&#45;&gt;Node5 -->
<g id="edge17" class="edge"><title>Node14&#45;&gt;Node5</title>
<path fill="none" stroke="midnightblue" d="M201.478,-112.444C169.317,-102.795 117.091,-87.1273 83.1429,-76.9429"/>
<polygon fill="midnightblue" stroke="midnightblue" points="83.8206,-73.4921 73.2366,-73.971 81.8091,-80.1969 83.8206,-73.4921"/>
</g>
<!-- Node14&#45;&gt;Node8 -->
<g id="edge16" class="edge"><title>Node14&#45;&gt;Node8</title>
<path fill="none" stroke="midnightblue" d="M280.04,-113.609C302.637,-107.501 327.291,-96.3504 341,-76 354.24,-56.3462 329.816,-36.9486 308.049,-24.5323"/>
<polygon fill="midnightblue" stroke="midnightblue" points="309.464,-21.3191 299.001,-19.6581 306.145,-27.4819 309.464,-21.3191"/>
</g>
<!-- Node14&#45;&gt;Node12 -->
<g id="edge18" class="edge"><title>Node14&#45;&gt;Node12</title>
<path fill="none" stroke="midnightblue" d="M267.078,-112.444C312.557,-101.948 388.896,-84.3317 431.948,-74.3967"/>
<polygon fill="midnightblue" stroke="midnightblue" points="432.925,-77.7632 441.882,-72.1041 431.351,-70.9424 432.925,-77.7632"/>
</g>
<!-- Node15 -->
<g id="node15" class="node"><title>Node15</title>
<polygon fill="none" stroke="#bfbfbf" points="240,-56.5 240,-75.5 332,-75.5 332,-56.5 240,-56.5"/>
<text text-anchor="middle" x="286" y="-63.5" font-family="Helvetica,sans-Serif" font-size="10.00">boost/variant.hpp</text>
</g>
<!-- Node14&#45;&gt;Node15 -->
<g id="edge19" class="edge"><title>Node14&#45;&gt;Node15</title>
<path fill="none" stroke="midnightblue" d="M238.997,-112.324C247.194,-104.42 259.506,-92.5482 269.472,-82.9377"/>
<polygon fill="midnightblue" stroke="midnightblue" points="272.07,-85.2947 276.839,-75.8339 267.211,-80.2558 272.07,-85.2947"/>
</g>
<!-- Node16 -->
<g id="node16" class="node"><title>Node16</title>
<g id="a_node16"><a xlink:href="../../d9/d33/Tag_8h.html" target="_top" xlink:title="Tag.h">
<polygon fill="none" stroke="black" points="180.5,-56.5 180.5,-75.5 221.5,-75.5 221.5,-56.5 180.5,-56.5"/>
<text text-anchor="middle" x="201" y="-63.5" font-family="Helvetica,sans-Serif" font-size="10.00">Tag.h</text>
</a>
</g>
</g>
<!-- Node14&#45;&gt;Node16 -->
<g id="edge20" class="edge"><title>Node14&#45;&gt;Node16</title>
<path fill="none" stroke="midnightblue" d="M225.211,-112.083C221.242,-104.691 215.475,-93.9533 210.565,-84.8111"/>
<polygon fill="midnightblue" stroke="midnightblue" points="213.514,-82.9051 205.7,-75.7511 207.347,-86.217 213.514,-82.9051"/>
</g>
<!-- Node16&#45;&gt;Node8 -->
<g id="edge21" class="edge"><title>Node16&#45;&gt;Node8</title>
<path fill="none" stroke="midnightblue" d="M213.693,-56.324C225.901,-47.979 244.578,-35.2122 259.003,-25.3524"/>
<polygon fill="midnightblue" stroke="midnightblue" points="261.058,-28.1871 267.339,-19.6545 257.108,-22.4082 261.058,-28.1871"/>
</g>
<!-- Node17&#45;&gt;Node7 -->
<g id="edge24" class="edge"><title>Node17&#45;&gt;Node7</title>
<path fill="none" stroke="midnightblue" d="M317.752,-168.083C325.47,-160.22 336.905,-148.569 346.217,-139.081"/>
<polygon fill="midnightblue" stroke="midnightblue" points="348.904,-141.34 353.411,-131.751 343.908,-136.436 348.904,-141.34"/>
</g>
<!-- Node17&#45;&gt;Node8 -->
<g id="edge25" class="edge"><title>Node17&#45;&gt;Node8</title>
<path fill="none" stroke="midnightblue" d="M239.267,-171.191C213.544,-165.264 186.837,-153.823 171,-132 151.16,-104.663 152.218,-84.0742 171,-56 188.31,-30.1272 223.51,-19.1137 249.242,-14.4355"/>
<polygon fill="midnightblue" stroke="midnightblue" points="249.941,-17.8684 259.267,-12.8404 248.841,-10.9553 249.941,-17.8684"/>
</g>
<!-- Node17&#45;&gt;Node11 -->
<g id="edge23" class="edge"><title>Node17&#45;&gt;Node11</title>
<path fill="none" stroke="midnightblue" d="M331.025,-168.444C354.104,-159.478 390.562,-145.314 416.641,-135.183"/>
<polygon fill="midnightblue" stroke="midnightblue" points="418.024,-138.4 426.078,-131.516 415.489,-131.875 418.024,-138.4"/>
</g>
<!-- Node17&#45;&gt;Node12 -->
<g id="edge26" class="edge"><title>Node17&#45;&gt;Node12</title>
<path fill="none" stroke="midnightblue" d="M308.942,-168.167C309.336,-154.349 312.129,-127.59 327,-112 354.436,-83.2367 400.541,-72.8423 431.602,-69.0957"/>
<polygon fill="midnightblue" stroke="midnightblue" points="432.32,-72.5402 441.906,-68.0285 431.599,-65.5774 432.32,-72.5402"/>
</g>
<!-- Node17&#45;&gt;Node14 -->
<g id="edge27" class="edge"><title>Node17&#45;&gt;Node14</title>
<path fill="none" stroke="midnightblue" d="M296.307,-168.324C284.099,-159.979 265.422,-147.212 250.997,-137.352"/>
<polygon fill="midnightblue" stroke="midnightblue" points="252.892,-134.408 242.661,-131.655 248.942,-140.187 252.892,-134.408"/>
</g>
<!-- Node18&#45;&gt;Node4 -->
<g id="edge29" class="edge"><title>Node18&#45;&gt;Node4</title>
<path fill="none" stroke="midnightblue" d="M687.576,-170.423C754.247,-163.575 857.154,-151.373 955.816,-131.766"/>
<polygon fill="midnightblue" stroke="midnightblue" points="956.546,-135.19 965.657,-129.783 955.162,-128.328 956.546,-135.19"/>
</g>
<!-- Node18&#45;&gt;Node8 -->
<g id="edge33" class="edge"><title>Node18&#45;&gt;Node8</title>
<path fill="none" stroke="midnightblue" d="M686.21,-168.496C752.848,-159.597 845.118,-145.122 856,-132 861.674,-125.158 861.717,-118.807 856,-112 785.067,-27.5467 419.654,-13.695 310.699,-11.4367"/>
<polygon fill="midnightblue" stroke="midnightblue" points="310.752,-7.9372 300.687,-11.2475 310.62,-14.936 310.752,-7.9372"/>
</g>
<!-- Node18&#45;&gt;Node9 -->
<g id="edge34" class="edge"><title>Node18&#45;&gt;Node9</title>
<path fill="none" stroke="midnightblue" d="M677.443,-168.484C732.937,-160.323 817.327,-147.048 890,-132 891.277,-131.735 892.578,-131.457 893.89,-131.167"/>
<polygon fill="midnightblue" stroke="midnightblue" points="895.04,-134.493 903.981,-128.807 893.446,-127.676 895.04,-134.493"/>
</g>
<!-- Node18&#45;&gt;Node12 -->
<g id="edge35" class="edge"><title>Node18&#45;&gt;Node12</title>
<path fill="none" stroke="midnightblue" d="M606.176,-168.343C590.196,-155.65 559.24,-131.394 532,-112 516.915,-101.259 499.491,-89.7455 486.057,-81.0532"/>
<polygon fill="midnightblue" stroke="midnightblue" points="487.776,-77.9972 477.472,-75.5303 483.989,-83.8842 487.776,-77.9972"/>
</g>
<!-- Node18&#45;&gt;Node14 -->
<g id="edge36" class="edge"><title>Node18&#45;&gt;Node14</title>
<path fill="none" stroke="midnightblue" d="M555.679,-168.444C483.056,-158.31 362.85,-141.537 290.561,-131.45"/>
<polygon fill="midnightblue" stroke="midnightblue" points="290.643,-127.928 280.255,-130.012 289.675,-134.861 290.643,-127.928"/>
</g>
<!-- Node19 -->
<g id="node19" class="node"><title>Node19</title>
<polygon fill="none" stroke="#bfbfbf" points="656.5,-112.5 656.5,-131.5 785.5,-131.5 785.5,-112.5 656.5,-112.5"/>
<text text-anchor="middle" x="721" y="-119.5" font-family="Helvetica,sans-Serif" font-size="10.00">boost/algorithm/string.hpp</text>
</g>
<!-- Node18&#45;&gt;Node19 -->
<g id="edge30" class="edge"><title>Node18&#45;&gt;Node19</title>
<path fill="none" stroke="midnightblue" d="M633.709,-168.324C650.312,-159.703 676.002,-146.364 695.22,-136.386"/>
<polygon fill="midnightblue" stroke="midnightblue" points="697.07,-139.369 704.332,-131.655 693.844,-133.156 697.07,-139.369"/>
</g>
<!-- Node20 -->
<g id="node20" class="node"><title>Node20</title>
<polygon fill="none" stroke="#bfbfbf" points="804,-112.5 804,-131.5 848,-131.5 848,-112.5 804,-112.5"/>
<text text-anchor="middle" x="826" y="-119.5" font-family="Helvetica,sans-Serif" font-size="10.00">mutex</text>
</g>
<!-- Node18&#45;&gt;Node20 -->
<g id="edge31" class="edge"><title>Node18&#45;&gt;Node20</title>
<path fill="none" stroke="midnightblue" d="M651.662,-168.462C687.394,-159.596 744.688,-145.201 794,-132 794.101,-131.973 794.202,-131.946 794.304,-131.919"/>
<polygon fill="midnightblue" stroke="midnightblue" points="795.264,-135.285 803.986,-129.27 793.417,-128.533 795.264,-135.285"/>
</g>
<!-- Node21 -->
<g id="node21" class="node"><title>Node21</title>
<polygon fill="none" stroke="#bfbfbf" points="584,-112.5 584,-131.5 638,-131.5 638,-112.5 584,-112.5"/>
<text text-anchor="middle" x="611" y="-119.5" font-family="Helvetica,sans-Serif" font-size="10.00">iostream</text>
</g>
<!-- Node18&#45;&gt;Node21 -->
<g id="edge32" class="edge"><title>Node18&#45;&gt;Node21</title>
<path fill="none" stroke="midnightblue" d="M616.009,-168.083C615.214,-160.927 614.071,-150.635 613.077,-141.691"/>
<polygon fill="midnightblue" stroke="midnightblue" points="616.555,-141.303 611.972,-131.751 609.598,-142.076 616.555,-141.303"/>
</g>
</g>
</svg>
