<?xml version="1.0" encoding="UTF-8" standalone="no"?>
<!DOCTYPE svg PUBLIC "-//W3C//DTD SVG 1.1//EN"
 "http://www.w3.org/Graphics/SVG/1.1/DTD/svg11.dtd">
<!-- Generated by graphviz version 2.36.0 (20140111.2315)
 -->
<!-- Title: /home/travis/build/AliceO2Group/Monitoring/src/Monitoring.cxx Pages: 1 -->
<svg width="1699pt" height="354pt"
 viewBox="0.00 0.00 1699.00 354.00" xmlns="http://www.w3.org/2000/svg" xmlns:xlink="http://www.w3.org/1999/xlink">
<g id="graph0" class="graph" transform="scale(1 1) rotate(0) translate(4 350)">
<title>/home/travis/build/AliceO2Group/Monitoring/src/Monitoring.cxx</title>
<!-- Node1 -->
<g id="node1" class="node"><title>Node1</title>
<polygon fill="#bfbfbf" stroke="black" points="899,-304.5 899,-345.5 1027,-345.5 1027,-304.5 899,-304.5"/>
<text text-anchor="start" x="907" y="-333.5" font-family="Helvetica,sans-Serif" font-size="10.00">/home/travis/build</text>
<text text-anchor="start" x="907" y="-322.5" font-family="Helvetica,sans-Serif" font-size="10.00">/AliceO2Group/Monitoring</text>
<text text-anchor="middle" x="963" y="-311.5" font-family="Helvetica,sans-Serif" font-size="10.00">/src/Monitoring.cxx</text>
</g>
<!-- Node2 -->
<g id="node2" class="node"><title>Node2</title>
<g id="a_node2"><a xlink:href="../../d0/d98/Monitoring_8h.html" target="_top" xlink:title="Monitoring/Monitoring.h">
<polygon fill="none" stroke="black" points="558,-242.5 558,-261.5 676,-261.5 676,-242.5 558,-242.5"/>
<text text-anchor="middle" x="617" y="-249.5" font-family="Helvetica,sans-Serif" font-size="10.00">Monitoring/Monitoring.h</text>
</a>
</g>
</g>
<!-- Node1&#45;&gt;Node2 -->
<g id="edge1" class="edge"><title>Node1&#45;&gt;Node2</title>
<path fill="none" stroke="midnightblue" d="M898.738,-310.824C843.415,-299.48 761.447,-282.668 690,-268 683.188,-266.601 676.018,-265.129 668.941,-263.675"/>
<polygon fill="midnightblue" stroke="midnightblue" points="669.192,-260.153 658.692,-261.569 667.783,-267.01 669.192,-260.153"/>
</g>
<!-- Node4 -->
<g id="node4" class="node"><title>Node4</title>
<polygon fill="none" stroke="#bfbfbf" points="1191,-56.5 1191,-75.5 1237,-75.5 1237,-56.5 1191,-56.5"/>
<text text-anchor="middle" x="1214" y="-63.5" font-family="Helvetica,sans-Serif" font-size="10.00">chrono</text>
</g>
<!-- Node1&#45;&gt;Node4 -->
<g id="edge37" class="edge"><title>Node1&#45;&gt;Node4</title>
<path fill="none" stroke="midnightblue" d="M1027.01,-320.764C1103.06,-315.422 1223.18,-301.753 1251,-268 1260.05,-257.026 1251.1,-250.222 1251,-236 1250.78,-205.775 1255.37,-197.745 1250,-168 1244.56,-137.875 1231.26,-104.776 1222.43,-84.9553"/>
<polygon fill="midnightblue" stroke="midnightblue" points="1225.52,-83.2911 1218.18,-75.6492 1219.15,-86.1995 1225.52,-83.2911"/>
</g>
<!-- Node6 -->
<g id="node6" class="node"><title>Node6</title>
<polygon fill="none" stroke="#bfbfbf" points="66,-112.5 66,-131.5 118,-131.5 118,-112.5 66,-112.5"/>
<text text-anchor="middle" x="92" y="-119.5" font-family="Helvetica,sans-Serif" font-size="10.00">memory</text>
</g>
<!-- Node1&#45;&gt;Node6 -->
<g id="edge39" class="edge"><title>Node1&#45;&gt;Node6</title>
<path fill="none" stroke="midnightblue" d="M898.829,-322.41C724.482,-316.886 247.026,-293.385 126,-200 107.604,-185.806 98.9439,-159.54 95.0218,-141.674"/>
<polygon fill="midnightblue" stroke="midnightblue" points="98.4542,-140.987 93.1475,-131.817 91.5774,-142.295 98.4542,-140.987"/>
</g>
<!-- Node7 -->
<g id="node7" class="node"><title>Node7</title>
<polygon fill="none" stroke="#bfbfbf" points="908.5,-0.5 908.5,-19.5 949.5,-19.5 949.5,-0.5 908.5,-0.5"/>
<text text-anchor="middle" x="929" y="-7.5" font-family="Helvetica,sans-Serif" font-size="10.00">string</text>
</g>
<!-- Node1&#45;&gt;Node7 -->
<g id="edge40" class="edge"><title>Node1&#45;&gt;Node7</title>
<path fill="none" stroke="midnightblue" d="M898.941,-324.094C728.037,-323.655 264.52,-317.773 121,-268 59.3862,-246.632 0,-250.214 0,-185 0,-185 0,-185 0,-121 0,-28.421 736.966,-13.4945 898.114,-11.3372"/>
<polygon fill="midnightblue" stroke="midnightblue" points="898.339,-14.8347 908.294,-11.2079 898.25,-7.83529 898.339,-14.8347"/>
</g>
<!-- Node11 -->
<g id="node11" class="node"><title>Node11</title>
<polygon fill="none" stroke="#bfbfbf" points="200,-56.5 200,-75.5 244,-75.5 244,-56.5 200,-56.5"/>
<text text-anchor="middle" x="222" y="-63.5" font-family="Helvetica,sans-Serif" font-size="10.00">vector</text>
</g>
<!-- Node1&#45;&gt;Node11 -->
<g id="edge42" class="edge"><title>Node1&#45;&gt;Node11</title>
<path fill="none" stroke="midnightblue" d="M898.745,-323.372C739.826,-321.162 331.971,-311.313 204,-268 113.763,-237.458 -0.825682,-187.708 57,-112 73.0257,-91.0184 146.411,-77.4718 189.729,-71.1555"/>
<polygon fill="midnightblue" stroke="midnightblue" points="190.368,-74.6002 199.782,-69.7405 189.392,-67.6686 190.368,-74.6002"/>
</g>
<!-- Node20 -->
<g id="node20" class="node"><title>Node20</title>
<polygon fill="none" stroke="#bfbfbf" points="1250,-112.5 1250,-131.5 1304,-131.5 1304,-112.5 1250,-112.5"/>
<text text-anchor="middle" x="1277" y="-119.5" font-family="Helvetica,sans-Serif" font-size="10.00">iostream</text>
</g>
<!-- Node1&#45;&gt;Node20 -->
<g id="edge38" class="edge"><title>Node1&#45;&gt;Node20</title>
<path fill="none" stroke="midnightblue" d="M1027.35,-322.209C1111.46,-318.354 1251.87,-306.215 1284,-268 1314.32,-231.933 1296.62,-171.211 1284.87,-141.081"/>
<polygon fill="midnightblue" stroke="midnightblue" points="1288.09,-139.708 1281.05,-131.791 1281.61,-142.37 1288.09,-139.708"/>
</g>
<!-- Node21 -->
<g id="node21" class="node"><title>Node21</title>
<polygon fill="none" stroke="#bfbfbf" points="906,-242.5 906,-261.5 1020,-261.5 1020,-242.5 906,-242.5"/>
<text text-anchor="middle" x="963" y="-249.5" font-family="Helvetica,sans-Serif" font-size="10.00">boost/lexical_cast.hpp</text>
</g>
<!-- Node1&#45;&gt;Node21 -->
<g id="edge36" class="edge"><title>Node1&#45;&gt;Node21</title>
<path fill="none" stroke="midnightblue" d="M963,-304.223C963,-294.086 963,-281.807 963,-271.813"/>
<polygon fill="midnightblue" stroke="midnightblue" points="966.5,-271.735 963,-261.735 959.5,-271.735 966.5,-271.735"/>
</g>
<!-- Node22 -->
<g id="node22" class="node"><title>Node22</title>
<polygon fill="none" stroke="#bfbfbf" points="1038,-242.5 1038,-261.5 1078,-261.5 1078,-242.5 1038,-242.5"/>
<text text-anchor="middle" x="1058" y="-249.5" font-family="Helvetica,sans-Serif" font-size="10.00">utility</text>
</g>
<!-- Node1&#45;&gt;Node22 -->
<g id="edge41" class="edge"><title>Node1&#45;&gt;Node22</title>
<path fill="none" stroke="midnightblue" d="M989.211,-304.411C1004.67,-292.854 1023.93,-278.46 1038.14,-267.845"/>
<polygon fill="midnightblue" stroke="midnightblue" points="1040.33,-270.573 1046.25,-261.783 1036.14,-264.966 1040.33,-270.573"/>
</g>
<!-- Node23 -->
<g id="node23" class="node"><title>Node23</title>
<g id="a_node23"><a xlink:href="../../df/de7/MonLogger_8h.html" target="_top" xlink:title="MonLogger.h">
<polygon fill="none" stroke="black" points="1336.5,-174.5 1336.5,-193.5 1409.5,-193.5 1409.5,-174.5 1336.5,-174.5"/>
<text text-anchor="middle" x="1373" y="-181.5" font-family="Helvetica,sans-Serif" font-size="10.00">MonLogger.h</text>
</a>
</g>
</g>
<!-- Node1&#45;&gt;Node23 -->
<g id="edge43" class="edge"><title>Node1&#45;&gt;Node23</title>
<path fill="none" stroke="midnightblue" d="M1027.01,-320.416C1116.89,-314.322 1274.81,-299.414 1322,-268 1345.28,-252.502 1359.77,-222.391 1367.1,-203.014"/>
<polygon fill="midnightblue" stroke="midnightblue" points="1370.43,-204.109 1370.46,-193.514 1363.83,-201.78 1370.43,-204.109"/>
</g>
<!-- Node25 -->
<g id="node25" class="node"><title>Node25</title>
<g id="a_node25"><a xlink:href="../../dc/d0c/ProcessDetails_8h.html" target="_top" xlink:title="ProcessDetails.h">
<polygon fill="none" stroke="black" points="920,-56.5 920,-75.5 1012,-75.5 1012,-56.5 920,-56.5"/>
<text text-anchor="middle" x="966" y="-63.5" font-family="Helvetica,sans-Serif" font-size="10.00">ProcessDetails.h</text>
</a>
</g>
</g>
<!-- Node1&#45;&gt;Node25 -->
<g id="edge47" class="edge"><title>Node1&#45;&gt;Node25</title>
<path fill="none" stroke="midnightblue" d="M898.988,-317.944C835.487,-310.456 744.609,-295.232 723,-268 714.159,-256.859 714.094,-247.088 723,-236 769.46,-178.159 825.762,-243.307 886,-200 926.352,-170.99 950.085,-114.746 960.2,-85.5677"/>
<polygon fill="midnightblue" stroke="midnightblue" points="963.606,-86.4165 963.417,-75.8234 956.959,-84.2224 963.606,-86.4165"/>
</g>
<!-- Node26 -->
<g id="node26" class="node"><title>Node26</title>
<g id="a_node26"><a xlink:href="../../dc/d75/MonitoringInternalException_8h.html" target="_top" xlink:title="Exceptions/MonitoringInternal\lException.h">
<polygon fill="none" stroke="black" points="1096,-237 1096,-267 1242,-267 1242,-237 1096,-237"/>
<text text-anchor="start" x="1104" y="-255" font-family="Helvetica,sans-Serif" font-size="10.00">Exceptions/MonitoringInternal</text>
<text text-anchor="middle" x="1169" y="-244" font-family="Helvetica,sans-Serif" font-size="10.00">Exception.h</text>
</a>
</g>
</g>
<!-- Node1&#45;&gt;Node26 -->
<g id="edge49" class="edge"><title>Node1&#45;&gt;Node26</title>
<path fill="none" stroke="midnightblue" d="M1019.84,-304.411C1050.76,-293.753 1088.68,-280.684 1118.55,-270.389"/>
<polygon fill="midnightblue" stroke="midnightblue" points="1120.03,-273.579 1128.35,-267.012 1117.75,-266.961 1120.03,-273.579"/>
</g>
<!-- Node28 -->
<g id="node28" class="node"><title>Node28</title>
<g id="a_node28"><a xlink:href="../../d9/de4/InfoLoggerBackend_8h.html" target="_top" xlink:title="Backends/InfoLoggerBackend.h">
<polygon fill="none" stroke="black" points="732.5,-242.5 732.5,-261.5 887.5,-261.5 887.5,-242.5 732.5,-242.5"/>
<text text-anchor="middle" x="810" y="-249.5" font-family="Helvetica,sans-Serif" font-size="10.00">Backends/InfoLoggerBackend.h</text>
</a>
</g>
</g>
<!-- Node1&#45;&gt;Node28 -->
<g id="edge52" class="edge"><title>Node1&#45;&gt;Node28</title>
<path fill="none" stroke="midnightblue" d="M920.787,-304.411C894.318,-292.128 860.944,-276.641 837.779,-265.891"/>
<polygon fill="midnightblue" stroke="midnightblue" points="839.07,-262.631 828.526,-261.597 836.123,-268.981 839.07,-262.631"/>
</g>
<!-- Node29 -->
<g id="node29" class="node"><title>Node29</title>
<g id="a_node29"><a xlink:href="../../d4/d57/Flume_8h.html" target="_top" xlink:title="Backends/Flume.h">
<polygon fill="none" stroke="black" points="1389,-242.5 1389,-261.5 1487,-261.5 1487,-242.5 1389,-242.5"/>
<text text-anchor="middle" x="1438" y="-249.5" font-family="Helvetica,sans-Serif" font-size="10.00">Backends/Flume.h</text>
</a>
</g>
</g>
<!-- Node1&#45;&gt;Node29 -->
<g id="edge55" class="edge"><title>Node1&#45;&gt;Node29</title>
<path fill="none" stroke="midnightblue" d="M1027.06,-316.622C1107.09,-307.065 1248.11,-289.104 1368,-268 1375.4,-266.697 1383.22,-265.172 1390.83,-263.603"/>
<polygon fill="midnightblue" stroke="midnightblue" points="1391.62,-267.015 1400.68,-261.529 1390.18,-260.165 1391.62,-267.015"/>
</g>
<!-- Node3 -->
<g id="node3" class="node"><title>Node3</title>
<polygon fill="none" stroke="#bfbfbf" points="352,-112.5 352,-131.5 398,-131.5 398,-112.5 352,-112.5"/>
<text text-anchor="middle" x="375" y="-119.5" font-family="Helvetica,sans-Serif" font-size="10.00">atomic</text>
</g>
<!-- Node2&#45;&gt;Node3 -->
<g id="edge2" class="edge"><title>Node2&#45;&gt;Node3</title>
<path fill="none" stroke="midnightblue" d="M606.629,-242.348C594.484,-232.212 573.765,-214.907 556,-200 539.086,-185.808 537.351,-178.632 518,-168 508.19,-162.61 446.993,-144.144 407.899,-132.61"/>
<polygon fill="midnightblue" stroke="midnightblue" points="408.823,-129.233 398.241,-129.768 406.847,-135.948 408.823,-129.233"/>
</g>
<!-- Node2&#45;&gt;Node4 -->
<g id="edge3" class="edge"><title>Node2&#45;&gt;Node4</title>
<path fill="none" stroke="midnightblue" d="M657.895,-242.439C668.353,-240.293 679.586,-238.026 690,-236 776.938,-219.086 800.966,-224.769 886,-200 893.638,-197.775 1103.66,-112.074 1183.55,-79.4417"/>
<polygon fill="midnightblue" stroke="midnightblue" points="1185.13,-82.5784 1193.06,-75.5566 1182.48,-76.0983 1185.13,-82.5784"/>
</g>
<!-- Node5 -->
<g id="node5" class="node"><title>Node5</title>
<polygon fill="none" stroke="#bfbfbf" points="763.5,-174.5 763.5,-193.5 798.5,-193.5 798.5,-174.5 763.5,-174.5"/>
<text text-anchor="middle" x="781" y="-181.5" font-family="Helvetica,sans-Serif" font-size="10.00">map</text>
</g>
<!-- Node2&#45;&gt;Node5 -->
<g id="edge4" class="edge"><title>Node2&#45;&gt;Node5</title>
<path fill="none" stroke="midnightblue" d="M640.566,-242.459C667.126,-232.703 711.493,-216.013 749,-200 750.629,-199.304 752.298,-198.575 753.977,-197.828"/>
<polygon fill="midnightblue" stroke="midnightblue" points="755.856,-200.817 763.494,-193.474 752.944,-194.451 755.856,-200.817"/>
</g>
<!-- Node2&#45;&gt;Node6 -->
<g id="edge5" class="edge"><title>Node2&#45;&gt;Node6</title>
<path fill="none" stroke="midnightblue" d="M557.782,-249.016C452.43,-244.706 237.199,-232.153 170,-200 141.643,-186.432 117.402,-158.309 103.774,-140.067"/>
<polygon fill="midnightblue" stroke="midnightblue" points="106.332,-137.63 97.6496,-131.558 100.651,-141.719 106.332,-137.63"/>
</g>
<!-- Node2&#45;&gt;Node7 -->
<g id="edge6" class="edge"><title>Node2&#45;&gt;Node7</title>
<path fill="none" stroke="midnightblue" d="M676.336,-243.576C715.542,-236.693 766.897,-223.773 807,-200 842.965,-178.681 848.34,-166.47 872,-132 884.231,-114.182 908.811,-58.3035 921.315,-29.1334"/>
<polygon fill="midnightblue" stroke="midnightblue" points="924.628,-30.2864 925.33,-19.7149 918.189,-27.5412 924.628,-30.2864"/>
</g>
<!-- Node8 -->
<g id="node8" class="node"><title>Node8</title>
<polygon fill="none" stroke="#bfbfbf" points="820,-112.5 820,-131.5 864,-131.5 864,-112.5 820,-112.5"/>
<text text-anchor="middle" x="842" y="-119.5" font-family="Helvetica,sans-Serif" font-size="10.00">thread</text>
</g>
<!-- Node2&#45;&gt;Node8 -->
<g id="edge7" class="edge"><title>Node2&#45;&gt;Node8</title>
<path fill="none" stroke="midnightblue" d="M636.447,-242.345C656.713,-232.994 689.069,-217.118 715,-200 733.712,-187.647 735.244,-180.286 754,-168 772.894,-155.624 795.622,-144.078 813.248,-135.781"/>
<polygon fill="midnightblue" stroke="midnightblue" points="814.851,-138.895 822.458,-131.521 811.912,-132.542 814.851,-138.895"/>
</g>
<!-- Node9 -->
<g id="node9" class="node"><title>Node9</title>
<polygon fill="none" stroke="#bfbfbf" points="471,-174.5 471,-193.5 509,-193.5 509,-174.5 471,-174.5"/>
<text text-anchor="middle" x="490" y="-181.5" font-family="Helvetica,sans-Serif" font-size="10.00">tuple</text>
</g>
<!-- Node2&#45;&gt;Node9 -->
<g id="edge8" class="edge"><title>Node2&#45;&gt;Node9</title>
<path fill="none" stroke="midnightblue" d="M600.397,-242.372C578.815,-231.156 540.902,-211.453 515.619,-198.314"/>
<polygon fill="midnightblue" stroke="midnightblue" points="517.094,-195.136 506.607,-193.63 513.866,-201.348 517.094,-195.136"/>
</g>
<!-- Node10 -->
<g id="node10" class="node"><title>Node10</title>
<polygon fill="none" stroke="#bfbfbf" points="250.5,-112.5 250.5,-131.5 333.5,-131.5 333.5,-112.5 250.5,-112.5"/>
<text text-anchor="middle" x="292" y="-119.5" font-family="Helvetica,sans-Serif" font-size="10.00">unordered_map</text>
</g>
<!-- Node2&#45;&gt;Node10 -->
<g id="edge9" class="edge"><title>Node2&#45;&gt;Node10</title>
<path fill="none" stroke="midnightblue" d="M587.818,-242.423C556.412,-232.956 505.157,-216.818 462,-200 410.344,-179.87 351.793,-152.25 318.642,-136.145"/>
<polygon fill="midnightblue" stroke="midnightblue" points="320.12,-132.972 309.598,-131.731 317.05,-139.263 320.12,-132.972"/>
</g>
<!-- Node2&#45;&gt;Node11 -->
<g id="edge10" class="edge"><title>Node2&#45;&gt;Node11</title>
<path fill="none" stroke="midnightblue" d="M557.778,-247.883C450,-241.602 230.765,-225.78 208,-200 179.667,-167.915 199.403,-113.066 212.668,-84.8795"/>
<polygon fill="midnightblue" stroke="midnightblue" points="215.866,-86.3084 217.161,-75.7931 209.591,-83.2055 215.866,-86.3084"/>
</g>
<!-- Node12 -->
<g id="node12" class="node"><title>Node12</title>
<g id="a_node12"><a xlink:href="../../df/d83/Backend_8h.html" target="_top" xlink:title="Monitoring/Backend.h">
<polygon fill="none" stroke="black" points="976.5,-174.5 976.5,-193.5 1087.5,-193.5 1087.5,-174.5 976.5,-174.5"/>
<text text-anchor="middle" x="1032" y="-181.5" font-family="Helvetica,sans-Serif" font-size="10.00">Monitoring/Backend.h</text>
</a>
</g>
</g>
<!-- Node2&#45;&gt;Node12 -->
<g id="edge11" class="edge"><title>Node2&#45;&gt;Node12</title>
<path fill="none" stroke="midnightblue" d="M670.829,-242.439C747.174,-230.298 886.663,-208.114 968.14,-195.156"/>
<polygon fill="midnightblue" stroke="midnightblue" points="968.941,-198.573 978.267,-193.546 967.841,-191.66 968.941,-198.573"/>
</g>
<!-- Node16 -->
<g id="node16" class="node"><title>Node16</title>
<g id="a_node16"><a xlink:href="../../dc/de0/DerivedMetrics_8h.html" target="_top" xlink:title="Monitoring/DerivedMetrics.h">
<polygon fill="none" stroke="black" points="217.5,-174.5 217.5,-193.5 356.5,-193.5 356.5,-174.5 217.5,-174.5"/>
<text text-anchor="middle" x="287" y="-181.5" font-family="Helvetica,sans-Serif" font-size="10.00">Monitoring/DerivedMetrics.h</text>
</a>
</g>
</g>
<!-- Node2&#45;&gt;Node16 -->
<g id="edge21" class="edge"><title>Node2&#45;&gt;Node16</title>
<path fill="none" stroke="midnightblue" d="M574.197,-242.439C514.106,-230.421 404.823,-208.565 339.773,-195.555"/>
<polygon fill="midnightblue" stroke="midnightblue" points="340.22,-192.075 329.728,-193.546 338.847,-198.939 340.22,-192.075"/>
</g>
<!-- Node17 -->
<g id="node17" class="node"><title>Node17</title>
<g id="a_node17"><a xlink:href="../../df/d93/ProcessMonitor_8h.html" target="_top" xlink:title="Monitoring/ProcessMonitor.h">
<polygon fill="none" stroke="black" points="565.5,-174.5 565.5,-193.5 706.5,-193.5 706.5,-174.5 565.5,-174.5"/>
<text text-anchor="middle" x="636" y="-181.5" font-family="Helvetica,sans-Serif" font-size="10.00">Monitoring/ProcessMonitor.h</text>
</a>
</g>
</g>
<!-- Node2&#45;&gt;Node17 -->
<g id="edge27" class="edge"><title>Node2&#45;&gt;Node17</title>
<path fill="none" stroke="midnightblue" d="M619.484,-242.372C622.313,-232.544 627.018,-216.202 630.684,-203.467"/>
<polygon fill="midnightblue" stroke="midnightblue" points="634.052,-204.419 633.455,-193.841 627.325,-202.483 634.052,-204.419"/>
</g>
<!-- Node12&#45;&gt;Node4 -->
<g id="edge12" class="edge"><title>Node12&#45;&gt;Node4</title>
<path fill="none" stroke="midnightblue" d="M1045.38,-174.47C1076.41,-154.694 1153.52,-105.548 1191.76,-81.1728"/>
<polygon fill="midnightblue" stroke="midnightblue" points="1194.05,-83.8685 1200.6,-75.5423 1190.28,-77.9656 1194.05,-83.8685"/>
</g>
<!-- Node12&#45;&gt;Node7 -->
<g id="edge13" class="edge"><title>Node12&#45;&gt;Node7</title>
<path fill="none" stroke="midnightblue" d="M1033.92,-174.342C1038.28,-152.346 1046.66,-93.4153 1021,-56 1006.83,-35.3337 980.375,-23.7834 959.46,-17.5755"/>
<polygon fill="midnightblue" stroke="midnightblue" points="960.282,-14.1723 949.715,-14.9407 958.455,-20.9296 960.282,-14.1723"/>
</g>
<!-- Node13 -->
<g id="node13" class="node"><title>Node13</title>
<g id="a_node13"><a xlink:href="../../d9/d92/Metric_8h.html" target="_top" xlink:title="Monitoring/Metric.h">
<polygon fill="none" stroke="black" points="664,-112.5 664,-131.5 764,-131.5 764,-112.5 664,-112.5"/>
<text text-anchor="middle" x="714" y="-119.5" font-family="Helvetica,sans-Serif" font-size="10.00">Monitoring/Metric.h</text>
</a>
</g>
</g>
<!-- Node12&#45;&gt;Node13 -->
<g id="edge14" class="edge"><title>Node12&#45;&gt;Node13</title>
<path fill="none" stroke="midnightblue" d="M986.776,-174.467C929.438,-163.649 830.646,-145.009 769.004,-133.378"/>
<polygon fill="midnightblue" stroke="midnightblue" points="769.544,-129.918 759.068,-131.503 768.246,-136.797 769.544,-129.918"/>
</g>
<!-- Node13&#45;&gt;Node4 -->
<g id="edge16" class="edge"><title>Node13&#45;&gt;Node4</title>
<path fill="none" stroke="midnightblue" d="M764.231,-115.575C866.216,-104.561 1095.12,-79.8385 1180.8,-70.586"/>
<polygon fill="midnightblue" stroke="midnightblue" points="1181.18,-74.0647 1190.75,-69.5111 1180.43,-67.1052 1181.18,-74.0647"/>
</g>
<!-- Node13&#45;&gt;Node7 -->
<g id="edge15" class="edge"><title>Node13&#45;&gt;Node7</title>
<path fill="none" stroke="midnightblue" d="M722.709,-112.243C736.779,-98.5278 765.887,-71.9089 795,-56 828.226,-37.8434 870.076,-25.2268 898.085,-18.0675"/>
<polygon fill="midnightblue" stroke="midnightblue" points="899.229,-21.3901 908.096,-15.5907 897.548,-14.595 899.229,-21.3901"/>
</g>
<!-- Node13&#45;&gt;Node11 -->
<g id="edge17" class="edge"><title>Node13&#45;&gt;Node11</title>
<path fill="none" stroke="midnightblue" d="M663.713,-113.759C659.08,-113.143 654.455,-112.547 650,-112 502.578,-93.8901 326.023,-76.7706 254.479,-70.0239"/>
<polygon fill="midnightblue" stroke="midnightblue" points="254.593,-66.5193 244.31,-69.0682 253.938,-73.4886 254.593,-66.5193"/>
</g>
<!-- Node14 -->
<g id="node14" class="node"><title>Node14</title>
<polygon fill="none" stroke="#bfbfbf" points="651,-56.5 651,-75.5 743,-75.5 743,-56.5 651,-56.5"/>
<text text-anchor="middle" x="697" y="-63.5" font-family="Helvetica,sans-Serif" font-size="10.00">boost/variant.hpp</text>
</g>
<!-- Node13&#45;&gt;Node14 -->
<g id="edge18" class="edge"><title>Node13&#45;&gt;Node14</title>
<path fill="none" stroke="midnightblue" d="M711.193,-112.083C708.915,-104.849 705.629,-94.4087 702.792,-85.3968"/>
<polygon fill="midnightblue" stroke="midnightblue" points="706.096,-84.2385 699.755,-75.7511 699.419,-86.3406 706.096,-84.2385"/>
</g>
<!-- Node15 -->
<g id="node15" class="node"><title>Node15</title>
<g id="a_node15"><a xlink:href="../../d9/d33/Tag_8h.html" target="_top" xlink:title="Tag.h">
<polygon fill="none" stroke="black" points="591.5,-56.5 591.5,-75.5 632.5,-75.5 632.5,-56.5 591.5,-56.5"/>
<text text-anchor="middle" x="612" y="-63.5" font-family="Helvetica,sans-Serif" font-size="10.00">Tag.h</text>
</a>
</g>
</g>
<!-- Node13&#45;&gt;Node15 -->
<g id="edge19" class="edge"><title>Node13&#45;&gt;Node15</title>
<path fill="none" stroke="midnightblue" d="M697.612,-112.324C681.329,-103.703 656.133,-90.3643 637.284,-80.3855"/>
<polygon fill="midnightblue" stroke="midnightblue" points="638.823,-77.2402 628.347,-75.6545 635.548,-83.4267 638.823,-77.2402"/>
</g>
<!-- Node15&#45;&gt;Node7 -->
<g id="edge20" class="edge"><title>Node15&#45;&gt;Node7</title>
<path fill="none" stroke="midnightblue" d="M632.559,-58.431C635.703,-57.5433 638.925,-56.699 642,-56 734.252,-35.0321 845.399,-20.6318 898.223,-14.4319"/>
<polygon fill="midnightblue" stroke="midnightblue" points="898.754,-17.894 908.285,-13.2678 897.949,-10.9404 898.754,-17.894"/>
</g>
<!-- Node16&#45;&gt;Node6 -->
<g id="edge23" class="edge"><title>Node16&#45;&gt;Node6</title>
<path fill="none" stroke="midnightblue" d="M259.061,-174.403C224.453,-163.755 165.445,-145.598 127.618,-133.959"/>
<polygon fill="midnightblue" stroke="midnightblue" points="128.604,-130.601 118.017,-131.005 126.546,-137.291 128.604,-130.601"/>
</g>
<!-- Node16&#45;&gt;Node7 -->
<g id="edge24" class="edge"><title>Node16&#45;&gt;Node7</title>
<path fill="none" stroke="midnightblue" d="M271.944,-174.492C236.265,-153.329 152.363,-97.0647 191,-56 215.622,-29.831 761.874,-15.0113 898.326,-11.7094"/>
<polygon fill="midnightblue" stroke="midnightblue" points="898.578,-15.2045 908.492,-11.4665 898.411,-8.20648 898.578,-15.2045"/>
</g>
<!-- Node16&#45;&gt;Node10 -->
<g id="edge22" class="edge"><title>Node16&#45;&gt;Node10</title>
<path fill="none" stroke="midnightblue" d="M287.716,-174.403C288.422,-165.938 289.523,-152.728 290.432,-141.82"/>
<polygon fill="midnightblue" stroke="midnightblue" points="293.942,-141.837 291.285,-131.581 286.966,-141.255 293.942,-141.837"/>
</g>
<!-- Node16&#45;&gt;Node11 -->
<g id="edge25" class="edge"><title>Node16&#45;&gt;Node11</title>
<path fill="none" stroke="midnightblue" d="M276.757,-174.243C266.335,-164.809 250.415,-148.866 241,-132 232.941,-117.564 228.003,-99.374 225.188,-85.9106"/>
<polygon fill="midnightblue" stroke="midnightblue" points="228.593,-85.078 223.302,-75.8991 221.714,-86.3743 228.593,-85.078"/>
</g>
<!-- Node16&#45;&gt;Node13 -->
<g id="edge26" class="edge"><title>Node16&#45;&gt;Node13</title>
<path fill="none" stroke="midnightblue" d="M347.725,-174.467C429.092,-163.034 572.627,-142.865 653.75,-131.466"/>
<polygon fill="midnightblue" stroke="midnightblue" points="654.391,-134.91 663.807,-130.053 653.417,-127.979 654.391,-134.91"/>
</g>
<!-- Node17&#45;&gt;Node3 -->
<g id="edge28" class="edge"><title>Node17&#45;&gt;Node3</title>
<path fill="none" stroke="midnightblue" d="M594.469,-174.469C550.531,-165.284 478.965,-149.872 408.033,-132.156"/>
<polygon fill="midnightblue" stroke="midnightblue" points="408.583,-128.685 398.032,-129.641 406.876,-135.474 408.583,-128.685"/>
</g>
<!-- Node17&#45;&gt;Node7 -->
<g id="edge32" class="edge"><title>Node17&#45;&gt;Node7</title>
<path fill="none" stroke="midnightblue" d="M666.822,-174.468C695.38,-165.891 738.52,-151.198 773,-132 801.987,-115.86 876.345,-54.934 910.876,-26.1885"/>
<polygon fill="midnightblue" stroke="midnightblue" points="913.311,-28.7155 918.745,-19.6206 908.825,-23.3414 913.311,-28.7155"/>
</g>
<!-- Node17&#45;&gt;Node8 -->
<g id="edge33" class="edge"><title>Node17&#45;&gt;Node8</title>
<path fill="none" stroke="midnightblue" d="M665.515,-174.403C703.893,-163.225 770.674,-143.775 810.161,-132.274"/>
<polygon fill="midnightblue" stroke="midnightblue" points="811.193,-135.618 819.815,-129.462 809.235,-128.898 811.193,-135.618"/>
</g>
<!-- Node17&#45;&gt;Node11 -->
<g id="edge34" class="edge"><title>Node17&#45;&gt;Node11</title>
<path fill="none" stroke="midnightblue" d="M636.393,-174.42C636.572,-159.24 634.532,-127.767 616,-112 588.602,-88.6888 343.322,-73.4466 254.189,-68.636"/>
<polygon fill="midnightblue" stroke="midnightblue" points="254.29,-65.1365 244.119,-68.1012 253.919,-72.1267 254.29,-65.1365"/>
</g>
<!-- Node17&#45;&gt;Node13 -->
<g id="edge35" class="edge"><title>Node17&#45;&gt;Node13</title>
<path fill="none" stroke="midnightblue" d="M647.175,-174.403C659.571,-164.869 679.79,-149.315 694.746,-137.811"/>
<polygon fill="midnightblue" stroke="midnightblue" points="697.053,-140.452 702.845,-131.581 692.785,-134.904 697.053,-140.452"/>
</g>
<!-- Node18 -->
<g id="node18" class="node"><title>Node18</title>
<polygon fill="none" stroke="#bfbfbf" points="416.5,-112.5 416.5,-131.5 545.5,-131.5 545.5,-112.5 416.5,-112.5"/>
<text text-anchor="middle" x="481" y="-119.5" font-family="Helvetica,sans-Serif" font-size="10.00">boost/algorithm/string.hpp</text>
</g>
<!-- Node17&#45;&gt;Node18 -->
<g id="edge29" class="edge"><title>Node17&#45;&gt;Node18</title>
<path fill="none" stroke="midnightblue" d="M613.792,-174.403C587.319,-164.156 542.886,-146.956 512.78,-135.302"/>
<polygon fill="midnightblue" stroke="midnightblue" points="513.756,-131.927 503.167,-131.581 511.229,-138.455 513.756,-131.927"/>
</g>
<!-- Node19 -->
<g id="node19" class="node"><title>Node19</title>
<polygon fill="none" stroke="#bfbfbf" points="564,-112.5 564,-131.5 608,-131.5 608,-112.5 564,-112.5"/>
<text text-anchor="middle" x="586" y="-119.5" font-family="Helvetica,sans-Serif" font-size="10.00">mutex</text>
</g>
<!-- Node17&#45;&gt;Node19 -->
<g id="edge30" class="edge"><title>Node17&#45;&gt;Node19</title>
<path fill="none" stroke="midnightblue" d="M628.836,-174.403C621.262,-165.314 609.13,-150.756 599.707,-139.449"/>
<polygon fill="midnightblue" stroke="midnightblue" points="602.241,-137.022 593.15,-131.581 596.864,-141.503 602.241,-137.022"/>
</g>
<!-- Node17&#45;&gt;Node20 -->
<g id="edge31" class="edge"><title>Node17&#45;&gt;Node20</title>
<path fill="none" stroke="midnightblue" d="M699.327,-174.469C717.006,-172.218 736.237,-169.892 754,-168 935.815,-148.63 1153.88,-131.982 1239.7,-125.686"/>
<polygon fill="midnightblue" stroke="midnightblue" points="1240.02,-129.172 1249.74,-124.953 1239.51,-122.191 1240.02,-129.172"/>
</g>
<!-- Node23&#45;&gt;Node4 -->
<g id="edge44" class="edge"><title>Node23&#45;&gt;Node4</title>
<path fill="none" stroke="midnightblue" d="M1367.36,-174.041C1357.76,-159.388 1336.93,-130.116 1313,-112 1292.95,-96.8226 1266.96,-85.2564 1246.64,-77.6524"/>
<polygon fill="midnightblue" stroke="midnightblue" points="1247.77,-74.3381 1237.17,-74.2394 1245.39,-80.9233 1247.77,-74.3381"/>
</g>
<!-- Node23&#45;&gt;Node20 -->
<g id="edge46" class="edge"><title>Node23&#45;&gt;Node20</title>
<path fill="none" stroke="midnightblue" d="M1359.25,-174.403C1343.63,-164.646 1317.94,-148.585 1299.42,-137.011"/>
<polygon fill="midnightblue" stroke="midnightblue" points="1301.06,-133.913 1290.73,-131.581 1297.35,-139.849 1301.06,-133.913"/>
</g>
<!-- Node24 -->
<g id="node24" class="node"><title>Node24</title>
<polygon fill="none" stroke="#bfbfbf" points="1360,-112.5 1360,-131.5 1410,-131.5 1410,-112.5 1360,-112.5"/>
<text text-anchor="middle" x="1385" y="-119.5" font-family="Helvetica,sans-Serif" font-size="10.00">iomanip</text>
</g>
<!-- Node23&#45;&gt;Node24 -->
<g id="edge45" class="edge"><title>Node23&#45;&gt;Node24</title>
<path fill="none" stroke="midnightblue" d="M1374.72,-174.403C1376.43,-165.849 1379.11,-152.45 1381.3,-141.476"/>
<polygon fill="midnightblue" stroke="midnightblue" points="1384.75,-142.073 1383.28,-131.581 1377.89,-140.7 1384.75,-142.073"/>
</g>
<!-- Node25&#45;&gt;Node7 -->
<g id="edge48" class="edge"><title>Node25&#45;&gt;Node7</title>
<path fill="none" stroke="midnightblue" d="M959.89,-56.083C954.718,-48.5341 947.154,-37.4948 940.806,-28.2298"/>
<polygon fill="midnightblue" stroke="midnightblue" points="943.536,-26.0221 934.996,-19.7511 937.761,-29.9787 943.536,-26.0221"/>
</g>
<!-- Node26&#45;&gt;Node7 -->
<g id="edge51" class="edge"><title>Node26&#45;&gt;Node7</title>
<path fill="none" stroke="midnightblue" d="M1166.19,-236.936C1158.03,-200.081 1130.57,-100.478 1065,-56 1032.74,-34.1154 988.996,-22.1596 959.928,-16.1786"/>
<polygon fill="midnightblue" stroke="midnightblue" points="960.414,-12.7078 949.931,-14.2381 959.08,-19.5796 960.414,-12.7078"/>
</g>
<!-- Node27 -->
<g id="node27" class="node"><title>Node27</title>
<polygon fill="none" stroke="#bfbfbf" points="1182.5,-174.5 1182.5,-193.5 1241.5,-193.5 1241.5,-174.5 1182.5,-174.5"/>
<text text-anchor="middle" x="1212" y="-181.5" font-family="Helvetica,sans-Serif" font-size="10.00">exception</text>
</g>
<!-- Node26&#45;&gt;Node27 -->
<g id="edge50" class="edge"><title>Node26&#45;&gt;Node27</title>
<path fill="none" stroke="midnightblue" d="M1178.33,-236.679C1184.9,-226.592 1193.74,-213.033 1200.71,-202.335"/>
<polygon fill="midnightblue" stroke="midnightblue" points="1203.72,-204.118 1206.25,-193.828 1197.86,-200.296 1203.72,-204.118"/>
</g>
<!-- Node28&#45;&gt;Node7 -->
<g id="edge54" class="edge"><title>Node28&#45;&gt;Node7</title>
<path fill="none" stroke="midnightblue" d="M858.966,-242.47C940.434,-228.252 1095.05,-201.139 1096,-200 1131.9,-157.136 1099.44,-110.95 1040,-56 1017.42,-35.1267 983.89,-23.3529 959.593,-17.1308"/>
<polygon fill="midnightblue" stroke="midnightblue" points="960.344,-13.7118 949.805,-14.7938 958.719,-20.5204 960.344,-13.7118"/>
</g>
<!-- Node28&#45;&gt;Node12 -->
<g id="edge53" class="edge"><title>Node28&#45;&gt;Node12</title>
<path fill="none" stroke="midnightblue" d="M839.023,-242.372C878.603,-230.604 949.604,-209.496 993.568,-196.426"/>
<polygon fill="midnightblue" stroke="midnightblue" points="994.734,-199.731 1003.32,-193.526 992.739,-193.021 994.734,-199.731"/>
</g>
<!-- Node29&#45;&gt;Node4 -->
<g id="edge61" class="edge"><title>Node29&#45;&gt;Node4</title>
<path fill="none" stroke="midnightblue" d="M1439.8,-242.448C1444.34,-218.383 1453.52,-149.41 1419,-112 1396.11,-87.1985 1299.01,-74.7281 1247.08,-69.729"/>
<polygon fill="midnightblue" stroke="midnightblue" points="1247.31,-66.2353 1237.03,-68.8006 1246.67,-73.2057 1247.31,-66.2353"/>
</g>
<!-- Node29&#45;&gt;Node7 -->
<g id="edge62" class="edge"><title>Node29&#45;&gt;Node7</title>
<path fill="none" stroke="midnightblue" d="M1442.59,-242.274C1447.53,-232.352 1455.07,-215.513 1458,-200 1465.42,-160.774 1468.65,-139.802 1440,-112 1370.42,-44.4748 1058.87,-19.2074 959.533,-12.7827"/>
<polygon fill="midnightblue" stroke="midnightblue" points="959.743,-9.289 949.543,-12.1543 959.303,-16.2752 959.743,-9.289"/>
</g>
<!-- Node29&#45;&gt;Node12 -->
<g id="edge56" class="edge"><title>Node29&#45;&gt;Node12</title>
<path fill="none" stroke="midnightblue" d="M1388.62,-242.973C1314.75,-230.965 1175.53,-208.332 1094.61,-195.178"/>
<polygon fill="midnightblue" stroke="midnightblue" points="1094.99,-191.694 1084.56,-193.544 1093.87,-198.604 1094.99,-191.694"/>
</g>
<!-- Node29&#45;&gt;Node23 -->
<g id="edge59" class="edge"><title>Node29&#45;&gt;Node23</title>
<path fill="none" stroke="midnightblue" d="M1429.5,-242.372C1419.24,-231.955 1401.77,-214.217 1388.97,-201.216"/>
<polygon fill="midnightblue" stroke="midnightblue" points="1391.22,-198.51 1381.71,-193.841 1386.23,-203.422 1391.22,-198.51"/>
</g>
<!-- Node30 -->
<g id="node30" class="node"><title>Node30</title>
<g id="a_node30"><a xlink:href="../../de/dac/TransportInterface_8h.html" target="_top" xlink:title="../Transports/TransportInterface.h">
<polygon fill="none" stroke="black" points="1528.5,-56.5 1528.5,-75.5 1691.5,-75.5 1691.5,-56.5 1528.5,-56.5"/>
<text text-anchor="middle" x="1610" y="-63.5" font-family="Helvetica,sans-Serif" font-size="10.00">../Transports/TransportInterface.h</text>
</a>
</g>
</g>
<!-- Node29&#45;&gt;Node30 -->
<g id="edge57" class="edge"><title>Node29&#45;&gt;Node30</title>
<path fill="none" stroke="midnightblue" d="M1487.24,-243.447C1533.78,-235.182 1598.71,-220.347 1614,-200 1639.36,-166.25 1626.47,-112.912 1617.02,-85.1493"/>
<polygon fill="midnightblue" stroke="midnightblue" points="1620.24,-83.7563 1613.54,-75.5508 1613.66,-86.1449 1620.24,-83.7563"/>
</g>
<!-- Node31 -->
<g id="node31" class="node"><title>Node31</title>
<polygon fill="none" stroke="#bfbfbf" points="1504.5,-169 1504.5,-199 1605.5,-199 1605.5,-169 1504.5,-169"/>
<text text-anchor="start" x="1512.5" y="-187" font-family="Helvetica,sans-Serif" font-size="10.00">boost/property_tree</text>
<text text-anchor="middle" x="1555" y="-176" font-family="Helvetica,sans-Serif" font-size="10.00">/ptree.hpp</text>
</g>
<!-- Node29&#45;&gt;Node31 -->
<g id="edge60" class="edge"><title>Node29&#45;&gt;Node31</title>
<path fill="none" stroke="midnightblue" d="M1453.3,-242.372C1470.39,-232.729 1498.61,-216.812 1520.99,-204.187"/>
<polygon fill="midnightblue" stroke="midnightblue" points="1522.87,-207.143 1529.86,-199.181 1519.43,-201.046 1522.87,-207.143"/>
</g>
<!-- Node30&#45;&gt;Node7 -->
<g id="edge58" class="edge"><title>Node30&#45;&gt;Node7</title>
<path fill="none" stroke="midnightblue" d="M1528.19,-58.5132C1376.8,-46.5083 1059.27,-21.33 959.605,-13.4269"/>
<polygon fill="midnightblue" stroke="midnightblue" points="959.842,-9.93476 949.597,-12.6332 959.289,-16.9129 959.842,-9.93476"/>
</g>
</g>
</svg>
