<?xml version="1.0" encoding="UTF-8" standalone="no"?>
<!DOCTYPE svg PUBLIC "-//W3C//DTD SVG 1.1//EN"
 "http://www.w3.org/Graphics/SVG/1.1/DTD/svg11.dtd">
<!-- Generated by graphviz version 2.36.0 (20140111.2315)
 -->
<!-- Title: /home/travis/build/AliceO2Group/Monitoring/include/Monitoring/Monitoring.h Pages: 1 -->
<svg width="1007pt" height="274pt"
 viewBox="0.00 0.00 1007.19 274.00" xmlns="http://www.w3.org/2000/svg" xmlns:xlink="http://www.w3.org/1999/xlink">
<g id="graph0" class="graph" transform="scale(1 1) rotate(0) translate(4 270)">
<title>/home/travis/build/AliceO2Group/Monitoring/include/Monitoring/Monitoring.h</title>
<!-- Node1 -->
<g id="node1" class="node"><title>Node1</title>
<polygon fill="#bfbfbf" stroke="black" points="408.688,-224.5 408.688,-265.5 563.688,-265.5 563.688,-224.5 408.688,-224.5"/>
<text text-anchor="start" x="416.688" y="-253.5" font-family="Helvetica,sans-Serif" font-size="10.00">/home/travis/build</text>
<text text-anchor="start" x="416.688" y="-242.5" font-family="Helvetica,sans-Serif" font-size="10.00">/AliceO2Group/Monitoring</text>
<text text-anchor="middle" x="486.188" y="-231.5" font-family="Helvetica,sans-Serif" font-size="10.00">/include/Monitoring/Monitoring.h</text>
</g>
<!-- Node2 -->
<g id="node2" class="node"><title>Node2</title>
<polygon fill="none" stroke="#bfbfbf" points="533.188,-112.5 533.188,-131.5 579.188,-131.5 579.188,-112.5 533.188,-112.5"/>
<text text-anchor="middle" x="556.188" y="-119.5" font-family="Helvetica,sans-Serif" font-size="10.00">atomic</text>
</g>
<!-- Node1&#45;&gt;Node2 -->
<g id="edge1" class="edge"><title>Node1&#45;&gt;Node2</title>
<path fill="none" stroke="midnightblue" d="M497.867,-224.346C504.213,-213.626 512.175,-200.109 519.188,-188 528.419,-172.062 538.78,-153.831 546.185,-140.74"/>
<polygon fill="midnightblue" stroke="midnightblue" points="549.333,-142.284 551.203,-131.855 543.237,-138.841 549.333,-142.284"/>
</g>
<!-- Node3 -->
<g id="node3" class="node"><title>Node3</title>
<polygon fill="none" stroke="#bfbfbf" points="27.1881,-56.5 27.1881,-75.5 73.1881,-75.5 73.1881,-56.5 27.1881,-56.5"/>
<text text-anchor="middle" x="50.1881" y="-63.5" font-family="Helvetica,sans-Serif" font-size="10.00">chrono</text>
</g>
<!-- Node1&#45;&gt;Node3 -->
<g id="edge2" class="edge"><title>Node1&#45;&gt;Node3</title>
<path fill="none" stroke="midnightblue" d="M408.413,-244.092C301.765,-242.504 117.992,-233.071 71.1881,-188 43.5057,-161.342 44.3948,-112.237 47.3447,-85.511"/>
<polygon fill="midnightblue" stroke="midnightblue" points="50.8197,-85.9297 48.6578,-75.5578 43.8799,-85.014 50.8197,-85.9297"/>
</g>
<!-- Node4 -->
<g id="node4" class="node"><title>Node4</title>
<polygon fill="none" stroke="#bfbfbf" points="769.688,-168.5 769.688,-187.5 804.688,-187.5 804.688,-168.5 769.688,-168.5"/>
<text text-anchor="middle" x="787.188" y="-175.5" font-family="Helvetica,sans-Serif" font-size="10.00">map</text>
</g>
<!-- Node1&#45;&gt;Node4 -->
<g id="edge3" class="edge"><title>Node1&#45;&gt;Node4</title>
<path fill="none" stroke="midnightblue" d="M563.906,-229.294C617.803,-218.736 691.125,-203.657 755.188,-188 756.66,-187.64 758.166,-187.26 759.684,-186.866"/>
<polygon fill="midnightblue" stroke="midnightblue" points="760.903,-190.163 769.64,-184.17 759.073,-183.406 760.903,-190.163"/>
</g>
<!-- Node5 -->
<g id="node5" class="node"><title>Node5</title>
<polygon fill="none" stroke="#bfbfbf" points="129.188,-112.5 129.188,-131.5 181.188,-131.5 181.188,-112.5 129.188,-112.5"/>
<text text-anchor="middle" x="155.188" y="-119.5" font-family="Helvetica,sans-Serif" font-size="10.00">memory</text>
</g>
<!-- Node1&#45;&gt;Node5 -->
<g id="edge4" class="edge"><title>Node1&#45;&gt;Node5</title>
<path fill="none" stroke="midnightblue" d="M408.517,-229.21C366.416,-219.897 313.985,-206.173 269.188,-188 235.013,-174.137 198.477,-151.816 176.229,-137.277"/>
<polygon fill="midnightblue" stroke="midnightblue" points="177.887,-134.177 167.618,-131.57 174.02,-140.012 177.887,-134.177"/>
</g>
<!-- Node6 -->
<g id="node6" class="node"><title>Node6</title>
<polygon fill="none" stroke="#bfbfbf" points="197.688,-0.5 197.688,-19.5 238.688,-19.5 238.688,-0.5 197.688,-0.5"/>
<text text-anchor="middle" x="218.188" y="-7.5" font-family="Helvetica,sans-Serif" font-size="10.00">string</text>
</g>
<!-- Node1&#45;&gt;Node6 -->
<g id="edge5" class="edge"><title>Node1&#45;&gt;Node6</title>
<path fill="none" stroke="midnightblue" d="M408.402,-243.64C298.819,-241.546 106.494,-231.554 54.1881,-188 7.4581,-149.089 -19.7992,-103.484 18.1881,-56 39.0485,-29.9245 136.79,-17.8974 187.493,-13.3341"/>
<polygon fill="midnightblue" stroke="midnightblue" points="187.89,-16.813 197.554,-12.4712 187.292,-9.83857 187.89,-16.813"/>
</g>
<!-- Node7 -->
<g id="node7" class="node"><title>Node7</title>
<polygon fill="none" stroke="#bfbfbf" points="955.188,-112.5 955.188,-131.5 999.188,-131.5 999.188,-112.5 955.188,-112.5"/>
<text text-anchor="middle" x="977.188" y="-119.5" font-family="Helvetica,sans-Serif" font-size="10.00">thread</text>
</g>
<!-- Node1&#45;&gt;Node7 -->
<g id="edge6" class="edge"><title>Node1&#45;&gt;Node7</title>
<path fill="none" stroke="midnightblue" d="M563.696,-230.198C610.148,-220.784 669.948,-206.634 721.188,-188 739.867,-181.207 742.388,-174.451 761.188,-168 838.356,-141.523 861.591,-149.899 941.188,-132 942.461,-131.714 943.758,-131.417 945.066,-131.112"/>
<polygon fill="midnightblue" stroke="midnightblue" points="946.239,-134.43 955.143,-128.688 944.602,-127.624 946.239,-134.43"/>
</g>
<!-- Node8 -->
<g id="node8" class="node"><title>Node8</title>
<polygon fill="none" stroke="#bfbfbf" points="823.188,-168.5 823.188,-187.5 861.188,-187.5 861.188,-168.5 823.188,-168.5"/>
<text text-anchor="middle" x="842.188" y="-175.5" font-family="Helvetica,sans-Serif" font-size="10.00">tuple</text>
</g>
<!-- Node1&#45;&gt;Node8 -->
<g id="edge7" class="edge"><title>Node1&#45;&gt;Node8</title>
<path fill="none" stroke="midnightblue" d="M563.741,-233.65C630.367,-224.061 728.752,-208.24 813.188,-188 813.287,-187.976 813.387,-187.952 813.487,-187.928"/>
<polygon fill="midnightblue" stroke="midnightblue" points="814.21,-191.358 822.943,-185.359 812.375,-184.603 814.21,-191.358"/>
</g>
<!-- Node9 -->
<g id="node9" class="node"><title>Node9</title>
<polygon fill="none" stroke="#bfbfbf" points="393.688,-112.5 393.688,-131.5 476.688,-131.5 476.688,-112.5 393.688,-112.5"/>
<text text-anchor="middle" x="435.188" y="-119.5" font-family="Helvetica,sans-Serif" font-size="10.00">unordered_map</text>
</g>
<!-- Node1&#45;&gt;Node9 -->
<g id="edge8" class="edge"><title>Node1&#45;&gt;Node9</title>
<path fill="none" stroke="midnightblue" d="M477.881,-224.29C468.134,-201.166 452.115,-163.16 442.718,-140.864"/>
<polygon fill="midnightblue" stroke="midnightblue" points="445.912,-139.43 438.802,-131.575 439.461,-142.149 445.912,-139.43"/>
</g>
<!-- Node10 -->
<g id="node10" class="node"><title>Node10</title>
<polygon fill="none" stroke="#bfbfbf" points="429.188,-56.5 429.188,-75.5 473.188,-75.5 473.188,-56.5 429.188,-56.5"/>
<text text-anchor="middle" x="451.188" y="-63.5" font-family="Helvetica,sans-Serif" font-size="10.00">vector</text>
</g>
<!-- Node1&#45;&gt;Node10 -->
<g id="edge9" class="edge"><title>Node1&#45;&gt;Node10</title>
<path fill="none" stroke="midnightblue" d="M489.824,-224.124C493.815,-197.715 498.082,-149.976 485.188,-112 481.543,-101.265 474.241,-91.0354 467.334,-83.0501"/>
<polygon fill="midnightblue" stroke="midnightblue" points="469.812,-80.5748 460.451,-75.6138 464.675,-85.3299 469.812,-80.5748"/>
</g>
<!-- Node11 -->
<g id="node11" class="node"><title>Node11</title>
<g id="a_node11"><a xlink:href="../../df/d83/Backend_8h.html" target="_top" xlink:title="Monitoring/Backend.h">
<polygon fill="none" stroke="black" points="80.6881,-168.5 80.6881,-187.5 191.688,-187.5 191.688,-168.5 80.6881,-168.5"/>
<text text-anchor="middle" x="136.188" y="-175.5" font-family="Helvetica,sans-Serif" font-size="10.00">Monitoring/Backend.h</text>
</a>
</g>
</g>
<!-- Node1&#45;&gt;Node11 -->
<g id="edge10" class="edge"><title>Node1&#45;&gt;Node11</title>
<path fill="none" stroke="midnightblue" d="M408.512,-229.574C342.967,-217.402 250.714,-200.269 192.192,-189.401"/>
<polygon fill="midnightblue" stroke="midnightblue" points="192.5,-185.898 182.029,-187.513 191.222,-192.78 192.5,-185.898"/>
</g>
<!-- Node15 -->
<g id="node15" class="node"><title>Node15</title>
<g id="a_node15"><a xlink:href="../../dc/de0/DerivedMetrics_8h.html" target="_top" xlink:title="Monitoring/DerivedMetrics.h">
<polygon fill="none" stroke="black" points="278.688,-168.5 278.688,-187.5 417.688,-187.5 417.688,-168.5 278.688,-168.5"/>
<text text-anchor="middle" x="348.188" y="-175.5" font-family="Helvetica,sans-Serif" font-size="10.00">Monitoring/DerivedMetrics.h</text>
</a>
</g>
</g>
<!-- Node1&#45;&gt;Node15 -->
<g id="edge20" class="edge"><title>Node1&#45;&gt;Node15</title>
<path fill="none" stroke="midnightblue" d="M444.784,-224.498C422.405,-213.957 395.39,-201.233 375.626,-191.923"/>
<polygon fill="midnightblue" stroke="midnightblue" points="377.096,-188.747 366.558,-187.652 374.113,-195.08 377.096,-188.747"/>
</g>
<!-- Node16 -->
<g id="node16" class="node"><title>Node16</title>
<g id="a_node16"><a xlink:href="../../df/d93/ProcessMonitor_8h.html" target="_top" xlink:title="Monitoring/ProcessMonitor.h">
<polygon fill="none" stroke="black" points="571.688,-168.5 571.688,-187.5 712.688,-187.5 712.688,-168.5 571.688,-168.5"/>
<text text-anchor="middle" x="642.188" y="-175.5" font-family="Helvetica,sans-Serif" font-size="10.00">Monitoring/ProcessMonitor.h</text>
</a>
</g>
</g>
<!-- Node1&#45;&gt;Node16 -->
<g id="edge26" class="edge"><title>Node1&#45;&gt;Node16</title>
<path fill="none" stroke="midnightblue" d="M532.993,-224.498C558.636,-213.813 589.664,-200.885 612.081,-191.545"/>
<polygon fill="midnightblue" stroke="midnightblue" points="613.538,-194.729 621.422,-187.652 610.845,-188.268 613.538,-194.729"/>
</g>
<!-- Node11&#45;&gt;Node3 -->
<g id="edge11" class="edge"><title>Node11&#45;&gt;Node3</title>
<path fill="none" stroke="midnightblue" d="M124.738,-168.216C114.155,-159.72 98.4152,-146.093 87.1881,-132 75.4537,-117.271 65.1397,-98.3685 58.4029,-84.7489"/>
<polygon fill="midnightblue" stroke="midnightblue" points="61.4597,-83.0283 53.9843,-75.5203 55.146,-86.0513 61.4597,-83.0283"/>
</g>
<!-- Node11&#45;&gt;Node6 -->
<g id="edge12" class="edge"><title>Node11&#45;&gt;Node6</title>
<path fill="none" stroke="midnightblue" d="M131.196,-168.153C124.771,-155.63 115.014,-132.029 120.188,-112 127.303,-84.4562 131.954,-76.9605 151.188,-56 162.811,-43.3336 178.682,-32.4724 192.06,-24.5953"/>
<polygon fill="midnightblue" stroke="midnightblue" points="193.856,-27.6003 200.84,-19.6331 190.412,-21.5062 193.856,-27.6003"/>
</g>
<!-- Node12 -->
<g id="node12" class="node"><title>Node12</title>
<g id="a_node12"><a xlink:href="../../d9/d92/Metric_8h.html" target="_top" xlink:title="Monitoring/Metric.h">
<polygon fill="none" stroke="black" points="199.188,-112.5 199.188,-131.5 299.188,-131.5 299.188,-112.5 199.188,-112.5"/>
<text text-anchor="middle" x="249.188" y="-119.5" font-family="Helvetica,sans-Serif" font-size="10.00">Monitoring/Metric.h</text>
</a>
</g>
</g>
<!-- Node11&#45;&gt;Node12 -->
<g id="edge13" class="edge"><title>Node11&#45;&gt;Node12</title>
<path fill="none" stroke="midnightblue" d="M154.093,-168.444C172.442,-159.675 201.194,-145.935 222.282,-135.858"/>
<polygon fill="midnightblue" stroke="midnightblue" points="223.853,-138.986 231.367,-131.516 220.835,-132.67 223.853,-138.986"/>
</g>
<!-- Node12&#45;&gt;Node3 -->
<g id="edge15" class="edge"><title>Node12&#45;&gt;Node3</title>
<path fill="none" stroke="midnightblue" d="M217.656,-112.444C180.891,-102.467 120.412,-86.0556 83.0754,-75.9242"/>
<polygon fill="midnightblue" stroke="midnightblue" points="83.765,-72.4848 73.1974,-73.2437 81.9318,-79.2405 83.765,-72.4848"/>
</g>
<!-- Node12&#45;&gt;Node6 -->
<g id="edge14" class="edge"><title>Node12&#45;&gt;Node6</title>
<path fill="none" stroke="midnightblue" d="M211.22,-112.411C191.78,-105.883 169.812,-94.7151 158.188,-76 145.781,-56.0233 169.683,-36.689 190.897,-24.3758"/>
<polygon fill="midnightblue" stroke="midnightblue" points="192.622,-27.4216 199.71,-19.5472 189.258,-21.2826 192.622,-27.4216"/>
</g>
<!-- Node12&#45;&gt;Node10 -->
<g id="edge16" class="edge"><title>Node12&#45;&gt;Node10</title>
<path fill="none" stroke="midnightblue" d="M281.196,-112.444C318.921,-102.358 381.247,-85.6971 419.036,-75.5952"/>
<polygon fill="midnightblue" stroke="midnightblue" points="420.246,-78.8947 429.003,-72.9308 418.438,-72.1322 420.246,-78.8947"/>
</g>
<!-- Node13 -->
<g id="node13" class="node"><title>Node13</title>
<polygon fill="none" stroke="#bfbfbf" points="167.188,-56.5 167.188,-75.5 259.188,-75.5 259.188,-56.5 167.188,-56.5"/>
<text text-anchor="middle" x="213.188" y="-63.5" font-family="Helvetica,sans-Serif" font-size="10.00">boost/variant.hpp</text>
</g>
<!-- Node12&#45;&gt;Node13 -->
<g id="edge17" class="edge"><title>Node12&#45;&gt;Node13</title>
<path fill="none" stroke="midnightblue" d="M243.243,-112.083C238.211,-104.534 230.851,-93.4948 224.675,-84.2298"/>
<polygon fill="midnightblue" stroke="midnightblue" points="227.481,-82.1301 219.022,-75.7511 221.657,-86.0131 227.481,-82.1301"/>
</g>
<!-- Node14 -->
<g id="node14" class="node"><title>Node14</title>
<g id="a_node14"><a xlink:href="../../d9/d33/Tag_8h.html" target="_top" xlink:title="Tag.h">
<polygon fill="none" stroke="black" points="277.688,-56.5 277.688,-75.5 318.688,-75.5 318.688,-56.5 277.688,-56.5"/>
<text text-anchor="middle" x="298.188" y="-63.5" font-family="Helvetica,sans-Serif" font-size="10.00">Tag.h</text>
</a>
</g>
</g>
<!-- Node12&#45;&gt;Node14 -->
<g id="edge18" class="edge"><title>Node12&#45;&gt;Node14</title>
<path fill="none" stroke="midnightblue" d="M257.279,-112.083C264.343,-104.298 274.776,-92.8015 283.337,-83.3665"/>
<polygon fill="midnightblue" stroke="midnightblue" points="286.119,-85.5087 290.247,-75.7511 280.935,-80.8047 286.119,-85.5087"/>
</g>
<!-- Node14&#45;&gt;Node6 -->
<g id="edge19" class="edge"><title>Node14&#45;&gt;Node6</title>
<path fill="none" stroke="midnightblue" d="M285.335,-56.324C272.972,-47.979 254.058,-35.2122 239.451,-25.3524"/>
<polygon fill="midnightblue" stroke="midnightblue" points="241.256,-22.3483 231.01,-19.6545 237.34,-28.1503 241.256,-22.3483"/>
</g>
<!-- Node15&#45;&gt;Node5 -->
<g id="edge22" class="edge"><title>Node15&#45;&gt;Node5</title>
<path fill="none" stroke="midnightblue" d="M317.607,-168.444C283.213,-158.821 227.421,-143.21 191.014,-133.024"/>
<polygon fill="midnightblue" stroke="midnightblue" points="191.867,-129.628 181.294,-130.304 189.981,-136.369 191.867,-129.628"/>
</g>
<!-- Node15&#45;&gt;Node6 -->
<g id="edge23" class="edge"><title>Node15&#45;&gt;Node6</title>
<path fill="none" stroke="midnightblue" d="M349.307,-168.252C351.573,-146.625 354.387,-89.9416 327.188,-56 308.033,-32.0956 274.034,-20.7618 249.086,-15.4701"/>
<polygon fill="midnightblue" stroke="midnightblue" points="249.496,-11.9854 239.018,-13.5532 248.187,-18.8619 249.496,-11.9854"/>
</g>
<!-- Node15&#45;&gt;Node9 -->
<g id="edge21" class="edge"><title>Node15&#45;&gt;Node9</title>
<path fill="none" stroke="midnightblue" d="M362.166,-168.324C375.738,-159.9 396.568,-146.971 412.513,-137.074"/>
<polygon fill="midnightblue" stroke="midnightblue" points="414.594,-139.902 421.245,-131.655 410.903,-133.954 414.594,-139.902"/>
</g>
<!-- Node15&#45;&gt;Node10 -->
<g id="edge24" class="edge"><title>Node15&#45;&gt;Node10</title>
<path fill="none" stroke="midnightblue" d="M351.494,-168.182C356.815,-154.853 368.313,-129.297 384.188,-112 395.812,-99.3349 411.683,-88.4737 425.061,-80.5963"/>
<polygon fill="midnightblue" stroke="midnightblue" points="426.857,-83.6013 433.841,-75.6339 423.413,-77.5073 426.857,-83.6013"/>
</g>
<!-- Node15&#45;&gt;Node12 -->
<g id="edge25" class="edge"><title>Node15&#45;&gt;Node12</title>
<path fill="none" stroke="midnightblue" d="M332.282,-168.324C316.55,-159.743 292.246,-146.486 273.979,-136.522"/>
<polygon fill="midnightblue" stroke="midnightblue" points="275.51,-133.37 265.055,-131.655 272.158,-139.516 275.51,-133.37"/>
</g>
<!-- Node16&#45;&gt;Node2 -->
<g id="edge27" class="edge"><title>Node16&#45;&gt;Node2</title>
<path fill="none" stroke="midnightblue" d="M628.371,-168.324C614.955,-159.9 594.364,-146.971 578.602,-137.074"/>
<polygon fill="midnightblue" stroke="midnightblue" points="580.301,-134.008 569.971,-131.655 576.579,-139.936 580.301,-134.008"/>
</g>
<!-- Node16&#45;&gt;Node6 -->
<g id="edge31" class="edge"><title>Node16&#45;&gt;Node6</title>
<path fill="none" stroke="midnightblue" d="M704.886,-168.455C781.437,-157.722 901.622,-139.77 908.188,-132 913.925,-125.211 914.001,-118.725 908.188,-112 820.871,-10.9709 371.704,-9.05981 249.125,-10.4639"/>
<polygon fill="midnightblue" stroke="midnightblue" points="248.891,-6.96653 238.937,-10.5974 248.982,-13.9659 248.891,-6.96653"/>
</g>
<!-- Node16&#45;&gt;Node7 -->
<g id="edge32" class="edge"><title>Node16&#45;&gt;Node7</title>
<path fill="none" stroke="midnightblue" d="M711.393,-168.493C772.205,-160.565 862.943,-147.631 941.188,-132 942.467,-131.744 943.77,-131.473 945.083,-131.19"/>
<polygon fill="midnightblue" stroke="midnightblue" points="946.224,-134.518 955.179,-128.856 944.647,-127.698 946.224,-134.518"/>
</g>
<!-- Node16&#45;&gt;Node10 -->
<g id="edge33" class="edge"><title>Node16&#45;&gt;Node10</title>
<path fill="none" stroke="midnightblue" d="M637.073,-168.071C628.638,-154.121 610.506,-127.186 588.188,-112 556.113,-90.1751 512.668,-78.2834 483.372,-72.2965"/>
<polygon fill="midnightblue" stroke="midnightblue" points="483.748,-68.8047 473.267,-70.3505 482.424,-75.6784 483.748,-68.8047"/>
</g>
<!-- Node16&#45;&gt;Node12 -->
<g id="edge34" class="edge"><title>Node16&#45;&gt;Node12</title>
<path fill="none" stroke="midnightblue" d="M579.916,-168.444C505.706,-158.247 382.57,-141.327 309.317,-131.262"/>
<polygon fill="midnightblue" stroke="midnightblue" points="309.705,-127.783 299.322,-129.889 308.752,-134.717 309.705,-127.783"/>
</g>
<!-- Node17 -->
<g id="node17" class="node"><title>Node17</title>
<polygon fill="none" stroke="#bfbfbf" points="635.688,-112.5 635.688,-131.5 764.688,-131.5 764.688,-112.5 635.688,-112.5"/>
<text text-anchor="middle" x="700.188" y="-119.5" font-family="Helvetica,sans-Serif" font-size="10.00">boost/algorithm/string.hpp</text>
</g>
<!-- Node16&#45;&gt;Node17 -->
<g id="edge28" class="edge"><title>Node16&#45;&gt;Node17</title>
<path fill="none" stroke="midnightblue" d="M651.507,-168.324C660.081,-160.341 673,-148.313 683.376,-138.653"/>
<polygon fill="midnightblue" stroke="midnightblue" points="685.766,-141.21 690.7,-131.834 680.996,-136.086 685.766,-141.21"/>
</g>
<!-- Node18 -->
<g id="node18" class="node"><title>Node18</title>
<polygon fill="none" stroke="#bfbfbf" points="783.188,-112.5 783.188,-131.5 827.188,-131.5 827.188,-112.5 783.188,-112.5"/>
<text text-anchor="middle" x="805.188" y="-119.5" font-family="Helvetica,sans-Serif" font-size="10.00">mutex</text>
</g>
<!-- Node16&#45;&gt;Node18 -->
<g id="edge29" class="edge"><title>Node16&#45;&gt;Node18</title>
<path fill="none" stroke="midnightblue" d="M668.016,-168.444C696.567,-158.985 742.578,-143.742 773.34,-133.551"/>
<polygon fill="midnightblue" stroke="midnightblue" points="774.748,-136.771 783.14,-130.304 772.547,-130.127 774.748,-136.771"/>
</g>
<!-- Node19 -->
<g id="node19" class="node"><title>Node19</title>
<polygon fill="none" stroke="#bfbfbf" points="845.188,-112.5 845.188,-131.5 899.188,-131.5 899.188,-112.5 845.188,-112.5"/>
<text text-anchor="middle" x="872.188" y="-119.5" font-family="Helvetica,sans-Serif" font-size="10.00">iostream</text>
</g>
<!-- Node16&#45;&gt;Node19 -->
<g id="edge30" class="edge"><title>Node16&#45;&gt;Node19</title>
<path fill="none" stroke="midnightblue" d="M679.212,-168.478C718.083,-159.505 780.968,-144.915 835.188,-132 835.289,-131.976 835.389,-131.952 835.49,-131.928"/>
<polygon fill="midnightblue" stroke="midnightblue" points="836.211,-135.355 845.117,-129.616 834.577,-128.548 836.211,-135.355"/>
</g>
</g>
</svg>
