<?xml version="1.0" encoding="UTF-8" standalone="no"?>
<!DOCTYPE svg PUBLIC "-//W3C//DTD SVG 1.1//EN"
 "http://www.w3.org/Graphics/SVG/1.1/DTD/svg11.dtd">
<!-- Generated by graphviz version 2.36.0 (20140111.2315)
 -->
<!-- Title: /home/travis/build/AliceO2Group/Monitoring/include/Monitoring/ProcessMonitor.h Pages: 1 -->
<svg width="734pt" height="218pt"
 viewBox="0.00 0.00 734.00 218.00" xmlns="http://www.w3.org/2000/svg" xmlns:xlink="http://www.w3.org/1999/xlink">
<g id="graph0" class="graph" transform="scale(1 1) rotate(0) translate(4 214)">
<title>/home/travis/build/AliceO2Group/Monitoring/include/Monitoring/ProcessMonitor.h</title>
<!-- Node1 -->
<g id="node1" class="node"><title>Node1</title>
<polygon fill="#bfbfbf" stroke="black" points="239,-168.5 239,-209.5 417,-209.5 417,-168.5 239,-168.5"/>
<text text-anchor="start" x="247" y="-197.5" font-family="Helvetica,sans-Serif" font-size="10.00">/home/travis/build</text>
<text text-anchor="start" x="247" y="-186.5" font-family="Helvetica,sans-Serif" font-size="10.00">/AliceO2Group/Monitoring</text>
<text text-anchor="middle" x="328" y="-175.5" font-family="Helvetica,sans-Serif" font-size="10.00">/include/Monitoring/ProcessMonitor.h</text>
</g>
<!-- Node2 -->
<g id="node2" class="node"><title>Node2</title>
<polygon fill="none" stroke="#bfbfbf" points="0,-112.5 0,-131.5 46,-131.5 46,-112.5 0,-112.5"/>
<text text-anchor="middle" x="23" y="-119.5" font-family="Helvetica,sans-Serif" font-size="10.00">atomic</text>
</g>
<!-- Node1&#45;&gt;Node2 -->
<g id="edge1" class="edge"><title>Node1&#45;&gt;Node2</title>
<path fill="none" stroke="midnightblue" d="M238.809,-171.384C187.807,-161.485 122.465,-148.136 55.8553,-132.077"/>
<polygon fill="midnightblue" stroke="midnightblue" points="56.5636,-128.647 46.02,-129.688 54.9112,-135.449 56.5636,-128.647"/>
</g>
<!-- Node3 -->
<g id="node3" class="node"><title>Node3</title>
<polygon fill="none" stroke="#bfbfbf" points="64.5,-112.5 64.5,-131.5 193.5,-131.5 193.5,-112.5 64.5,-112.5"/>
<text text-anchor="middle" x="129" y="-119.5" font-family="Helvetica,sans-Serif" font-size="10.00">boost/algorithm/string.hpp</text>
</g>
<!-- Node1&#45;&gt;Node3 -->
<g id="edge2" class="edge"><title>Node1&#45;&gt;Node3</title>
<path fill="none" stroke="midnightblue" d="M268.293,-168.498C234.6,-157.493 193.618,-144.106 164.859,-134.713"/>
<polygon fill="midnightblue" stroke="midnightblue" points="165.821,-131.345 155.228,-131.567 163.647,-137.999 165.821,-131.345"/>
</g>
<!-- Node4 -->
<g id="node4" class="node"><title>Node4</title>
<polygon fill="none" stroke="#bfbfbf" points="212,-112.5 212,-131.5 256,-131.5 256,-112.5 212,-112.5"/>
<text text-anchor="middle" x="234" y="-119.5" font-family="Helvetica,sans-Serif" font-size="10.00">mutex</text>
</g>
<!-- Node1&#45;&gt;Node4 -->
<g id="edge3" class="edge"><title>Node1&#45;&gt;Node4</title>
<path fill="none" stroke="midnightblue" d="M299.797,-168.498C285.385,-158.532 268.15,-146.614 254.935,-137.476"/>
<polygon fill="midnightblue" stroke="midnightblue" points="256.729,-134.461 246.513,-131.652 252.747,-140.219 256.729,-134.461"/>
</g>
<!-- Node5 -->
<g id="node5" class="node"><title>Node5</title>
<polygon fill="none" stroke="#bfbfbf" points="274,-112.5 274,-131.5 328,-131.5 328,-112.5 274,-112.5"/>
<text text-anchor="middle" x="301" y="-119.5" font-family="Helvetica,sans-Serif" font-size="10.00">iostream</text>
</g>
<!-- Node1&#45;&gt;Node5 -->
<g id="edge4" class="edge"><title>Node1&#45;&gt;Node5</title>
<path fill="none" stroke="midnightblue" d="M319.899,-168.498C316.277,-159.778 312.034,-149.563 308.487,-141.024"/>
<polygon fill="midnightblue" stroke="midnightblue" points="311.662,-139.545 304.594,-131.652 305.198,-142.23 311.662,-139.545"/>
</g>
<!-- Node6 -->
<g id="node6" class="node"><title>Node6</title>
<polygon fill="none" stroke="#bfbfbf" points="462.5,-0.5 462.5,-19.5 503.5,-19.5 503.5,-0.5 462.5,-0.5"/>
<text text-anchor="middle" x="483" y="-7.5" font-family="Helvetica,sans-Serif" font-size="10.00">string</text>
</g>
<!-- Node1&#45;&gt;Node6 -->
<g id="edge5" class="edge"><title>Node1&#45;&gt;Node6</title>
<path fill="none" stroke="midnightblue" d="M335.014,-168.366C345.779,-140.501 368.683,-89.1891 402,-56 416.481,-41.5743 436.542,-30.3828 453.076,-22.7688"/>
<polygon fill="midnightblue" stroke="midnightblue" points="454.586,-25.9281 462.334,-18.7018 451.771,-19.5192 454.586,-25.9281"/>
</g>
<!-- Node7 -->
<g id="node7" class="node"><title>Node7</title>
<polygon fill="none" stroke="#bfbfbf" points="384,-112.5 384,-131.5 428,-131.5 428,-112.5 384,-112.5"/>
<text text-anchor="middle" x="406" y="-119.5" font-family="Helvetica,sans-Serif" font-size="10.00">thread</text>
</g>
<!-- Node1&#45;&gt;Node7 -->
<g id="edge6" class="edge"><title>Node1&#45;&gt;Node7</title>
<path fill="none" stroke="midnightblue" d="M351.403,-168.498C363.016,-158.82 376.84,-147.3 387.671,-138.274"/>
<polygon fill="midnightblue" stroke="midnightblue" points="390.175,-140.743 395.617,-131.652 385.694,-135.366 390.175,-140.743"/>
</g>
<!-- Node8 -->
<g id="node8" class="node"><title>Node8</title>
<polygon fill="none" stroke="#bfbfbf" points="411,-56.5 411,-75.5 455,-75.5 455,-56.5 411,-56.5"/>
<text text-anchor="middle" x="433" y="-63.5" font-family="Helvetica,sans-Serif" font-size="10.00">vector</text>
</g>
<!-- Node1&#45;&gt;Node8 -->
<g id="edge7" class="edge"><title>Node1&#45;&gt;Node8</title>
<path fill="none" stroke="midnightblue" d="M392.885,-168.386C409.846,-159.986 426.126,-148.243 436,-132 444.427,-118.137 442.456,-99.373 439.1,-85.5687"/>
<polygon fill="midnightblue" stroke="midnightblue" points="442.405,-84.3976 436.284,-75.7498 435.676,-86.3272 442.405,-84.3976"/>
</g>
<!-- Node9 -->
<g id="node9" class="node"><title>Node9</title>
<g id="a_node9"><a xlink:href="../../d9/d92/Metric_8h.html" target="_top" xlink:title="Monitoring/Metric.h">
<polygon fill="none" stroke="black" points="484,-112.5 484,-131.5 584,-131.5 584,-112.5 484,-112.5"/>
<text text-anchor="middle" x="534" y="-119.5" font-family="Helvetica,sans-Serif" font-size="10.00">Monitoring/Metric.h</text>
</a>
</g>
</g>
<!-- Node1&#45;&gt;Node9 -->
<g id="edge8" class="edge"><title>Node1&#45;&gt;Node9</title>
<path fill="none" stroke="midnightblue" d="M389.807,-168.498C424.838,-157.444 467.479,-143.99 497.269,-134.59"/>
<polygon fill="midnightblue" stroke="midnightblue" points="498.366,-137.914 506.849,-131.567 496.259,-131.238 498.366,-137.914"/>
</g>
<!-- Node9&#45;&gt;Node6 -->
<g id="edge9" class="edge"><title>Node9&#45;&gt;Node6</title>
<path fill="none" stroke="midnightblue" d="M526.426,-112.258C519.247,-103.577 508.605,-89.6303 502,-76 494.79,-61.1218 489.768,-42.9757 486.706,-29.6413"/>
<polygon fill="midnightblue" stroke="midnightblue" points="490.104,-28.7959 484.589,-19.7495 483.259,-30.2605 490.104,-28.7959"/>
</g>
<!-- Node9&#45;&gt;Node8 -->
<g id="edge11" class="edge"><title>Node9&#45;&gt;Node8</title>
<path fill="none" stroke="midnightblue" d="M517.773,-112.324C501.649,-103.703 476.7,-90.3643 458.036,-80.3855"/>
<polygon fill="midnightblue" stroke="midnightblue" points="459.656,-77.283 449.187,-75.6545 456.356,-83.456 459.656,-77.283"/>
</g>
<!-- Node10 -->
<g id="node10" class="node"><title>Node10</title>
<polygon fill="none" stroke="#bfbfbf" points="511,-56.5 511,-75.5 557,-75.5 557,-56.5 511,-56.5"/>
<text text-anchor="middle" x="534" y="-63.5" font-family="Helvetica,sans-Serif" font-size="10.00">chrono</text>
</g>
<!-- Node9&#45;&gt;Node10 -->
<g id="edge10" class="edge"><title>Node9&#45;&gt;Node10</title>
<path fill="none" stroke="midnightblue" d="M534,-112.083C534,-105.006 534,-94.8611 534,-85.9865"/>
<polygon fill="midnightblue" stroke="midnightblue" points="537.5,-85.751 534,-75.7511 530.5,-85.7511 537.5,-85.751"/>
</g>
<!-- Node11 -->
<g id="node11" class="node"><title>Node11</title>
<polygon fill="none" stroke="#bfbfbf" points="575,-56.5 575,-75.5 667,-75.5 667,-56.5 575,-56.5"/>
<text text-anchor="middle" x="621" y="-63.5" font-family="Helvetica,sans-Serif" font-size="10.00">boost/variant.hpp</text>
</g>
<!-- Node9&#45;&gt;Node11 -->
<g id="edge12" class="edge"><title>Node9&#45;&gt;Node11</title>
<path fill="none" stroke="midnightblue" d="M547.978,-112.324C561.55,-103.9 582.38,-90.9709 598.325,-81.0741"/>
<polygon fill="midnightblue" stroke="midnightblue" points="600.406,-83.9019 607.057,-75.6545 596.714,-77.9544 600.406,-83.9019"/>
</g>
<!-- Node12 -->
<g id="node12" class="node"><title>Node12</title>
<g id="a_node12"><a xlink:href="../../d9/d33/Tag_8h.html" target="_top" xlink:title="Tag.h">
<polygon fill="none" stroke="black" points="685.5,-56.5 685.5,-75.5 726.5,-75.5 726.5,-56.5 685.5,-56.5"/>
<text text-anchor="middle" x="706" y="-63.5" font-family="Helvetica,sans-Serif" font-size="10.00">Tag.h</text>
</a>
</g>
</g>
<!-- Node9&#45;&gt;Node12 -->
<g id="edge13" class="edge"><title>Node9&#45;&gt;Node12</title>
<path fill="none" stroke="midnightblue" d="M561.254,-112.444C592.367,-102.676 643.129,-86.7385 675.527,-76.5673"/>
<polygon fill="midnightblue" stroke="midnightblue" points="676.859,-79.8174 685.352,-73.4826 674.762,-73.1388 676.859,-79.8174"/>
</g>
<!-- Node12&#45;&gt;Node6 -->
<g id="edge14" class="edge"><title>Node12&#45;&gt;Node6</title>
<path fill="none" stroke="midnightblue" d="M685.391,-58.6331C682.254,-57.7174 679.048,-56.8116 676,-56 619.019,-40.8258 551.83,-25.8001 513.64,-17.5252"/>
<polygon fill="midnightblue" stroke="midnightblue" points="514.183,-14.062 503.67,-15.3758 512.708,-20.9047 514.183,-14.062"/>
</g>
</g>
</svg>
