<?xml version="1.0" encoding="UTF-8" standalone="no"?>
<!DOCTYPE svg PUBLIC "-//W3C//DTD SVG 1.1//EN"
 "http://www.w3.org/Graphics/SVG/1.1/DTD/svg11.dtd">
<!-- Generated by graphviz version 2.36.0 (20140111.2315)
 -->
<!-- Title: /home/travis/build/AliceO2Group/Monitoring/test/testMonitoring.cxx Pages: 1 -->
<!--zoomable 398 -->
<svg id="main" version="1.1" xmlns="http://www.w3.org/2000/svg" xmlns:xlink="http://www.w3.org/1999/xlink" xml:space="preserve" onload="init(evt)">
<style type="text/css"><![CDATA[
.edge:hover path { stroke: red; }
.edge:hover polygon { stroke: red; fill: red; }
]]></style>
<script type="text/javascript"><![CDATA[
var edges = document.getElementsByTagName('g');
if (edges && edges.length) {
  for (var i=0;i<edges.length;i++) {
    if (edges[i].id.substr(0,4)=='edge') {
      edges[i].setAttribute('class','edge');
    }
  }
}
]]></script>
        <defs>
                <circle id="rim" cx="0" cy="0" r="7"/>
                <circle id="rim2" cx="0" cy="0" r="3.5"/>
                <g id="zoomPlus">
                        <use xlink:href="#rim" fill="#404040">
                                <set attributeName="fill" to="#808080" begin="zoomplus.mouseover" end="zoomplus.mouseout"/>
                        </use>
                        <path d="M-4,0h8M0,-4v8" fill="none" stroke="white" stroke-width="1.5" pointer-events="none"/>
                </g>
                <g id="zoomMin">
                        <use xlink:href="#rim" fill="#404040">
                                <set attributeName="fill" to="#808080" begin="zoomminus.mouseover" end="zoomminus.mouseout"/>
                        </use>
                        <path d="M-4,0h8" fill="none" stroke="white" stroke-width="1.5" pointer-events="none"/>
                </g>
                <g id="dirArrow">
                        <path fill="none" stroke="white" stroke-width="1.5" d="M0,-3.0v7 M-2.5,-0.5L0,-3.0L2.5,-0.5"/>
                </g>
               <g id="resetDef">
                       <use xlink:href="#rim2" fill="#404040">
                               <set attributeName="fill" to="#808080" begin="reset.mouseover" end="reset.mouseout"/>
                       </use>
               </g>
        </defs>

<script type="text/javascript">
var viewWidth = 1328;
var viewHeight = 398;
var sectionId = 'dynsection-0';
</script>
<script xlink:href="../../svgpan.js"/>
<svg id="graph" class="graph">
<g id="viewport">
<title>/home/travis/build/AliceO2Group/Monitoring/test/testMonitoring.cxx</title>
<!-- Node1 -->
<g id="node1" class="node"><title>Node1</title>
<polygon fill="#bfbfbf" stroke="black" points="976,-348.5 976,-389.5 1104,-389.5 1104,-348.5 976,-348.5"/>
<text text-anchor="start" x="984" y="-377.5" font-family="Helvetica,sans-Serif" font-size="10.00">/home/travis/build</text>
<text text-anchor="start" x="984" y="-366.5" font-family="Helvetica,sans-Serif" font-size="10.00">/AliceO2Group/Monitoring</text>
<text text-anchor="middle" x="1040" y="-355.5" font-family="Helvetica,sans-Serif" font-size="10.00">/test/testMonitoring.cxx</text>
</g>
<!-- Node2 -->
<g id="node2" class="node"><title>Node2</title>
<polygon fill="none" stroke="#bfbfbf" points="97,-56.5 97,-75.5 143,-75.5 143,-56.5 97,-56.5"/>
<text text-anchor="middle" x="120" y="-63.5" font-family="Helvetica,sans-Serif" font-size="10.00">chrono</text>
</g>
<!-- Node1&#45;&gt;Node2 -->
<g id="edge1" class="edge"><title>Node1&#45;&gt;Node2</title>
<path fill="none" stroke="midnightblue" d="M975.728,-366.576C748.985,-360.713 0,-333.863 0,-235 0,-235 0,-235 0,-177 0,-129.08 52.643,-96.3821 88.1941,-79.7644"/>
<polygon fill="midnightblue" stroke="midnightblue" points="90.013,-82.7849 97.7102,-75.5045 87.1529,-76.3959 90.013,-82.7849"/>
</g>
<!-- Node3 -->
<g id="node3" class="node"><title>Node3</title>
<polygon fill="none" stroke="#bfbfbf" points="732,-56.5 732,-75.5 776,-75.5 776,-56.5 732,-56.5"/>
<text text-anchor="middle" x="754" y="-63.5" font-family="Helvetica,sans-Serif" font-size="10.00">vector</text>
</g>
<!-- Node1&#45;&gt;Node3 -->
<g id="edge2" class="edge"><title>Node1&#45;&gt;Node3</title>
<path fill="none" stroke="midnightblue" d="M1040,-348.171C1040,-322.181 1040,-275.177 1040,-235 1040,-235 1040,-235 1040,-177 1040,-142.844 1027.29,-131.14 999,-112 964.691,-88.7861 844.527,-75.1153 786.22,-69.7048"/>
<polygon fill="midnightblue" stroke="midnightblue" points="786.362,-66.2034 776.087,-68.7902 785.732,-73.1751 786.362,-66.2034"/>
</g>
<!-- Node4 -->
<g id="node4" class="node"><title>Node4</title>
<polygon fill="none" stroke="#bfbfbf" points="1068.5,-286.5 1068.5,-305.5 1187.5,-305.5 1187.5,-286.5 1068.5,-286.5"/>
<text text-anchor="middle" x="1128" y="-293.5" font-family="Helvetica,sans-Serif" font-size="10.00">boost/test/unit_test.hpp</text>
</g>
<!-- Node1&#45;&gt;Node4 -->
<g id="edge3" class="edge"><title>Node1&#45;&gt;Node4</title>
<path fill="none" stroke="midnightblue" d="M1064.51,-348.223C1078.7,-336.778 1096.27,-322.603 1109.33,-312.067"/>
<polygon fill="midnightblue" stroke="midnightblue" points="1111.59,-314.738 1117.17,-305.735 1107.19,-309.29 1111.59,-314.738"/>
</g>
<!-- Node5 -->
<g id="node5" class="node"><title>Node5</title>
<polygon fill="none" stroke="#bfbfbf" points="1206,-286.5 1206,-305.5 1320,-305.5 1320,-286.5 1206,-286.5"/>
<text text-anchor="middle" x="1263" y="-293.5" font-family="Helvetica,sans-Serif" font-size="10.00">boost/lexical_cast.hpp</text>
</g>
<!-- Node1&#45;&gt;Node5 -->
<g id="edge4" class="edge"><title>Node1&#45;&gt;Node5</title>
<path fill="none" stroke="midnightblue" d="M1101.53,-348.411C1141.6,-335.652 1192.53,-319.436 1226.37,-308.663"/>
<polygon fill="midnightblue" stroke="midnightblue" points="1227.82,-311.873 1236.29,-305.504 1225.7,-305.203 1227.82,-311.873"/>
</g>
<!-- Node6 -->
<g id="node6" class="node"><title>Node6</title>
<g id="a_node6"><a xlink:href="../../df/d4e/MonitoringFactory_8h.html" target="_top" xlink:title="../include/Monitoring\l/MonitoringFactory.h">
<polygon fill="none" stroke="black" points="588,-281 588,-311 694,-311 694,-281 588,-281"/>
<text text-anchor="start" x="596" y="-299" font-family="Helvetica,sans-Serif" font-size="10.00">../include/Monitoring</text>
<text text-anchor="middle" x="641" y="-288" font-family="Helvetica,sans-Serif" font-size="10.00">/MonitoringFactory.h</text>
</a>
</g>
</g>
<!-- Node1&#45;&gt;Node6 -->
<g id="edge5" class="edge"><title>Node1&#45;&gt;Node6</title>
<path fill="none" stroke="midnightblue" d="M975.894,-356.593C901.204,-343.302 778.576,-321.481 704.253,-308.256"/>
<polygon fill="midnightblue" stroke="midnightblue" points="704.555,-304.754 694.097,-306.448 703.329,-311.646 704.555,-304.754"/>
</g>
<!-- Node7 -->
<g id="node7" class="node"><title>Node7</title>
<g id="a_node7"><a xlink:href="../../d0/d98/Monitoring_8h.html" target="_top" xlink:title="Monitoring/Monitoring.h">
<polygon fill="none" stroke="black" points="263,-224.5 263,-243.5 381,-243.5 381,-224.5 263,-224.5"/>
<text text-anchor="middle" x="322" y="-231.5" font-family="Helvetica,sans-Serif" font-size="10.00">Monitoring/Monitoring.h</text>
</a>
</g>
</g>
<!-- Node6&#45;&gt;Node7 -->
<g id="edge6" class="edge"><title>Node6&#45;&gt;Node7</title>
<path fill="none" stroke="midnightblue" d="M587.966,-285.025C529.683,-274.063 436.498,-256.536 377.321,-245.405"/>
<polygon fill="midnightblue" stroke="midnightblue" points="377.88,-241.949 367.406,-243.54 376.586,-248.829 377.88,-241.949"/>
</g>
<!-- Node7&#45;&gt;Node2 -->
<g id="edge8" class="edge"><title>Node7&#45;&gt;Node2</title>
<path fill="none" stroke="midnightblue" d="M262.815,-227.633C202.291,-221.124 113.378,-208.413 86,-188 57.0165,-166.389 40.4569,-144.146 57,-112 64.0773,-98.2475 77.521,-87.7663 90.1778,-80.3942"/>
<polygon fill="midnightblue" stroke="midnightblue" points="91.9994,-83.3888 99.1527,-75.5733 88.6869,-77.2221 91.9994,-83.3888"/>
</g>
<!-- Node7&#45;&gt;Node3 -->
<g id="edge15" class="edge"><title>Node7&#45;&gt;Node3</title>
<path fill="none" stroke="midnightblue" d="M381.054,-233.841C529.239,-234.504 910.112,-226.782 982,-132 987.372,-124.918 987.644,-118.867 982,-112 957.631,-82.3516 843.572,-71.9176 786.581,-68.5134"/>
<polygon fill="midnightblue" stroke="midnightblue" points="786.492,-65.0031 776.313,-67.9396 786.102,-71.9922 786.492,-65.0031"/>
</g>
<!-- Node8 -->
<g id="node8" class="node"><title>Node8</title>
<polygon fill="none" stroke="#bfbfbf" points="508,-112.5 508,-131.5 554,-131.5 554,-112.5 508,-112.5"/>
<text text-anchor="middle" x="531" y="-119.5" font-family="Helvetica,sans-Serif" font-size="10.00">atomic</text>
</g>
<!-- Node7&#45;&gt;Node8 -->
<g id="edge7" class="edge"><title>Node7&#45;&gt;Node8</title>
<path fill="none" stroke="midnightblue" d="M381.097,-228.141C435.454,-222.319 510.364,-210.409 529,-188 539.481,-175.397 538.717,-156.182 536.092,-141.909"/>
<polygon fill="midnightblue" stroke="midnightblue" points="539.408,-140.71 533.767,-131.742 532.584,-142.271 539.408,-140.71"/>
</g>
<!-- Node9 -->
<g id="node9" class="node"><title>Node9</title>
<polygon fill="none" stroke="#bfbfbf" points="104.5,-168.5 104.5,-187.5 139.5,-187.5 139.5,-168.5 104.5,-168.5"/>
<text text-anchor="middle" x="122" y="-175.5" font-family="Helvetica,sans-Serif" font-size="10.00">map</text>
</g>
<!-- Node7&#45;&gt;Node9 -->
<g id="edge9" class="edge"><title>Node7&#45;&gt;Node9</title>
<path fill="none" stroke="midnightblue" d="M286.355,-224.472C253.298,-216.399 202.548,-203.59 149.578,-188.017"/>
<polygon fill="midnightblue" stroke="midnightblue" points="150.247,-184.565 139.665,-185.077 148.257,-191.276 150.247,-184.565"/>
</g>
<!-- Node10 -->
<g id="node10" class="node"><title>Node10</title>
<polygon fill="none" stroke="#bfbfbf" points="168,-112.5 168,-131.5 220,-131.5 220,-112.5 168,-112.5"/>
<text text-anchor="middle" x="194" y="-119.5" font-family="Helvetica,sans-Serif" font-size="10.00">memory</text>
</g>
<!-- Node7&#45;&gt;Node10 -->
<g id="edge10" class="edge"><title>Node7&#45;&gt;Node10</title>
<path fill="none" stroke="midnightblue" d="M302.065,-224.443C285.167,-216.567 260.898,-203.739 243,-188 227.307,-174.2 213.394,-154.654 204.441,-140.606"/>
<polygon fill="midnightblue" stroke="midnightblue" points="207.3,-138.574 199.074,-131.896 201.341,-142.246 207.3,-138.574"/>
</g>
<!-- Node11 -->
<g id="node11" class="node"><title>Node11</title>
<polygon fill="none" stroke="#bfbfbf" points="348.5,-0.5 348.5,-19.5 389.5,-19.5 389.5,-0.5 348.5,-0.5"/>
<text text-anchor="middle" x="369" y="-7.5" font-family="Helvetica,sans-Serif" font-size="10.00">string</text>
</g>
<!-- Node7&#45;&gt;Node11 -->
<g id="edge11" class="edge"><title>Node7&#45;&gt;Node11</title>
<path fill="none" stroke="midnightblue" d="M262.822,-230.292C194.706,-225.933 88.5321,-214.923 60,-188 35.0761,-164.481 36.3509,-144.572 47,-112 56.5857,-82.6807 61.6834,-72.0917 88,-56 129.539,-30.6002 273.682,-17.6372 337.814,-13.0166"/>
<polygon fill="midnightblue" stroke="midnightblue" points="338.374,-16.4861 348.106,-12.2977 337.886,-9.50316 338.374,-16.4861"/>
</g>
<!-- Node12 -->
<g id="node12" class="node"><title>Node12</title>
<polygon fill="none" stroke="#bfbfbf" points="930,-112.5 930,-131.5 974,-131.5 974,-112.5 930,-112.5"/>
<text text-anchor="middle" x="952" y="-119.5" font-family="Helvetica,sans-Serif" font-size="10.00">thread</text>
</g>
<!-- Node7&#45;&gt;Node12 -->
<g id="edge12" class="edge"><title>Node7&#45;&gt;Node12</title>
<path fill="none" stroke="midnightblue" d="M381.168,-229.598C460.484,-224.316 605.392,-212.138 727,-188 797.151,-174.076 877.125,-148.599 920.304,-134.019"/>
<polygon fill="midnightblue" stroke="midnightblue" points="921.617,-137.27 929.956,-130.734 919.361,-130.643 921.617,-137.27"/>
</g>
<!-- Node13 -->
<g id="node13" class="node"><title>Node13</title>
<polygon fill="none" stroke="#bfbfbf" points="158,-168.5 158,-187.5 196,-187.5 196,-168.5 158,-168.5"/>
<text text-anchor="middle" x="177" y="-175.5" font-family="Helvetica,sans-Serif" font-size="10.00">tuple</text>
</g>
<!-- Node7&#45;&gt;Node13 -->
<g id="edge13" class="edge"><title>Node7&#45;&gt;Node13</title>
<path fill="none" stroke="midnightblue" d="M299.024,-224.444C273.705,-215.014 232.95,-199.836 205.586,-189.646"/>
<polygon fill="midnightblue" stroke="midnightblue" points="206.756,-186.347 196.164,-186.137 204.313,-192.907 206.756,-186.347"/>
</g>
<!-- Node14 -->
<g id="node14" class="node"><title>Node14</title>
<polygon fill="none" stroke="#bfbfbf" points="66.5,-112.5 66.5,-131.5 149.5,-131.5 149.5,-112.5 66.5,-112.5"/>
<text text-anchor="middle" x="108" y="-119.5" font-family="Helvetica,sans-Serif" font-size="10.00">unordered_map</text>
</g>
<!-- Node7&#45;&gt;Node14 -->
<g id="edge14" class="edge"><title>Node7&#45;&gt;Node14</title>
<path fill="none" stroke="midnightblue" d="M262.946,-229.584C202.923,-224.733 115.876,-213.421 95,-188 84.0811,-174.704 90.3486,-154.77 97.4531,-140.485"/>
<polygon fill="midnightblue" stroke="midnightblue" points="100.56,-142.1 102.304,-131.649 94.4236,-138.731 100.56,-142.1"/>
</g>
<!-- Node15 -->
<g id="node15" class="node"><title>Node15</title>
<g id="a_node15"><a xlink:href="../../df/d83/Backend_8h.html" target="_top" xlink:title="Monitoring/Backend.h">
<polygon fill="none" stroke="black" points="409.5,-168.5 409.5,-187.5 520.5,-187.5 520.5,-168.5 409.5,-168.5"/>
<text text-anchor="middle" x="465" y="-175.5" font-family="Helvetica,sans-Serif" font-size="10.00">Monitoring/Backend.h</text>
</a>
</g>
</g>
<!-- Node7&#45;&gt;Node15 -->
<g id="edge16" class="edge"><title>Node7&#45;&gt;Node15</title>
<path fill="none" stroke="midnightblue" d="M344.659,-224.444C368.402,-215.478 405.909,-201.314 432.738,-191.183"/>
<polygon fill="midnightblue" stroke="midnightblue" points="434.329,-194.324 442.447,-187.516 431.856,-187.775 434.329,-194.324"/>
</g>
<!-- Node19 -->
<g id="node19" class="node"><title>Node19</title>
<g id="a_node19"><a xlink:href="../../dc/de0/DerivedMetrics_8h.html" target="_top" xlink:title="Monitoring/DerivedMetrics.h">
<polygon fill="none" stroke="black" points="252.5,-168.5 252.5,-187.5 391.5,-187.5 391.5,-168.5 252.5,-168.5"/>
<text text-anchor="middle" x="322" y="-175.5" font-family="Helvetica,sans-Serif" font-size="10.00">Monitoring/DerivedMetrics.h</text>
</a>
</g>
</g>
<!-- Node7&#45;&gt;Node19 -->
<g id="edge26" class="edge"><title>Node7&#45;&gt;Node19</title>
<path fill="none" stroke="midnightblue" d="M322,-224.083C322,-217.006 322,-206.861 322,-197.986"/>
<polygon fill="midnightblue" stroke="midnightblue" points="325.5,-197.751 322,-187.751 318.5,-197.751 325.5,-197.751"/>
</g>
<!-- Node20 -->
<g id="node20" class="node"><title>Node20</title>
<g id="a_node20"><a xlink:href="../../df/d93/ProcessMonitor_8h.html" target="_top" xlink:title="Monitoring/ProcessMonitor.h">
<polygon fill="none" stroke="black" points="577.5,-168.5 577.5,-187.5 718.5,-187.5 718.5,-168.5 577.5,-168.5"/>
<text text-anchor="middle" x="648" y="-175.5" font-family="Helvetica,sans-Serif" font-size="10.00">Monitoring/ProcessMonitor.h</text>
</a>
</g>
</g>
<!-- Node7&#45;&gt;Node20 -->
<g id="edge32" class="edge"><title>Node7&#45;&gt;Node20</title>
<path fill="none" stroke="midnightblue" d="M373.656,-224.444C431.479,-214.865 525.113,-199.356 586.623,-189.167"/>
<polygon fill="midnightblue" stroke="midnightblue" points="587.292,-192.604 596.586,-187.516 586.148,-185.698 587.292,-192.604"/>
</g>
<!-- Node15&#45;&gt;Node2 -->
<g id="edge17" class="edge"><title>Node15&#45;&gt;Node2</title>
<path fill="none" stroke="midnightblue" d="M432.337,-168.467C399.874,-159.834 348.749,-145.822 305,-132 251.146,-114.985 189.397,-92.7249 152.604,-79.1638"/>
<polygon fill="midnightblue" stroke="midnightblue" points="153.508,-75.7667 142.915,-75.5811 151.08,-82.3322 153.508,-75.7667"/>
</g>
<!-- Node15&#45;&gt;Node11 -->
<g id="edge18" class="edge"><title>Node15&#45;&gt;Node11</title>
<path fill="none" stroke="midnightblue" d="M469.358,-168.485C479.481,-147.389 501.966,-91.823 478,-56 460.69,-30.1272 425.49,-19.1137 399.758,-14.4355"/>
<polygon fill="midnightblue" stroke="midnightblue" points="400.159,-10.9553 389.733,-12.8404 399.059,-17.8684 400.159,-10.9553"/>
</g>
<!-- Node16 -->
<g id="node16" class="node"><title>Node16</title>
<g id="a_node16"><a xlink:href="../../d9/d92/Metric_8h.html" target="_top" xlink:title="Monitoring/Metric.h">
<polygon fill="none" stroke="black" points="314,-112.5 314,-131.5 414,-131.5 414,-112.5 314,-112.5"/>
<text text-anchor="middle" x="364" y="-119.5" font-family="Helvetica,sans-Serif" font-size="10.00">Monitoring/Metric.h</text>
</a>
</g>
</g>
<!-- Node15&#45;&gt;Node16 -->
<g id="edge19" class="edge"><title>Node15&#45;&gt;Node16</title>
<path fill="none" stroke="midnightblue" d="M448.773,-168.324C432.649,-159.703 407.7,-146.364 389.036,-136.386"/>
<polygon fill="midnightblue" stroke="midnightblue" points="390.656,-133.283 380.187,-131.655 387.356,-139.456 390.656,-133.283"/>
</g>
<!-- Node16&#45;&gt;Node2 -->
<g id="edge21" class="edge"><title>Node16&#45;&gt;Node2</title>
<path fill="none" stroke="midnightblue" d="M325.337,-112.444C277.715,-101.904 197.64,-84.1826 152.854,-74.271"/>
<polygon fill="midnightblue" stroke="midnightblue" points="153.583,-70.8477 143.063,-72.1041 152.071,-77.6823 153.583,-70.8477"/>
</g>
<!-- Node16&#45;&gt;Node3 -->
<g id="edge22" class="edge"><title>Node16&#45;&gt;Node3</title>
<path fill="none" stroke="midnightblue" d="M414.307,-113.913C418.936,-113.265 423.555,-112.619 428,-112 535.609,-97.0068 663.233,-79.4576 721.758,-71.4229"/>
<polygon fill="midnightblue" stroke="midnightblue" points="722.431,-74.8635 731.862,-70.0362 721.479,-67.9286 722.431,-74.8635"/>
</g>
<!-- Node16&#45;&gt;Node11 -->
<g id="edge20" class="edge"><title>Node16&#45;&gt;Node11</title>
<path fill="none" stroke="midnightblue" d="M347.145,-112.347C327.04,-100.767 297.497,-79.006 309,-56 315.728,-42.5432 328.606,-32.0665 340.712,-24.6212"/>
<polygon fill="midnightblue" stroke="midnightblue" points="342.733,-27.4985 349.704,-19.5195 339.279,-21.4101 342.733,-27.4985"/>
</g>
<!-- Node17 -->
<g id="node17" class="node"><title>Node17</title>
<polygon fill="none" stroke="#bfbfbf" points="318,-56.5 318,-75.5 410,-75.5 410,-56.5 318,-56.5"/>
<text text-anchor="middle" x="364" y="-63.5" font-family="Helvetica,sans-Serif" font-size="10.00">boost/variant.hpp</text>
</g>
<!-- Node16&#45;&gt;Node17 -->
<g id="edge23" class="edge"><title>Node16&#45;&gt;Node17</title>
<path fill="none" stroke="midnightblue" d="M364,-112.083C364,-105.006 364,-94.8611 364,-85.9865"/>
<polygon fill="midnightblue" stroke="midnightblue" points="367.5,-85.751 364,-75.7511 360.5,-85.7511 367.5,-85.751"/>
</g>
<!-- Node18 -->
<g id="node18" class="node"><title>Node18</title>
<g id="a_node18"><a xlink:href="../../d9/d33/Tag_8h.html" target="_top" xlink:title="Tag.h">
<polygon fill="none" stroke="black" points="428.5,-56.5 428.5,-75.5 469.5,-75.5 469.5,-56.5 428.5,-56.5"/>
<text text-anchor="middle" x="449" y="-63.5" font-family="Helvetica,sans-Serif" font-size="10.00">Tag.h</text>
</a>
</g>
</g>
<!-- Node16&#45;&gt;Node18 -->
<g id="edge24" class="edge"><title>Node16&#45;&gt;Node18</title>
<path fill="none" stroke="midnightblue" d="M377.657,-112.324C390.916,-103.9 411.268,-90.9709 426.846,-81.0741"/>
<polygon fill="midnightblue" stroke="midnightblue" points="428.813,-83.9711 435.377,-75.6545 425.06,-78.0626 428.813,-83.9711"/>
</g>
<!-- Node18&#45;&gt;Node11 -->
<g id="edge25" class="edge"><title>Node18&#45;&gt;Node11</title>
<path fill="none" stroke="midnightblue" d="M436.147,-56.324C423.784,-47.979 404.87,-35.2122 390.263,-25.3524"/>
<polygon fill="midnightblue" stroke="midnightblue" points="392.068,-22.3483 381.821,-19.6545 388.152,-28.1503 392.068,-22.3483"/>
</g>
<!-- Node19&#45;&gt;Node3 -->
<g id="edge30" class="edge"><title>Node19&#45;&gt;Node3</title>
<path fill="none" stroke="midnightblue" d="M341.799,-168.411C374.13,-154.688 440.526,-127.763 499,-112 577.855,-90.7434 673.209,-76.9942 721.934,-70.802"/>
<polygon fill="midnightblue" stroke="midnightblue" points="722.392,-74.2721 731.882,-69.561 721.526,-67.326 722.392,-74.2721"/>
</g>
<!-- Node19&#45;&gt;Node10 -->
<g id="edge28" class="edge"><title>Node19&#45;&gt;Node10</title>
<path fill="none" stroke="midnightblue" d="M301.718,-168.444C280.653,-159.557 247.483,-145.563 223.514,-135.451"/>
<polygon fill="midnightblue" stroke="midnightblue" points="224.761,-132.179 214.187,-131.516 222.04,-138.628 224.761,-132.179"/>
</g>
<!-- Node19&#45;&gt;Node11 -->
<g id="edge29" class="edge"><title>Node19&#45;&gt;Node11</title>
<path fill="none" stroke="midnightblue" d="M317.3,-168.496C306.596,-147.887 282.83,-94.1645 303,-56 310.74,-41.3555 325.624,-30.5807 339.301,-23.2524"/>
<polygon fill="midnightblue" stroke="midnightblue" points="341.056,-26.2891 348.474,-18.7243 337.958,-20.0121 341.056,-26.2891"/>
</g>
<!-- Node19&#45;&gt;Node14 -->
<g id="edge27" class="edge"><title>Node19&#45;&gt;Node14</title>
<path fill="none" stroke="midnightblue" d="M288.091,-168.444C251.151,-159.122 191.946,-144.183 151.582,-133.997"/>
<polygon fill="midnightblue" stroke="midnightblue" points="152.303,-130.57 141.75,-131.516 150.59,-137.357 152.303,-130.57"/>
</g>
<!-- Node19&#45;&gt;Node16 -->
<g id="edge31" class="edge"><title>Node19&#45;&gt;Node16</title>
<path fill="none" stroke="midnightblue" d="M328.935,-168.083C334.929,-160.377 343.752,-149.033 351.048,-139.653"/>
<polygon fill="midnightblue" stroke="midnightblue" points="353.817,-141.793 357.194,-131.751 348.291,-137.496 353.817,-141.793"/>
</g>
<!-- Node20&#45;&gt;Node3 -->
<g id="edge39" class="edge"><title>Node20&#45;&gt;Node3</title>
<path fill="none" stroke="midnightblue" d="M677.736,-168.375C696.663,-161.437 720.298,-149.852 735,-132 745.851,-118.823 750.505,-99.6857 752.501,-85.5867"/>
<polygon fill="midnightblue" stroke="midnightblue" points="755.989,-85.8919 753.6,-75.5699 749.031,-85.1287 755.989,-85.8919"/>
</g>
<!-- Node20&#45;&gt;Node8 -->
<g id="edge33" class="edge"><title>Node20&#45;&gt;Node8</title>
<path fill="none" stroke="midnightblue" d="M629.461,-168.444C610.377,-159.636 580.425,-145.812 558.564,-135.722"/>
<polygon fill="midnightblue" stroke="midnightblue" points="559.999,-132.529 549.452,-131.516 557.065,-138.885 559.999,-132.529"/>
</g>
<!-- Node20&#45;&gt;Node11 -->
<g id="edge37" class="edge"><title>Node20&#45;&gt;Node11</title>
<path fill="none" stroke="midnightblue" d="M639.578,-168.487C617.819,-146.91 557.21,-89.4272 497,-56 465.728,-38.6388 426.521,-26.0412 399.794,-18.6641"/>
<polygon fill="midnightblue" stroke="midnightblue" points="400.423,-15.2093 389.858,-16.0034 398.613,-21.9711 400.423,-15.2093"/>
</g>
<!-- Node20&#45;&gt;Node12 -->
<g id="edge38" class="edge"><title>Node20&#45;&gt;Node12</title>
<path fill="none" stroke="midnightblue" d="M711.859,-168.465C764.954,-160.906 842.645,-148.778 919.805,-131.814"/>
<polygon fill="midnightblue" stroke="midnightblue" points="920.7,-135.2 929.7,-129.61 919.178,-128.367 920.7,-135.2"/>
</g>
<!-- Node20&#45;&gt;Node16 -->
<g id="edge40" class="edge"><title>Node20&#45;&gt;Node16</title>
<path fill="none" stroke="midnightblue" d="M602.999,-168.444C553.041,-158.944 472.399,-143.611 418.801,-133.42"/>
<polygon fill="midnightblue" stroke="midnightblue" points="419.268,-129.946 408.79,-131.516 417.96,-136.823 419.268,-129.946"/>
</g>
<!-- Node21 -->
<g id="node21" class="node"><title>Node21</title>
<polygon fill="none" stroke="#bfbfbf" points="782.5,-112.5 782.5,-131.5 911.5,-131.5 911.5,-112.5 782.5,-112.5"/>
<text text-anchor="middle" x="847" y="-119.5" font-family="Helvetica,sans-Serif" font-size="10.00">boost/algorithm/string.hpp</text>
</g>
<!-- Node20&#45;&gt;Node21 -->
<g id="edge34" class="edge"><title>Node20&#45;&gt;Node21</title>
<path fill="none" stroke="midnightblue" d="M679.532,-168.444C713.592,-159.201 768.006,-144.436 805.515,-134.257"/>
<polygon fill="midnightblue" stroke="midnightblue" points="806.881,-137.513 815.615,-131.516 805.048,-130.758 806.881,-137.513"/>
</g>
<!-- Node22 -->
<g id="node22" class="node"><title>Node22</title>
<polygon fill="none" stroke="#bfbfbf" points="610,-112.5 610,-131.5 654,-131.5 654,-112.5 610,-112.5"/>
<text text-anchor="middle" x="632" y="-119.5" font-family="Helvetica,sans-Serif" font-size="10.00">mutex</text>
</g>
<!-- Node20&#45;&gt;Node22 -->
<g id="edge35" class="edge"><title>Node20&#45;&gt;Node22</title>
<path fill="none" stroke="midnightblue" d="M645.358,-168.083C643.214,-160.849 640.121,-150.409 637.451,-141.397"/>
<polygon fill="midnightblue" stroke="midnightblue" points="640.79,-140.345 634.593,-131.751 634.078,-142.333 640.79,-140.345"/>
</g>
<!-- Node23 -->
<g id="node23" class="node"><title>Node23</title>
<polygon fill="none" stroke="#bfbfbf" points="672,-112.5 672,-131.5 726,-131.5 726,-112.5 672,-112.5"/>
<text text-anchor="middle" x="699" y="-119.5" font-family="Helvetica,sans-Serif" font-size="10.00">iostream</text>
</g>
<!-- Node20&#45;&gt;Node23 -->
<g id="edge36" class="edge"><title>Node20&#45;&gt;Node23</title>
<path fill="none" stroke="midnightblue" d="M656.422,-168.083C663.848,-160.22 674.852,-148.569 683.812,-139.081"/>
<polygon fill="midnightblue" stroke="midnightblue" points="686.413,-141.424 690.735,-131.751 681.324,-136.618 686.413,-141.424"/>
</g>
</g>
</svg>
        <g id="navigator" transform="translate(0 0)" fill="#404254">
                <rect fill="#f2f5e9" fill-opacity="0.5" stroke="#606060" stroke-width=".5" x="0" y="0" width="60" height="60"/>
                <use id="zoomplus" xlink:href="#zoomPlus" x="17" y="9" onmousedown="handleZoom(evt,'in')"/>
                <use id="zoomminus" xlink:href="#zoomMin" x="42" y="9" onmousedown="handleZoom(evt,'out')"/>
                <use id="reset" xlink:href="#resetDef" x="30" y="36" onmousedown="handleReset()"/>
                <g id="arrowUp" xlink:href="#dirArrow" transform="translate(30 24)" onmousedown="handlePan(0,-1)">
                  <use xlink:href="#rim" fill="#404040">
                        <set attributeName="fill" to="#808080" begin="arrowUp.mouseover" end="arrowUp.mouseout"/>
                  </use>
                  <path fill="none" stroke="white" stroke-width="1.5" d="M0,-3.0v7 M-2.5,-0.5L0,-3.0L2.5,-0.5"/>
                </g>
                <g id="arrowRight" xlink:href="#dirArrow" transform="rotate(90) translate(36 -43)" onmousedown="handlePan(1,0)">
                  <use xlink:href="#rim" fill="#404040">
                        <set attributeName="fill" to="#808080" begin="arrowRight.mouseover" end="arrowRight.mouseout"/>
                  </use>
                  <path fill="none" stroke="white" stroke-width="1.5" d="M0,-3.0v7 M-2.5,-0.5L0,-3.0L2.5,-0.5"/>
                </g>
                <g id="arrowDown" xlink:href="#dirArrow" transform="rotate(180) translate(-30 -48)" onmousedown="handlePan(0,1)">
                  <use xlink:href="#rim" fill="#404040">
                        <set attributeName="fill" to="#808080" begin="arrowDown.mouseover" end="arrowDown.mouseout"/>
                  </use>
                  <path fill="none" stroke="white" stroke-width="1.5" d="M0,-3.0v7 M-2.5,-0.5L0,-3.0L2.5,-0.5"/>
                </g>
                <g id="arrowLeft" xlink:href="#dirArrow" transform="rotate(270) translate(-36 17)" onmousedown="handlePan(-1,0)">
                  <use xlink:href="#rim" fill="#404040">
                        <set attributeName="fill" to="#808080" begin="arrowLeft.mouseover" end="arrowLeft.mouseout"/>
                  </use>
                  <path fill="none" stroke="white" stroke-width="1.5" d="M0,-3.0v7 M-2.5,-0.5L0,-3.0L2.5,-0.5"/>
                </g>
        </g>
        <svg viewBox="0 0 15 15" width="100%" height="30px" preserveAspectRatio="xMaxYMin meet">
         <g id="arrow_out" transform="scale(0.3 0.3)">
          <a xlink:href="testMonitoring_8cxx__incl_org.svg" target="_base">
           <rect id="button" ry="5" rx="5" y="6" x="6" height="38" width="38"
                fill="#f2f5e9" fill-opacity="0.5" stroke="#606060" stroke-width="1.0"/>
           <path id="arrow"
             d="M 11.500037,31.436501 C 11.940474,20.09759 22.043105,11.32322 32.158766,21.979434 L 37.068811,17.246167 C 37.068811,17.246167 37.088388,32 37.088388,32 L 22.160133,31.978069 C 22.160133,31.978069 26.997745,27.140456 26.997745,27.140456 C 18.528582,18.264221 13.291696,25.230495 11.500037,31.436501 z"
             style="fill:#404040;"/>
          </a>
         </g>
        </svg>
</svg>
