<?xml version="1.0" encoding="UTF-8" standalone="no"?>
<!DOCTYPE svg PUBLIC "-//W3C//DTD SVG 1.1//EN"
 "http://www.w3.org/Graphics/SVG/1.1/DTD/svg11.dtd">
<!-- Generated by graphviz version 2.36.0 (20140111.2315)
 -->
<!-- Title: /home/travis/build/AliceO2Group/Monitoring/test/testProcessMonitor.cxx Pages: 1 -->
<svg width="734pt" height="274pt"
 viewBox="0.00 0.00 734.00 274.00" xmlns="http://www.w3.org/2000/svg" xmlns:xlink="http://www.w3.org/1999/xlink">
<g id="graph0" class="graph" transform="scale(1 1) rotate(0) translate(4 270)">
<title>/home/travis/build/AliceO2Group/Monitoring/test/testProcessMonitor.cxx</title>
<!-- Node1 -->
<g id="node1" class="node"><title>Node1</title>
<polygon fill="#bfbfbf" stroke="black" points="330.5,-224.5 330.5,-265.5 473.5,-265.5 473.5,-224.5 330.5,-224.5"/>
<text text-anchor="start" x="338.5" y="-253.5" font-family="Helvetica,sans-Serif" font-size="10.00">/home/travis/build</text>
<text text-anchor="start" x="338.5" y="-242.5" font-family="Helvetica,sans-Serif" font-size="10.00">/AliceO2Group/Monitoring</text>
<text text-anchor="middle" x="402" y="-231.5" font-family="Helvetica,sans-Serif" font-size="10.00">/test/testProcessMonitor.cxx</text>
</g>
<!-- Node2 -->
<g id="node2" class="node"><title>Node2</title>
<g id="a_node2"><a xlink:href="../../df/d93/ProcessMonitor_8h.html" target="_top" xlink:title="Monitoring/ProcessMonitor.h">
<polygon fill="none" stroke="black" points="257.5,-168.5 257.5,-187.5 398.5,-187.5 398.5,-168.5 257.5,-168.5"/>
<text text-anchor="middle" x="328" y="-175.5" font-family="Helvetica,sans-Serif" font-size="10.00">Monitoring/ProcessMonitor.h</text>
</a>
</g>
</g>
<!-- Node1&#45;&gt;Node2 -->
<g id="edge1" class="edge"><title>Node1&#45;&gt;Node2</title>
<path fill="none" stroke="midnightblue" d="M379.798,-224.498C368.779,-214.82 355.665,-203.3 345.389,-194.274"/>
<polygon fill="midnightblue" stroke="midnightblue" points="347.674,-191.622 337.851,-187.652 343.054,-196.882 347.674,-191.622"/>
</g>
<!-- Node14 -->
<g id="node14" class="node"><title>Node14</title>
<polygon fill="none" stroke="#bfbfbf" points="416.5,-168.5 416.5,-187.5 535.5,-187.5 535.5,-168.5 416.5,-168.5"/>
<text text-anchor="middle" x="476" y="-175.5" font-family="Helvetica,sans-Serif" font-size="10.00">boost/test/unit_test.hpp</text>
</g>
<!-- Node1&#45;&gt;Node14 -->
<g id="edge16" class="edge"><title>Node1&#45;&gt;Node14</title>
<path fill="none" stroke="midnightblue" d="M424.202,-224.498C435.221,-214.82 448.335,-203.3 458.611,-194.274"/>
<polygon fill="midnightblue" stroke="midnightblue" points="460.946,-196.882 466.149,-187.652 456.326,-191.622 460.946,-196.882"/>
</g>
<!-- Node3 -->
<g id="node3" class="node"><title>Node3</title>
<polygon fill="none" stroke="#bfbfbf" points="0,-112.5 0,-131.5 46,-131.5 46,-112.5 0,-112.5"/>
<text text-anchor="middle" x="23" y="-119.5" font-family="Helvetica,sans-Serif" font-size="10.00">atomic</text>
</g>
<!-- Node2&#45;&gt;Node3 -->
<g id="edge2" class="edge"><title>Node2&#45;&gt;Node3</title>
<path fill="none" stroke="midnightblue" d="M263.905,-168.483C210.615,-160.935 132.637,-148.813 56.1472,-132.062"/>
<polygon fill="midnightblue" stroke="midnightblue" points="56.8636,-128.636 46.343,-129.888 55.3477,-135.47 56.8636,-128.636"/>
</g>
<!-- Node4 -->
<g id="node4" class="node"><title>Node4</title>
<polygon fill="none" stroke="#bfbfbf" points="64.5,-112.5 64.5,-131.5 193.5,-131.5 193.5,-112.5 64.5,-112.5"/>
<text text-anchor="middle" x="129" y="-119.5" font-family="Helvetica,sans-Serif" font-size="10.00">boost/algorithm/string.hpp</text>
</g>
<!-- Node2&#45;&gt;Node4 -->
<g id="edge3" class="edge"><title>Node2&#45;&gt;Node4</title>
<path fill="none" stroke="midnightblue" d="M296.468,-168.444C262.408,-159.201 207.994,-144.436 170.485,-134.257"/>
<polygon fill="midnightblue" stroke="midnightblue" points="170.952,-130.758 160.385,-131.516 169.119,-137.513 170.952,-130.758"/>
</g>
<!-- Node5 -->
<g id="node5" class="node"><title>Node5</title>
<polygon fill="none" stroke="#bfbfbf" points="212,-112.5 212,-131.5 256,-131.5 256,-112.5 212,-112.5"/>
<text text-anchor="middle" x="234" y="-119.5" font-family="Helvetica,sans-Serif" font-size="10.00">mutex</text>
</g>
<!-- Node2&#45;&gt;Node5 -->
<g id="edge4" class="edge"><title>Node2&#45;&gt;Node5</title>
<path fill="none" stroke="midnightblue" d="M312.897,-168.324C298.097,-159.822 275.306,-146.729 258.018,-136.797"/>
<polygon fill="midnightblue" stroke="midnightblue" points="259.48,-133.601 249.065,-131.655 255.993,-139.671 259.48,-133.601"/>
</g>
<!-- Node6 -->
<g id="node6" class="node"><title>Node6</title>
<polygon fill="none" stroke="#bfbfbf" points="274,-112.5 274,-131.5 328,-131.5 328,-112.5 274,-112.5"/>
<text text-anchor="middle" x="301" y="-119.5" font-family="Helvetica,sans-Serif" font-size="10.00">iostream</text>
</g>
<!-- Node2&#45;&gt;Node6 -->
<g id="edge5" class="edge"><title>Node2&#45;&gt;Node6</title>
<path fill="none" stroke="midnightblue" d="M323.541,-168.083C319.846,-160.691 314.477,-149.953 309.906,-140.811"/>
<polygon fill="midnightblue" stroke="midnightblue" points="312.978,-139.13 305.376,-131.751 306.717,-142.261 312.978,-139.13"/>
</g>
<!-- Node7 -->
<g id="node7" class="node"><title>Node7</title>
<polygon fill="none" stroke="#bfbfbf" points="462.5,-0.5 462.5,-19.5 503.5,-19.5 503.5,-0.5 462.5,-0.5"/>
<text text-anchor="middle" x="483" y="-7.5" font-family="Helvetica,sans-Serif" font-size="10.00">string</text>
</g>
<!-- Node2&#45;&gt;Node7 -->
<g id="edge6" class="edge"><title>Node2&#45;&gt;Node7</title>
<path fill="none" stroke="midnightblue" d="M331.432,-168.355C340.281,-146.962 365.746,-90.7703 402,-56 416.752,-41.8515 436.815,-30.6621 453.282,-22.9798"/>
<polygon fill="midnightblue" stroke="midnightblue" points="454.791,-26.1392 462.495,-18.866 451.937,-19.7475 454.791,-26.1392"/>
</g>
<!-- Node8 -->
<g id="node8" class="node"><title>Node8</title>
<polygon fill="none" stroke="#bfbfbf" points="384,-112.5 384,-131.5 428,-131.5 428,-112.5 384,-112.5"/>
<text text-anchor="middle" x="406" y="-119.5" font-family="Helvetica,sans-Serif" font-size="10.00">thread</text>
</g>
<!-- Node2&#45;&gt;Node8 -->
<g id="edge7" class="edge"><title>Node2&#45;&gt;Node8</title>
<path fill="none" stroke="midnightblue" d="M340.532,-168.324C352.586,-159.979 371.027,-147.212 385.269,-137.352"/>
<polygon fill="midnightblue" stroke="midnightblue" points="387.269,-140.224 393.499,-131.655 383.285,-134.469 387.269,-140.224"/>
</g>
<!-- Node9 -->
<g id="node9" class="node"><title>Node9</title>
<polygon fill="none" stroke="#bfbfbf" points="411,-56.5 411,-75.5 455,-75.5 455,-56.5 411,-56.5"/>
<text text-anchor="middle" x="433" y="-63.5" font-family="Helvetica,sans-Serif" font-size="10.00">vector</text>
</g>
<!-- Node2&#45;&gt;Node9 -->
<g id="edge8" class="edge"><title>Node2&#45;&gt;Node9</title>
<path fill="none" stroke="midnightblue" d="M379.53,-168.44C400.733,-162.104 423.268,-151.098 436,-132 444.999,-118.502 442.958,-99.6926 439.43,-85.7792"/>
<polygon fill="midnightblue" stroke="midnightblue" points="442.684,-84.4435 436.466,-75.8655 435.978,-86.4491 442.684,-84.4435"/>
</g>
<!-- Node10 -->
<g id="node10" class="node"><title>Node10</title>
<g id="a_node10"><a xlink:href="../../d9/d92/Metric_8h.html" target="_top" xlink:title="Monitoring/Metric.h">
<polygon fill="none" stroke="black" points="484,-112.5 484,-131.5 584,-131.5 584,-112.5 484,-112.5"/>
<text text-anchor="middle" x="534" y="-119.5" font-family="Helvetica,sans-Serif" font-size="10.00">Monitoring/Metric.h</text>
</a>
</g>
</g>
<!-- Node2&#45;&gt;Node10 -->
<g id="edge9" class="edge"><title>Node2&#45;&gt;Node10</title>
<path fill="none" stroke="midnightblue" d="M360.641,-168.444C396.05,-159.162 452.709,-144.309 491.553,-134.127"/>
<polygon fill="midnightblue" stroke="midnightblue" points="492.726,-137.438 501.511,-131.516 490.951,-130.667 492.726,-137.438"/>
</g>
<!-- Node10&#45;&gt;Node7 -->
<g id="edge10" class="edge"><title>Node10&#45;&gt;Node7</title>
<path fill="none" stroke="midnightblue" d="M526.426,-112.258C519.247,-103.577 508.605,-89.6303 502,-76 494.79,-61.1218 489.768,-42.9757 486.706,-29.6413"/>
<polygon fill="midnightblue" stroke="midnightblue" points="490.104,-28.7959 484.589,-19.7495 483.259,-30.2605 490.104,-28.7959"/>
</g>
<!-- Node10&#45;&gt;Node9 -->
<g id="edge12" class="edge"><title>Node10&#45;&gt;Node9</title>
<path fill="none" stroke="midnightblue" d="M517.773,-112.324C501.649,-103.703 476.7,-90.3643 458.036,-80.3855"/>
<polygon fill="midnightblue" stroke="midnightblue" points="459.656,-77.283 449.187,-75.6545 456.356,-83.456 459.656,-77.283"/>
</g>
<!-- Node11 -->
<g id="node11" class="node"><title>Node11</title>
<polygon fill="none" stroke="#bfbfbf" points="511,-56.5 511,-75.5 557,-75.5 557,-56.5 511,-56.5"/>
<text text-anchor="middle" x="534" y="-63.5" font-family="Helvetica,sans-Serif" font-size="10.00">chrono</text>
</g>
<!-- Node10&#45;&gt;Node11 -->
<g id="edge11" class="edge"><title>Node10&#45;&gt;Node11</title>
<path fill="none" stroke="midnightblue" d="M534,-112.083C534,-105.006 534,-94.8611 534,-85.9865"/>
<polygon fill="midnightblue" stroke="midnightblue" points="537.5,-85.751 534,-75.7511 530.5,-85.7511 537.5,-85.751"/>
</g>
<!-- Node12 -->
<g id="node12" class="node"><title>Node12</title>
<polygon fill="none" stroke="#bfbfbf" points="575,-56.5 575,-75.5 667,-75.5 667,-56.5 575,-56.5"/>
<text text-anchor="middle" x="621" y="-63.5" font-family="Helvetica,sans-Serif" font-size="10.00">boost/variant.hpp</text>
</g>
<!-- Node10&#45;&gt;Node12 -->
<g id="edge13" class="edge"><title>Node10&#45;&gt;Node12</title>
<path fill="none" stroke="midnightblue" d="M547.978,-112.324C561.55,-103.9 582.38,-90.9709 598.325,-81.0741"/>
<polygon fill="midnightblue" stroke="midnightblue" points="600.406,-83.9019 607.057,-75.6545 596.714,-77.9544 600.406,-83.9019"/>
</g>
<!-- Node13 -->
<g id="node13" class="node"><title>Node13</title>
<g id="a_node13"><a xlink:href="../../d9/d33/Tag_8h.html" target="_top" xlink:title="Tag.h">
<polygon fill="none" stroke="black" points="685.5,-56.5 685.5,-75.5 726.5,-75.5 726.5,-56.5 685.5,-56.5"/>
<text text-anchor="middle" x="706" y="-63.5" font-family="Helvetica,sans-Serif" font-size="10.00">Tag.h</text>
</a>
</g>
</g>
<!-- Node10&#45;&gt;Node13 -->
<g id="edge14" class="edge"><title>Node10&#45;&gt;Node13</title>
<path fill="none" stroke="midnightblue" d="M561.254,-112.444C592.367,-102.676 643.129,-86.7385 675.527,-76.5673"/>
<polygon fill="midnightblue" stroke="midnightblue" points="676.859,-79.8174 685.352,-73.4826 674.762,-73.1388 676.859,-79.8174"/>
</g>
<!-- Node13&#45;&gt;Node7 -->
<g id="edge15" class="edge"><title>Node13&#45;&gt;Node7</title>
<path fill="none" stroke="midnightblue" d="M685.391,-58.6331C682.254,-57.7174 679.048,-56.8116 676,-56 619.019,-40.8258 551.83,-25.8001 513.64,-17.5252"/>
<polygon fill="midnightblue" stroke="midnightblue" points="514.183,-14.062 503.67,-15.3758 512.708,-20.9047 514.183,-14.062"/>
</g>
</g>
</svg>
