<?xml version="1.0" encoding="UTF-8" standalone="no"?>
<!DOCTYPE svg PUBLIC "-//W3C//DTD SVG 1.1//EN"
 "http://www.w3.org/Graphics/SVG/1.1/DTD/svg11.dtd">
<!-- Generated by graphviz version 2.36.0 (20140111.2315)
 -->
<!-- Title: /home/travis/build/AliceO2Group/Monitoring/src/MonitoringFactory.cxx Pages: 1 -->
<svg width="1488pt" height="398pt"
 viewBox="0.00 0.00 1488.25 398.00" xmlns="http://www.w3.org/2000/svg" xmlns:xlink="http://www.w3.org/1999/xlink">
<g id="graph0" class="graph" transform="scale(1 1) rotate(0) translate(4 394)">
<title>/home/travis/build/AliceO2Group/Monitoring/src/MonitoringFactory.cxx</title>
<!-- Node1 -->
<g id="node1" class="node"><title>Node1</title>
<polygon fill="#bfbfbf" stroke="black" points="865.745,-348.5 865.745,-389.5 998.745,-389.5 998.745,-348.5 865.745,-348.5"/>
<text text-anchor="start" x="873.745" y="-377.5" font-family="Helvetica,sans-Serif" font-size="10.00">/home/travis/build</text>
<text text-anchor="start" x="873.745" y="-366.5" font-family="Helvetica,sans-Serif" font-size="10.00">/AliceO2Group/Monitoring</text>
<text text-anchor="middle" x="932.245" y="-355.5" font-family="Helvetica,sans-Serif" font-size="10.00">/src/MonitoringFactory.cxx</text>
</g>
<!-- Node2 -->
<g id="node2" class="node"><title>Node2</title>
<g id="a_node2"><a xlink:href="../../df/d4e/MonitoringFactory_8h.html" target="_top" xlink:title="Monitoring/MonitoringFactory.h">
<polygon fill="none" stroke="black" points="437.745,-292.5 437.745,-311.5 588.745,-311.5 588.745,-292.5 437.745,-292.5"/>
<text text-anchor="middle" x="513.245" y="-299.5" font-family="Helvetica,sans-Serif" font-size="10.00">Monitoring/MonitoringFactory.h</text>
</a>
</g>
</g>
<!-- Node1&#45;&gt;Node2 -->
<g id="edge1" class="edge"><title>Node1&#45;&gt;Node2</title>
<path fill="none" stroke="midnightblue" d="M865.39,-357.629C786.562,-345.4 656.422,-325.211 578.359,-313.101"/>
<polygon fill="midnightblue" stroke="midnightblue" points="578.587,-309.595 568.168,-311.52 577.513,-316.512 578.587,-309.595"/>
</g>
<!-- Node19 -->
<g id="node19" class="node"><title>Node19</title>
<polygon fill="none" stroke="#bfbfbf" points="696.745,-112.5 696.745,-131.5 825.745,-131.5 825.745,-112.5 696.745,-112.5"/>
<text text-anchor="middle" x="761.245" y="-119.5" font-family="Helvetica,sans-Serif" font-size="10.00">boost/algorithm/string.hpp</text>
</g>
<!-- Node1&#45;&gt;Node19 -->
<g id="edge39" class="edge"><title>Node1&#45;&gt;Node19</title>
<path fill="none" stroke="midnightblue" d="M865.52,-357.691C837.179,-349.867 806.337,-336.123 787.245,-312 747.369,-261.613 753,-179.052 758.065,-142.019"/>
<polygon fill="midnightblue" stroke="midnightblue" points="761.592,-142.106 759.632,-131.694 754.672,-141.056 761.592,-142.106"/>
</g>
<!-- Node22 -->
<g id="node22" class="node"><title>Node22</title>
<polygon fill="none" stroke="#bfbfbf" points="796.745,-292.5 796.745,-311.5 855.745,-311.5 855.745,-292.5 796.745,-292.5"/>
<text text-anchor="middle" x="826.245" y="-299.5" font-family="Helvetica,sans-Serif" font-size="10.00">functional</text>
</g>
<!-- Node1&#45;&gt;Node22 -->
<g id="edge37" class="edge"><title>Node1&#45;&gt;Node22</title>
<path fill="none" stroke="midnightblue" d="M900.442,-348.498C883.878,-338.34 864.006,-326.155 848.998,-316.952"/>
<polygon fill="midnightblue" stroke="midnightblue" points="850.71,-313.896 840.356,-311.652 847.051,-319.864 850.71,-313.896"/>
</g>
<!-- Node23 -->
<g id="node23" class="node"><title>Node23</title>
<polygon fill="none" stroke="#bfbfbf" points="873.745,-292.5 873.745,-311.5 932.745,-311.5 932.745,-292.5 873.745,-292.5"/>
<text text-anchor="middle" x="903.245" y="-299.5" font-family="Helvetica,sans-Serif" font-size="10.00">stdexcept</text>
</g>
<!-- Node1&#45;&gt;Node23 -->
<g id="edge38" class="edge"><title>Node1&#45;&gt;Node23</title>
<path fill="none" stroke="midnightblue" d="M923.544,-348.498C919.654,-339.778 915.097,-329.563 911.287,-321.024"/>
<polygon fill="midnightblue" stroke="midnightblue" points="914.377,-319.359 907.106,-311.652 907.984,-322.211 914.377,-319.359"/>
</g>
<!-- Node24 -->
<g id="node24" class="node"><title>Node24</title>
<g id="a_node24"><a xlink:href="../../df/de7/MonLogger_8h.html" target="_top" xlink:title="MonLogger.h">
<polygon fill="none" stroke="black" points="965.745,-174.5 965.745,-193.5 1038.75,-193.5 1038.75,-174.5 965.745,-174.5"/>
<text text-anchor="middle" x="1002.25" y="-181.5" font-family="Helvetica,sans-Serif" font-size="10.00">MonLogger.h</text>
</a>
</g>
</g>
<!-- Node1&#45;&gt;Node24 -->
<g id="edge40" class="edge"><title>Node1&#45;&gt;Node24</title>
<path fill="none" stroke="midnightblue" d="M941.534,-348.369C946.559,-337.656 952.828,-324.138 958.245,-312 969.281,-287.273 973.222,-281.531 982.245,-256 988.435,-238.489 994.03,-218.031 997.718,-203.586"/>
<polygon fill="midnightblue" stroke="midnightblue" points="1001.12,-204.409 1000.15,-193.859 994.328,-202.715 1001.12,-204.409"/>
</g>
<!-- Node26 -->
<g id="node26" class="node"><title>Node26</title>
<g id="a_node26"><a xlink:href="../../d7/d79/UriParser_8h.html" target="_top" xlink:title="UriParser/UriParser.h">
<polygon fill="none" stroke="black" points="1095.25,-174.5 1095.25,-193.5 1205.25,-193.5 1205.25,-174.5 1095.25,-174.5"/>
<text text-anchor="middle" x="1150.25" y="-181.5" font-family="Helvetica,sans-Serif" font-size="10.00">UriParser/UriParser.h</text>
</a>
</g>
</g>
<!-- Node1&#45;&gt;Node26 -->
<g id="edge44" class="edge"><title>Node1&#45;&gt;Node26</title>
<path fill="none" stroke="midnightblue" d="M955.575,-348.416C999.281,-311.727 1092.63,-233.365 1132.06,-200.262"/>
<polygon fill="midnightblue" stroke="midnightblue" points="1134.63,-202.676 1140.04,-193.566 1130.13,-197.315 1134.63,-202.676"/>
</g>
<!-- Node28 -->
<g id="node28" class="node"><title>Node28</title>
<g id="a_node28"><a xlink:href="../../d9/de4/InfoLoggerBackend_8h.html" target="_top" xlink:title="Backends/InfoLoggerBackend.h">
<polygon fill="none" stroke="black" points="818.745,-236.5 818.745,-255.5 973.745,-255.5 973.745,-236.5 818.745,-236.5"/>
<text text-anchor="middle" x="896.245" y="-243.5" font-family="Helvetica,sans-Serif" font-size="10.00">Backends/InfoLoggerBackend.h</text>
</a>
</g>
</g>
<!-- Node1&#45;&gt;Node28 -->
<g id="edge48" class="edge"><title>Node1&#45;&gt;Node28</title>
<path fill="none" stroke="midnightblue" d="M939.816,-348.213C944.643,-332.425 948.72,-310.045 941.245,-292 936.325,-280.121 926.579,-269.743 917.411,-261.956"/>
<polygon fill="midnightblue" stroke="midnightblue" points="919.328,-259.01 909.309,-255.564 914.993,-264.506 919.328,-259.01"/>
</g>
<!-- Node29 -->
<g id="node29" class="node"><title>Node29</title>
<g id="a_node29"><a xlink:href="../../d4/d57/Flume_8h.html" target="_top" xlink:title="Backends/Flume.h">
<polygon fill="none" stroke="black" points="1184.25,-236.5 1184.25,-255.5 1282.25,-255.5 1282.25,-236.5 1184.25,-236.5"/>
<text text-anchor="middle" x="1233.25" y="-243.5" font-family="Helvetica,sans-Serif" font-size="10.00">Backends/Flume.h</text>
</a>
</g>
</g>
<!-- Node1&#45;&gt;Node29 -->
<g id="edge51" class="edge"><title>Node1&#45;&gt;Node29</title>
<path fill="none" stroke="midnightblue" d="M998.802,-349.968C1032.42,-340.103 1073.54,-326.869 1109.25,-312 1145.5,-296.903 1185.38,-274.974 1209.87,-260.849"/>
<polygon fill="midnightblue" stroke="midnightblue" points="1211.88,-263.726 1218.76,-255.67 1208.36,-257.677 1211.88,-263.726"/>
</g>
<!-- Node3 -->
<g id="node3" class="node"><title>Node3</title>
<g id="a_node3"><a xlink:href="../../d0/d98/Monitoring_8h.html" target="_top" xlink:title="Monitoring/Monitoring.h">
<polygon fill="none" stroke="black" points="295.245,-236.5 295.245,-255.5 413.245,-255.5 413.245,-236.5 295.245,-236.5"/>
<text text-anchor="middle" x="354.245" y="-243.5" font-family="Helvetica,sans-Serif" font-size="10.00">Monitoring/Monitoring.h</text>
</a>
</g>
</g>
<!-- Node2&#45;&gt;Node3 -->
<g id="edge2" class="edge"><title>Node2&#45;&gt;Node3</title>
<path fill="none" stroke="midnightblue" d="M488.051,-292.444C461.303,-283.359 418.843,-268.939 388.94,-258.783"/>
<polygon fill="midnightblue" stroke="midnightblue" points="389.916,-255.418 379.322,-255.516 387.665,-262.046 389.916,-255.418"/>
</g>
<!-- Node4 -->
<g id="node4" class="node"><title>Node4</title>
<polygon fill="none" stroke="#bfbfbf" points="276.245,-112.5 276.245,-131.5 322.245,-131.5 322.245,-112.5 276.245,-112.5"/>
<text text-anchor="middle" x="299.245" y="-119.5" font-family="Helvetica,sans-Serif" font-size="10.00">atomic</text>
</g>
<!-- Node3&#45;&gt;Node4 -->
<g id="edge3" class="edge"><title>Node3&#45;&gt;Node4</title>
<path fill="none" stroke="midnightblue" d="M294.976,-241.743C234.149,-237.015 145.484,-225.797 124.245,-200 115.206,-189.02 115.511,-179.225 124.245,-168 164.228,-116.615 203.281,-148.566 266.245,-132 266.346,-131.974 266.447,-131.947 266.547,-131.92"/>
<polygon fill="midnightblue" stroke="midnightblue" points="267.423,-135.309 276.181,-129.347 265.616,-128.547 267.423,-135.309"/>
</g>
<!-- Node5 -->
<g id="node5" class="node"><title>Node5</title>
<polygon fill="none" stroke="#bfbfbf" points="882.245,-56.5 882.245,-75.5 928.245,-75.5 928.245,-56.5 882.245,-56.5"/>
<text text-anchor="middle" x="905.245" y="-63.5" font-family="Helvetica,sans-Serif" font-size="10.00">chrono</text>
</g>
<!-- Node3&#45;&gt;Node5 -->
<g id="edge4" class="edge"><title>Node3&#45;&gt;Node5</title>
<path fill="none" stroke="midnightblue" d="M413.298,-239.908C480.252,-233.279 584.494,-220.109 618.245,-200 660.942,-174.561 644.997,-138.176 687.245,-112 745.181,-76.1037 826.754,-68.3092 871.9,-66.9335"/>
<polygon fill="midnightblue" stroke="midnightblue" points="872.103,-70.4301 882.025,-66.7153 871.952,-63.4317 872.103,-70.4301"/>
</g>
<!-- Node6 -->
<g id="node6" class="node"><title>Node6</title>
<polygon fill="none" stroke="#bfbfbf" points="133.745,-174.5 133.745,-193.5 168.745,-193.5 168.745,-174.5 133.745,-174.5"/>
<text text-anchor="middle" x="151.245" y="-181.5" font-family="Helvetica,sans-Serif" font-size="10.00">map</text>
</g>
<!-- Node3&#45;&gt;Node6 -->
<g id="edge5" class="edge"><title>Node3&#45;&gt;Node6</title>
<path fill="none" stroke="midnightblue" d="M306.162,-236.494C269.906,-229.2 219.395,-217.135 177.245,-200 176.023,-199.503 174.789,-198.958 173.556,-198.379"/>
<polygon fill="midnightblue" stroke="midnightblue" points="174.858,-195.108 164.384,-193.514 171.578,-201.292 174.858,-195.108"/>
</g>
<!-- Node7 -->
<g id="node7" class="node"><title>Node7</title>
<polygon fill="none" stroke="#bfbfbf" points="28.2454,-112.5 28.2454,-131.5 80.2454,-131.5 80.2454,-112.5 28.2454,-112.5"/>
<text text-anchor="middle" x="54.2454" y="-119.5" font-family="Helvetica,sans-Serif" font-size="10.00">memory</text>
</g>
<!-- Node3&#45;&gt;Node7 -->
<g id="edge6" class="edge"><title>Node3&#45;&gt;Node7</title>
<path fill="none" stroke="midnightblue" d="M295.1,-245.362C243.812,-243.132 169.367,-233.576 114.245,-200 90.7981,-185.718 72.9992,-158.677 63.0895,-140.744"/>
<polygon fill="midnightblue" stroke="midnightblue" points="66.1662,-139.075 58.4099,-131.857 59.9724,-142.336 66.1662,-139.075"/>
</g>
<!-- Node8 -->
<g id="node8" class="node"><title>Node8</title>
<polygon fill="none" stroke="#bfbfbf" points="704.745,-0.5 704.745,-19.5 745.745,-19.5 745.745,-0.5 704.745,-0.5"/>
<text text-anchor="middle" x="725.245" y="-7.5" font-family="Helvetica,sans-Serif" font-size="10.00">string</text>
</g>
<!-- Node3&#45;&gt;Node8 -->
<g id="edge7" class="edge"><title>Node3&#45;&gt;Node8</title>
<path fill="none" stroke="midnightblue" d="M295.244,-244.002C213.821,-241.432 72.688,-232.301 34.2454,-200 3.37986,-174.065 -11.2075,-144.791 12.2454,-112 57.0521,-49.3533 100.844,-71.7104 176.245,-56 370.425,-15.5416 610.328,-11.1028 694.404,-10.8754"/>
<polygon fill="midnightblue" stroke="midnightblue" points="694.547,-14.3754 704.545,-10.8671 694.542,-7.3754 694.547,-14.3754"/>
</g>
<!-- Node9 -->
<g id="node9" class="node"><title>Node9</title>
<polygon fill="none" stroke="#bfbfbf" points="596.245,-112.5 596.245,-131.5 640.245,-131.5 640.245,-112.5 596.245,-112.5"/>
<text text-anchor="middle" x="618.245" y="-119.5" font-family="Helvetica,sans-Serif" font-size="10.00">thread</text>
</g>
<!-- Node3&#45;&gt;Node9 -->
<g id="edge8" class="edge"><title>Node3&#45;&gt;Node9</title>
<path fill="none" stroke="midnightblue" d="M413.489,-240.936C476.007,-235.462 569.06,-223.555 595.245,-200 611.582,-185.304 616.523,-159.546 617.906,-141.899"/>
<polygon fill="midnightblue" stroke="midnightblue" points="621.414,-141.825 618.386,-131.672 614.421,-141.497 621.414,-141.825"/>
</g>
<!-- Node10 -->
<g id="node10" class="node"><title>Node10</title>
<polygon fill="none" stroke="#bfbfbf" points="548.245,-174.5 548.245,-193.5 586.245,-193.5 586.245,-174.5 548.245,-174.5"/>
<text text-anchor="middle" x="567.245" y="-181.5" font-family="Helvetica,sans-Serif" font-size="10.00">tuple</text>
</g>
<!-- Node3&#45;&gt;Node10 -->
<g id="edge9" class="edge"><title>Node3&#45;&gt;Node10</title>
<path fill="none" stroke="midnightblue" d="M402.452,-236.472C440.128,-229.034 493.44,-216.793 538.245,-200 539.851,-199.398 541.482,-198.729 543.11,-198.017"/>
<polygon fill="midnightblue" stroke="midnightblue" points="544.712,-201.131 552.204,-193.639 541.676,-194.823 544.712,-201.131"/>
</g>
<!-- Node11 -->
<g id="node11" class="node"><title>Node11</title>
<polygon fill="none" stroke="#bfbfbf" points="174.745,-112.5 174.745,-131.5 257.745,-131.5 257.745,-112.5 174.745,-112.5"/>
<text text-anchor="middle" x="216.245" y="-119.5" font-family="Helvetica,sans-Serif" font-size="10.00">unordered_map</text>
</g>
<!-- Node3&#45;&gt;Node11 -->
<g id="edge10" class="edge"><title>Node3&#45;&gt;Node11</title>
<path fill="none" stroke="midnightblue" d="M354.436,-236.43C354.315,-220.842 351.843,-187.653 334.245,-168 323.667,-156.187 287.37,-143.356 257.795,-134.43"/>
<polygon fill="midnightblue" stroke="midnightblue" points="258.652,-131.034 248.07,-131.559 256.67,-137.747 258.652,-131.034"/>
</g>
<!-- Node12 -->
<g id="node12" class="node"><title>Node12</title>
<polygon fill="none" stroke="#bfbfbf" points="240.245,-56.5 240.245,-75.5 284.245,-75.5 284.245,-56.5 240.245,-56.5"/>
<text text-anchor="middle" x="262.245" y="-63.5" font-family="Helvetica,sans-Serif" font-size="10.00">vector</text>
</g>
<!-- Node3&#45;&gt;Node12 -->
<g id="edge11" class="edge"><title>Node3&#45;&gt;Node12</title>
<path fill="none" stroke="midnightblue" d="M295.158,-240.1C225.464,-233.508 114.495,-220.224 78.2454,-200 43.3031,-180.506 33.2405,-169.485 19.2454,-132 16.1364,-123.673 13.561,-118.834 19.2454,-112 45.7112,-80.1832 170.285,-70.7647 230.072,-68.0549"/>
<polygon fill="midnightblue" stroke="midnightblue" points="230.26,-71.5502 240.106,-67.6359 229.968,-64.5563 230.26,-71.5502"/>
</g>
<!-- Node13 -->
<g id="node13" class="node"><title>Node13</title>
<g id="a_node13"><a xlink:href="../../df/d83/Backend_8h.html" target="_top" xlink:title="Monitoring/Backend.h">
<polygon fill="none" stroke="black" points="817.745,-174.5 817.745,-193.5 928.745,-193.5 928.745,-174.5 817.745,-174.5"/>
<text text-anchor="middle" x="873.245" y="-181.5" font-family="Helvetica,sans-Serif" font-size="10.00">Monitoring/Backend.h</text>
</a>
</g>
</g>
<!-- Node3&#45;&gt;Node13 -->
<g id="edge12" class="edge"><title>Node3&#45;&gt;Node13</title>
<path fill="none" stroke="midnightblue" d="M413.276,-238.176C510.883,-226.892 705.24,-204.423 807.247,-192.63"/>
<polygon fill="midnightblue" stroke="midnightblue" points="807.89,-196.079 817.422,-191.454 807.086,-189.125 807.89,-196.079"/>
</g>
<!-- Node17 -->
<g id="node17" class="node"><title>Node17</title>
<g id="a_node17"><a xlink:href="../../dc/de0/DerivedMetrics_8h.html" target="_top" xlink:title="Monitoring/DerivedMetrics.h">
<polygon fill="none" stroke="black" points="186.745,-174.5 186.745,-193.5 325.745,-193.5 325.745,-174.5 186.745,-174.5"/>
<text text-anchor="middle" x="256.245" y="-181.5" font-family="Helvetica,sans-Serif" font-size="10.00">Monitoring/DerivedMetrics.h</text>
</a>
</g>
</g>
<!-- Node3&#45;&gt;Node17 -->
<g id="edge22" class="edge"><title>Node3&#45;&gt;Node17</title>
<path fill="none" stroke="midnightblue" d="M340.204,-236.403C324.194,-226.601 297.795,-210.439 278.871,-198.853"/>
<polygon fill="midnightblue" stroke="midnightblue" points="280.616,-195.817 270.26,-193.581 276.961,-201.787 280.616,-195.817"/>
</g>
<!-- Node18 -->
<g id="node18" class="node"><title>Node18</title>
<g id="a_node18"><a xlink:href="../../df/d93/ProcessMonitor_8h.html" target="_top" xlink:title="Monitoring/ProcessMonitor.h">
<polygon fill="none" stroke="black" points="388.745,-174.5 388.745,-193.5 529.745,-193.5 529.745,-174.5 388.745,-174.5"/>
<text text-anchor="middle" x="459.245" y="-181.5" font-family="Helvetica,sans-Serif" font-size="10.00">Monitoring/ProcessMonitor.h</text>
</a>
</g>
</g>
<!-- Node3&#45;&gt;Node18 -->
<g id="edge28" class="edge"><title>Node3&#45;&gt;Node18</title>
<path fill="none" stroke="midnightblue" d="M369.289,-236.403C386.521,-226.557 414.985,-210.291 435.279,-198.695"/>
<polygon fill="midnightblue" stroke="midnightblue" points="437.283,-201.581 444.229,-193.581 433.81,-195.503 437.283,-201.581"/>
</g>
<!-- Node13&#45;&gt;Node5 -->
<g id="edge13" class="edge"><title>Node13&#45;&gt;Node5</title>
<path fill="none" stroke="midnightblue" d="M875.651,-174.281C880.842,-155.463 893.191,-110.697 900.186,-85.3399"/>
<polygon fill="midnightblue" stroke="midnightblue" points="903.614,-86.0755 902.899,-75.5048 896.866,-84.2139 903.614,-86.0755"/>
</g>
<!-- Node13&#45;&gt;Node8 -->
<g id="edge14" class="edge"><title>Node13&#45;&gt;Node8</title>
<path fill="none" stroke="midnightblue" d="M869.505,-174.151C863.35,-160.152 850.17,-132.397 834.245,-112 807.357,-77.5601 768.338,-44.4835 745.009,-26.0401"/>
<polygon fill="midnightblue" stroke="midnightblue" points="746.932,-23.102 736.893,-19.7156 742.629,-28.6233 746.932,-23.102"/>
</g>
<!-- Node14 -->
<g id="node14" class="node"><title>Node14</title>
<g id="a_node14"><a xlink:href="../../d9/d92/Metric_8h.html" target="_top" xlink:title="Monitoring/Metric.h">
<polygon fill="none" stroke="black" points="440.245,-112.5 440.245,-131.5 540.245,-131.5 540.245,-112.5 440.245,-112.5"/>
<text text-anchor="middle" x="490.245" y="-119.5" font-family="Helvetica,sans-Serif" font-size="10.00">Monitoring/Metric.h</text>
</a>
</g>
</g>
<!-- Node13&#45;&gt;Node14 -->
<g id="edge15" class="edge"><title>Node13&#45;&gt;Node14</title>
<path fill="none" stroke="midnightblue" d="M818.778,-174.467C747.769,-163.343 623.974,-143.95 550.311,-132.41"/>
<polygon fill="midnightblue" stroke="midnightblue" points="550.682,-128.925 540.261,-130.835 549.598,-135.841 550.682,-128.925"/>
</g>
<!-- Node14&#45;&gt;Node5 -->
<g id="edge17" class="edge"><title>Node14&#45;&gt;Node5</title>
<path fill="none" stroke="midnightblue" d="M540.304,-114.486C626.193,-103.31 799.386,-80.7745 872.009,-71.3248"/>
<polygon fill="midnightblue" stroke="midnightblue" points="872.507,-74.7896 881.972,-70.0284 871.603,-67.8481 872.507,-74.7896"/>
</g>
<!-- Node14&#45;&gt;Node8 -->
<g id="edge16" class="edge"><title>Node14&#45;&gt;Node8</title>
<path fill="none" stroke="midnightblue" d="M463.181,-112.472C431.687,-101.186 386.484,-79.9066 407.245,-56 444.281,-13.3541 621.867,-10.0241 694.342,-10.4904"/>
<polygon fill="midnightblue" stroke="midnightblue" points="694.607,-13.993 704.639,-10.5874 694.673,-6.99328 694.607,-13.993"/>
</g>
<!-- Node14&#45;&gt;Node12 -->
<g id="edge18" class="edge"><title>Node14&#45;&gt;Node12</title>
<path fill="none" stroke="midnightblue" d="M454.118,-112.444C410.131,-102.025 336.514,-84.5899 294.404,-74.6166"/>
<polygon fill="midnightblue" stroke="midnightblue" points="294.952,-71.1496 284.415,-72.2506 293.339,-77.9612 294.952,-71.1496"/>
</g>
<!-- Node15 -->
<g id="node15" class="node"><title>Node15</title>
<polygon fill="none" stroke="#bfbfbf" points="416.245,-56.5 416.245,-75.5 508.245,-75.5 508.245,-56.5 416.245,-56.5"/>
<text text-anchor="middle" x="462.245" y="-63.5" font-family="Helvetica,sans-Serif" font-size="10.00">boost/variant.hpp</text>
</g>
<!-- Node14&#45;&gt;Node15 -->
<g id="edge19" class="edge"><title>Node14&#45;&gt;Node15</title>
<path fill="none" stroke="midnightblue" d="M485.622,-112.083C481.789,-104.691 476.221,-93.9533 471.481,-84.8111"/>
<polygon fill="midnightblue" stroke="midnightblue" points="474.493,-83.0175 466.783,-75.7511 468.279,-86.2398 474.493,-83.0175"/>
</g>
<!-- Node16 -->
<g id="node16" class="node"><title>Node16</title>
<g id="a_node16"><a xlink:href="../../d9/d33/Tag_8h.html" target="_top" xlink:title="Tag.h">
<polygon fill="none" stroke="black" points="526.745,-56.5 526.745,-75.5 567.745,-75.5 567.745,-56.5 526.745,-56.5"/>
<text text-anchor="middle" x="547.245" y="-63.5" font-family="Helvetica,sans-Serif" font-size="10.00">Tag.h</text>
</a>
</g>
</g>
<!-- Node14&#45;&gt;Node16 -->
<g id="edge20" class="edge"><title>Node14&#45;&gt;Node16</title>
<path fill="none" stroke="midnightblue" d="M499.403,-112.324C507.747,-104.42 520.278,-92.5482 530.422,-82.9377"/>
<polygon fill="midnightblue" stroke="midnightblue" points="533.068,-85.2522 537.921,-75.8339 528.254,-80.1705 533.068,-85.2522"/>
</g>
<!-- Node16&#45;&gt;Node8 -->
<g id="edge21" class="edge"><title>Node16&#45;&gt;Node8</title>
<path fill="none" stroke="midnightblue" d="M568.013,-58.6998C599.23,-49.2294 658.437,-31.2677 694.618,-20.2914"/>
<polygon fill="midnightblue" stroke="midnightblue" points="696.057,-23.5124 704.61,-17.26 694.025,-16.8139 696.057,-23.5124"/>
</g>
<!-- Node17&#45;&gt;Node7 -->
<g id="edge24" class="edge"><title>Node17&#45;&gt;Node7</title>
<path fill="none" stroke="midnightblue" d="M227.304,-174.403C191.075,-163.643 129.037,-145.215 89.9123,-133.594"/>
<polygon fill="midnightblue" stroke="midnightblue" points="90.8306,-130.216 80.2479,-130.724 88.8374,-136.926 90.8306,-130.216"/>
</g>
<!-- Node17&#45;&gt;Node8 -->
<g id="edge25" class="edge"><title>Node17&#45;&gt;Node8</title>
<path fill="none" stroke="midnightblue" d="M219.413,-174.363C197.225,-167.056 170.733,-154.12 157.245,-132 127.9,-83.873 200.838,-67.7703 231.245,-56 316.504,-22.9975 600.137,-13.7842 694.451,-11.6008"/>
<polygon fill="midnightblue" stroke="midnightblue" points="694.569,-15.0992 704.489,-11.3788 694.414,-8.10087 694.569,-15.0992"/>
</g>
<!-- Node17&#45;&gt;Node11 -->
<g id="edge23" class="edge"><title>Node17&#45;&gt;Node11</title>
<path fill="none" stroke="midnightblue" d="M250.514,-174.403C244.574,-165.493 235.129,-151.325 227.657,-140.118"/>
<polygon fill="midnightblue" stroke="midnightblue" points="230.425,-137.96 221.966,-131.581 224.601,-141.843 230.425,-137.96"/>
</g>
<!-- Node17&#45;&gt;Node12 -->
<g id="edge26" class="edge"><title>Node17&#45;&gt;Node12</title>
<path fill="none" stroke="midnightblue" d="M227.292,-174.467C194.153,-163.115 146.698,-141.05 165.245,-112 179.453,-89.7469 207.812,-78.3307 230.213,-72.5785"/>
<polygon fill="midnightblue" stroke="midnightblue" points="231.058,-75.9756 240.015,-70.3156 229.484,-69.155 231.058,-75.9756"/>
</g>
<!-- Node17&#45;&gt;Node14 -->
<g id="edge27" class="edge"><title>Node17&#45;&gt;Node14</title>
<path fill="none" stroke="midnightblue" d="M289.772,-174.403C331.128,-163.799 401.516,-145.751 446.929,-134.107"/>
<polygon fill="midnightblue" stroke="midnightblue" points="447.964,-137.455 456.781,-131.581 446.225,-130.674 447.964,-137.455"/>
</g>
<!-- Node18&#45;&gt;Node4 -->
<g id="edge29" class="edge"><title>Node18&#45;&gt;Node4</title>
<path fill="none" stroke="midnightblue" d="M436.321,-174.403C408.876,-164.111 362.729,-146.806 331.647,-135.15"/>
<polygon fill="midnightblue" stroke="midnightblue" points="332.719,-131.815 322.127,-131.581 330.261,-138.369 332.719,-131.815"/>
</g>
<!-- Node18&#45;&gt;Node8 -->
<g id="edge33" class="edge"><title>Node18&#45;&gt;Node8</title>
<path fill="none" stroke="midnightblue" d="M475.423,-174.384C493.631,-164.559 523.97,-147.809 549.245,-132 607.292,-95.6952 673.162,-48.8154 705.374,-25.5011"/>
<polygon fill="midnightblue" stroke="midnightblue" points="707.496,-28.2856 713.533,-19.5785 703.384,-22.6208 707.496,-28.2856"/>
</g>
<!-- Node18&#45;&gt;Node9 -->
<g id="edge34" class="edge"><title>Node18&#45;&gt;Node9</title>
<path fill="none" stroke="midnightblue" d="M482.026,-174.403C509.455,-164.053 555.68,-146.609 586.572,-134.952"/>
<polygon fill="midnightblue" stroke="midnightblue" points="587.899,-138.192 596.019,-131.387 585.428,-131.643 587.899,-138.192"/>
</g>
<!-- Node18&#45;&gt;Node12 -->
<g id="edge35" class="edge"><title>Node18&#45;&gt;Node12</title>
<path fill="none" stroke="midnightblue" d="M443.877,-174.478C425.895,-164.463 395.267,-147.272 369.245,-132 339.853,-114.75 306.326,-94.2466 284.755,-80.9464"/>
<polygon fill="midnightblue" stroke="midnightblue" points="286.363,-77.8261 276.016,-75.5489 282.685,-83.7817 286.363,-77.8261"/>
</g>
<!-- Node18&#45;&gt;Node14 -->
<g id="edge36" class="edge"><title>Node18&#45;&gt;Node14</title>
<path fill="none" stroke="midnightblue" d="M463.687,-174.403C468.199,-165.671 475.319,-151.889 481.052,-140.794"/>
<polygon fill="midnightblue" stroke="midnightblue" points="484.331,-142.071 485.812,-131.581 478.112,-138.858 484.331,-142.071"/>
</g>
<!-- Node18&#45;&gt;Node19 -->
<g id="edge30" class="edge"><title>Node18&#45;&gt;Node19</title>
<path fill="none" stroke="midnightblue" d="M502.194,-174.467C556.422,-163.693 649.695,-145.162 708.283,-133.522"/>
<polygon fill="midnightblue" stroke="midnightblue" points="709.319,-136.885 718.445,-131.503 707.955,-130.019 709.319,-136.885"/>
</g>
<!-- Node20 -->
<g id="node20" class="node"><title>Node20</title>
<polygon fill="none" stroke="#bfbfbf" points="378.245,-112.5 378.245,-131.5 422.245,-131.5 422.245,-112.5 378.245,-112.5"/>
<text text-anchor="middle" x="400.245" y="-119.5" font-family="Helvetica,sans-Serif" font-size="10.00">mutex</text>
</g>
<!-- Node18&#45;&gt;Node20 -->
<g id="edge31" class="edge"><title>Node18&#45;&gt;Node20</title>
<path fill="none" stroke="midnightblue" d="M450.792,-174.403C441.679,-165.136 426.975,-150.183 415.77,-138.788"/>
<polygon fill="midnightblue" stroke="midnightblue" points="418.19,-136.257 408.683,-131.581 413.199,-141.165 418.19,-136.257"/>
</g>
<!-- Node21 -->
<g id="node21" class="node"><title>Node21</title>
<polygon fill="none" stroke="#bfbfbf" points="920.245,-112.5 920.245,-131.5 974.245,-131.5 974.245,-112.5 920.245,-112.5"/>
<text text-anchor="middle" x="947.245" y="-119.5" font-family="Helvetica,sans-Serif" font-size="10.00">iostream</text>
</g>
<!-- Node18&#45;&gt;Node21 -->
<g id="edge32" class="edge"><title>Node18&#45;&gt;Node21</title>
<path fill="none" stroke="midnightblue" d="M501.494,-174.462C513.649,-172.173 526.945,-169.829 539.245,-168 675.014,-147.814 837.446,-132.529 909.562,-126.198"/>
<polygon fill="midnightblue" stroke="midnightblue" points="910.279,-129.649 919.938,-125.294 909.672,-122.675 910.279,-129.649"/>
</g>
<!-- Node24&#45;&gt;Node5 -->
<g id="edge41" class="edge"><title>Node24&#45;&gt;Node5</title>
<path fill="none" stroke="midnightblue" d="M1002,-174.201C1001.18,-159.778 997.694,-130.829 983.245,-112 971.739,-97.004 953.702,-86.1353 937.871,-78.8403"/>
<polygon fill="midnightblue" stroke="midnightblue" points="938.946,-75.4926 928.377,-74.755 936.179,-81.9226 938.946,-75.4926"/>
</g>
<!-- Node24&#45;&gt;Node21 -->
<g id="edge43" class="edge"><title>Node24&#45;&gt;Node21</title>
<path fill="none" stroke="midnightblue" d="M994.365,-174.403C985.952,-165.225 972.426,-150.47 962.02,-139.117"/>
<polygon fill="midnightblue" stroke="midnightblue" points="964.448,-136.587 955.111,-131.581 959.288,-141.317 964.448,-136.587"/>
</g>
<!-- Node25 -->
<g id="node25" class="node"><title>Node25</title>
<polygon fill="none" stroke="#bfbfbf" points="1030.25,-112.5 1030.25,-131.5 1080.25,-131.5 1080.25,-112.5 1030.25,-112.5"/>
<text text-anchor="middle" x="1055.25" y="-119.5" font-family="Helvetica,sans-Serif" font-size="10.00">iomanip</text>
</g>
<!-- Node24&#45;&gt;Node25 -->
<g id="edge42" class="edge"><title>Node24&#45;&gt;Node25</title>
<path fill="none" stroke="midnightblue" d="M1009.84,-174.403C1017.95,-165.225 1030.98,-150.47 1041.01,-139.117"/>
<polygon fill="midnightblue" stroke="midnightblue" points="1043.67,-141.392 1047.67,-131.581 1038.42,-136.758 1043.67,-141.392"/>
</g>
<!-- Node26&#45;&gt;Node8 -->
<g id="edge46" class="edge"><title>Node26&#45;&gt;Node8</title>
<path fill="none" stroke="midnightblue" d="M1162.09,-174.332C1178.42,-161.244 1204.63,-135.47 1193.25,-112 1175.71,-75.8373 1159.41,-71.2927 1122.25,-56 1055.94,-28.7191 837.855,-16.1544 756.346,-12.3279"/>
<polygon fill="midnightblue" stroke="midnightblue" points="756.369,-8.82534 746.22,-11.8647 756.049,-15.818 756.369,-8.82534"/>
</g>
<!-- Node26&#45;&gt;Node21 -->
<g id="edge45" class="edge"><title>Node26&#45;&gt;Node21</title>
<path fill="none" stroke="midnightblue" d="M1121.16,-174.403C1085.06,-163.732 1023.44,-145.521 984.074,-133.885"/>
<polygon fill="midnightblue" stroke="midnightblue" points="984.912,-130.483 974.33,-131.005 982.928,-137.196 984.912,-130.483"/>
</g>
<!-- Node27 -->
<g id="node27" class="node"><title>Node27</title>
<polygon fill="none" stroke="#bfbfbf" points="1136.25,-112.5 1136.25,-131.5 1184.25,-131.5 1184.25,-112.5 1136.25,-112.5"/>
<text text-anchor="middle" x="1160.25" y="-119.5" font-family="Helvetica,sans-Serif" font-size="10.00">stdlib.h</text>
</g>
<!-- Node26&#45;&gt;Node27 -->
<g id="edge47" class="edge"><title>Node26&#45;&gt;Node27</title>
<path fill="none" stroke="midnightblue" d="M1151.68,-174.403C1153.1,-165.849 1155.34,-152.45 1157.17,-141.476"/>
<polygon fill="midnightblue" stroke="midnightblue" points="1160.62,-142.02 1158.82,-131.581 1153.72,-140.869 1160.62,-142.02"/>
</g>
<!-- Node28&#45;&gt;Node8 -->
<g id="edge50" class="edge"><title>Node28&#45;&gt;Node8</title>
<path fill="none" stroke="midnightblue" d="M960.479,-236.491C989.262,-230.151 1022.27,-219.127 1047.25,-200 1081.65,-173.65 1114.03,-147.549 1089.25,-112 1050.47,-56.3974 836.973,-24.7356 756.209,-14.606"/>
<polygon fill="midnightblue" stroke="midnightblue" points="756.513,-11.1172 746.161,-13.3716 755.66,-18.0649 756.513,-11.1172"/>
</g>
<!-- Node28&#45;&gt;Node13 -->
<g id="edge49" class="edge"><title>Node28&#45;&gt;Node13</title>
<path fill="none" stroke="midnightblue" d="M892.95,-236.403C889.637,-227.76 884.427,-214.17 880.197,-203.134"/>
<polygon fill="midnightblue" stroke="midnightblue" points="883.382,-201.665 876.535,-193.581 876.846,-204.171 883.382,-201.665"/>
</g>
<!-- Node29&#45;&gt;Node5 -->
<g id="edge57" class="edge"><title>Node29&#45;&gt;Node5</title>
<path fill="none" stroke="midnightblue" d="M1233.65,-236.415C1234.25,-212.333 1232.32,-143.825 1193.25,-112 1154.7,-80.6021 1005.66,-70.8922 938.451,-68.0746"/>
<polygon fill="midnightblue" stroke="midnightblue" points="938.526,-64.5749 928.396,-67.6793 938.251,-71.5695 938.526,-64.5749"/>
</g>
<!-- Node29&#45;&gt;Node8 -->
<g id="edge58" class="edge"><title>Node29&#45;&gt;Node8</title>
<path fill="none" stroke="midnightblue" d="M1236.6,-236.293C1241.66,-221.853 1250,-192.146 1243.25,-168 1226.33,-107.562 1213.39,-84.0365 1157.25,-56 1086.65,-20.748 842.728,-13.059 756.082,-11.4268"/>
<polygon fill="midnightblue" stroke="midnightblue" points="755.913,-7.92345 745.854,-11.249 755.791,-14.9224 755.913,-7.92345"/>
</g>
<!-- Node29&#45;&gt;Node13 -->
<g id="edge52" class="edge"><title>Node29&#45;&gt;Node13</title>
<path fill="none" stroke="midnightblue" d="M1184.17,-237.296C1128.76,-228.538 1035.96,-213.677 956.245,-200 947.647,-198.525 938.555,-196.924 929.666,-195.335"/>
<polygon fill="midnightblue" stroke="midnightblue" points="930.213,-191.878 919.752,-193.555 928.976,-198.767 930.213,-191.878"/>
</g>
<!-- Node29&#45;&gt;Node24 -->
<g id="edge55" class="edge"><title>Node29&#45;&gt;Node24</title>
<path fill="none" stroke="midnightblue" d="M1200.15,-236.403C1159.32,-225.799 1089.84,-207.751 1045.01,-196.107"/>
<polygon fill="midnightblue" stroke="midnightblue" points="1045.84,-192.707 1035.28,-193.581 1044.08,-199.482 1045.84,-192.707"/>
</g>
<!-- Node30 -->
<g id="node30" class="node"><title>Node30</title>
<g id="a_node30"><a xlink:href="../../de/dac/TransportInterface_8h.html" target="_top" xlink:title="../Transports/TransportInterface.h">
<polygon fill="none" stroke="black" points="1316.75,-56.5 1316.75,-75.5 1479.75,-75.5 1479.75,-56.5 1316.75,-56.5"/>
<text text-anchor="middle" x="1398.25" y="-63.5" font-family="Helvetica,sans-Serif" font-size="10.00">../Transports/TransportInterface.h</text>
</a>
</g>
</g>
<!-- Node29&#45;&gt;Node30 -->
<g id="edge53" class="edge"><title>Node29&#45;&gt;Node30</title>
<path fill="none" stroke="midnightblue" d="M1250.08,-236.342C1264.86,-228.226 1286.41,-215.102 1302.25,-200 1340.05,-163.94 1372.98,-111.255 1388.6,-84.2954"/>
<polygon fill="midnightblue" stroke="midnightblue" points="1391.64,-86.027 1393.55,-75.6053 1385.56,-82.5626 1391.64,-86.027"/>
</g>
<!-- Node31 -->
<g id="node31" class="node"><title>Node31</title>
<polygon fill="none" stroke="#bfbfbf" points="1354.75,-169 1354.75,-199 1455.75,-199 1455.75,-169 1354.75,-169"/>
<text text-anchor="start" x="1362.75" y="-187" font-family="Helvetica,sans-Serif" font-size="10.00">boost/property_tree</text>
<text text-anchor="middle" x="1405.25" y="-176" font-family="Helvetica,sans-Serif" font-size="10.00">/ptree.hpp</text>
</g>
<!-- Node29&#45;&gt;Node31 -->
<g id="edge56" class="edge"><title>Node29&#45;&gt;Node31</title>
<path fill="none" stroke="midnightblue" d="M1257.89,-236.403C1283.23,-227.564 1323.39,-213.553 1355.4,-202.39"/>
<polygon fill="midnightblue" stroke="midnightblue" points="1356.75,-205.624 1365.04,-199.025 1354.44,-199.014 1356.75,-205.624"/>
</g>
<!-- Node30&#45;&gt;Node8 -->
<g id="edge54" class="edge"><title>Node30&#45;&gt;Node8</title>
<path fill="none" stroke="midnightblue" d="M1316.55,-57.2536C1311.71,-56.8219 1306.92,-56.401 1302.25,-56 1093.68,-38.0915 842.432,-19.5277 756.109,-13.2363"/>
<polygon fill="midnightblue" stroke="midnightblue" points="756.182,-9.73242 745.955,-12.4974 755.674,-16.714 756.182,-9.73242"/>
</g>
</g>
</svg>
