<?xml version="1.0" encoding="UTF-8" standalone="no"?>
<!DOCTYPE svg PUBLIC "-//W3C//DTD SVG 1.1//EN"
 "http://www.w3.org/Graphics/SVG/1.1/DTD/svg11.dtd">
<!-- Generated by graphviz version 2.36.0 (20140111.2315)
 -->
<!-- Title: /home/travis/build/AliceO2Group/Monitoring/src/ProcessMonitor.cxx Pages: 1 -->
<svg width="1231pt" height="286pt"
 viewBox="0.00 0.00 1231.00 286.00" xmlns="http://www.w3.org/2000/svg" xmlns:xlink="http://www.w3.org/1999/xlink">
<g id="graph0" class="graph" transform="scale(1 1) rotate(0) translate(4 282)">
<title>/home/travis/build/AliceO2Group/Monitoring/src/ProcessMonitor.cxx</title>
<!-- Node1 -->
<g id="node1" class="node"><title>Node1</title>
<polygon fill="#bfbfbf" stroke="black" points="760,-236.5 760,-277.5 888,-277.5 888,-236.5 760,-236.5"/>
<text text-anchor="start" x="768" y="-265.5" font-family="Helvetica,sans-Serif" font-size="10.00">/home/travis/build</text>
<text text-anchor="start" x="768" y="-254.5" font-family="Helvetica,sans-Serif" font-size="10.00">/AliceO2Group/Monitoring</text>
<text text-anchor="middle" x="824" y="-243.5" font-family="Helvetica,sans-Serif" font-size="10.00">/src/ProcessMonitor.cxx</text>
</g>
<!-- Node2 -->
<g id="node2" class="node"><title>Node2</title>
<g id="a_node2"><a xlink:href="../../df/d93/ProcessMonitor_8h.html" target="_top" xlink:title="Monitoring/ProcessMonitor.h">
<polygon fill="none" stroke="black" points="240.5,-174.5 240.5,-193.5 381.5,-193.5 381.5,-174.5 240.5,-174.5"/>
<text text-anchor="middle" x="311" y="-181.5" font-family="Helvetica,sans-Serif" font-size="10.00">Monitoring/ProcessMonitor.h</text>
</a>
</g>
</g>
<!-- Node1&#45;&gt;Node2 -->
<g id="edge1" class="edge"><title>Node1&#45;&gt;Node2</title>
<path fill="none" stroke="midnightblue" d="M759.807,-247.116C663.636,-233.805 482.771,-208.773 382.502,-194.896"/>
<polygon fill="midnightblue" stroke="midnightblue" points="382.848,-191.411 372.463,-193.507 381.888,-198.345 382.848,-191.411"/>
</g>
<!-- Node11 -->
<g id="node11" class="node"><title>Node11</title>
<polygon fill="none" stroke="#bfbfbf" points="608,-56.5 608,-75.5 654,-75.5 654,-56.5 608,-56.5"/>
<text text-anchor="middle" x="631" y="-63.5" font-family="Helvetica,sans-Serif" font-size="10.00">chrono</text>
</g>
<!-- Node1&#45;&gt;Node11 -->
<g id="edge21" class="edge"><title>Node1&#45;&gt;Node11</title>
<path fill="none" stroke="midnightblue" d="M759.675,-251.541C722.427,-245.462 677.752,-231.537 651,-200 623.519,-167.604 624.997,-114.081 628.153,-85.8219"/>
<polygon fill="midnightblue" stroke="midnightblue" points="631.65,-86.072 629.481,-75.7015 624.709,-85.1609 631.65,-86.072"/>
</g>
<!-- Node14 -->
<g id="node14" class="node"><title>Node14</title>
<g id="a_node14"><a xlink:href="../../dc/d75/MonitoringInternalException_8h.html" target="_top" xlink:title="Exceptions/MonitoringInternal\lException.h">
<polygon fill="none" stroke="black" points="751,-169 751,-199 897,-199 897,-169 751,-169"/>
<text text-anchor="start" x="759" y="-187" font-family="Helvetica,sans-Serif" font-size="10.00">Exceptions/MonitoringInternal</text>
<text text-anchor="middle" x="824" y="-176" font-family="Helvetica,sans-Serif" font-size="10.00">Exception.h</text>
</a>
</g>
</g>
<!-- Node1&#45;&gt;Node14 -->
<g id="edge16" class="edge"><title>Node1&#45;&gt;Node14</title>
<path fill="none" stroke="midnightblue" d="M824,-236.223C824,-227.821 824,-217.948 824,-209.123"/>
<polygon fill="midnightblue" stroke="midnightblue" points="827.5,-209.048 824,-199.049 820.5,-209.049 827.5,-209.048"/>
</g>
<!-- Node16 -->
<g id="node16" class="node"><title>Node16</title>
<polygon fill="none" stroke="#bfbfbf" points="915,-169 915,-199 1025,-199 1025,-169 915,-169"/>
<text text-anchor="start" x="923" y="-187" font-family="Helvetica,sans-Serif" font-size="10.00">boost/algorithm/string</text>
<text text-anchor="middle" x="970" y="-176" font-family="Helvetica,sans-Serif" font-size="10.00">/classification.hpp</text>
</g>
<!-- Node1&#45;&gt;Node16 -->
<g id="edge19" class="edge"><title>Node1&#45;&gt;Node16</title>
<path fill="none" stroke="midnightblue" d="M864.282,-236.411C885.362,-226.16 911.031,-213.677 931.797,-203.578"/>
<polygon fill="midnightblue" stroke="midnightblue" points="933.496,-206.644 940.959,-199.123 930.435,-200.349 933.496,-206.644"/>
</g>
<!-- Node17 -->
<g id="node17" class="node"><title>Node17</title>
<polygon fill="none" stroke="#bfbfbf" points="1043,-169 1043,-199 1153,-199 1153,-169 1043,-169"/>
<text text-anchor="start" x="1051" y="-187" font-family="Helvetica,sans-Serif" font-size="10.00">boost/algorithm/string</text>
<text text-anchor="middle" x="1098" y="-176" font-family="Helvetica,sans-Serif" font-size="10.00">/split.hpp</text>
</g>
<!-- Node1&#45;&gt;Node17 -->
<g id="edge20" class="edge"><title>Node1&#45;&gt;Node17</title>
<path fill="none" stroke="midnightblue" d="M888.241,-239.354C932.21,-227.96 990.265,-212.917 1034.15,-201.545"/>
<polygon fill="midnightblue" stroke="midnightblue" points="1035.05,-204.928 1043.85,-199.031 1033.29,-198.151 1035.05,-204.928"/>
</g>
<!-- Node18 -->
<g id="node18" class="node"><title>Node18</title>
<g id="a_node18"><a xlink:href="../../df/de7/MonLogger_8h.html" target="_top" xlink:title="MonLogger.h">
<polygon fill="none" stroke="black" points="659.5,-174.5 659.5,-193.5 732.5,-193.5 732.5,-174.5 659.5,-174.5"/>
<text text-anchor="middle" x="696" y="-181.5" font-family="Helvetica,sans-Serif" font-size="10.00">MonLogger.h</text>
</a>
</g>
</g>
<!-- Node1&#45;&gt;Node18 -->
<g id="edge22" class="edge"><title>Node1&#45;&gt;Node18</title>
<path fill="none" stroke="midnightblue" d="M788.685,-236.411C766.936,-224.347 739.615,-209.193 720.286,-198.471"/>
<polygon fill="midnightblue" stroke="midnightblue" points="721.941,-195.387 711.499,-193.597 718.546,-201.508 721.941,-195.387"/>
</g>
<!-- Node20 -->
<g id="node20" class="node"><title>Node20</title>
<polygon fill="none" stroke="#bfbfbf" points="1171,-174.5 1171,-193.5 1223,-193.5 1223,-174.5 1171,-174.5"/>
<text text-anchor="middle" x="1197" y="-181.5" font-family="Helvetica,sans-Serif" font-size="10.00">sstream</text>
</g>
<!-- Node1&#45;&gt;Node20 -->
<g id="edge26" class="edge"><title>Node1&#45;&gt;Node20</title>
<path fill="none" stroke="midnightblue" d="M888.253,-250.008C957.019,-242.524 1068.8,-227.258 1162,-200 1164.5,-199.269 1167.06,-198.408 1169.6,-197.475"/>
<polygon fill="midnightblue" stroke="midnightblue" points="1171.17,-200.615 1179.14,-193.635 1168.56,-194.121 1171.17,-200.615"/>
</g>
<!-- Node3 -->
<g id="node3" class="node"><title>Node3</title>
<polygon fill="none" stroke="#bfbfbf" points="237,-112.5 237,-131.5 283,-131.5 283,-112.5 237,-112.5"/>
<text text-anchor="middle" x="260" y="-119.5" font-family="Helvetica,sans-Serif" font-size="10.00">atomic</text>
</g>
<!-- Node2&#45;&gt;Node3 -->
<g id="edge2" class="edge"><title>Node2&#45;&gt;Node3</title>
<path fill="none" stroke="midnightblue" d="M303.693,-174.403C295.967,-165.314 283.592,-150.756 273.982,-139.449"/>
<polygon fill="midnightblue" stroke="midnightblue" points="276.437,-136.933 267.294,-131.581 271.103,-141.467 276.437,-136.933"/>
</g>
<!-- Node4 -->
<g id="node4" class="node"><title>Node4</title>
<polygon fill="none" stroke="#bfbfbf" points="401.5,-112.5 401.5,-131.5 530.5,-131.5 530.5,-112.5 401.5,-112.5"/>
<text text-anchor="middle" x="466" y="-119.5" font-family="Helvetica,sans-Serif" font-size="10.00">boost/algorithm/string.hpp</text>
</g>
<!-- Node2&#45;&gt;Node4 -->
<g id="edge3" class="edge"><title>Node2&#45;&gt;Node4</title>
<path fill="none" stroke="midnightblue" d="M333.208,-174.403C359.681,-164.156 404.114,-146.956 434.22,-135.302"/>
<polygon fill="midnightblue" stroke="midnightblue" points="435.771,-138.455 443.833,-131.581 433.244,-131.927 435.771,-138.455"/>
</g>
<!-- Node5 -->
<g id="node5" class="node"><title>Node5</title>
<polygon fill="none" stroke="#bfbfbf" points="0,-112.5 0,-131.5 44,-131.5 44,-112.5 0,-112.5"/>
<text text-anchor="middle" x="22" y="-119.5" font-family="Helvetica,sans-Serif" font-size="10.00">mutex</text>
</g>
<!-- Node2&#45;&gt;Node5 -->
<g id="edge4" class="edge"><title>Node2&#45;&gt;Node5</title>
<path fill="none" stroke="midnightblue" d="M265.16,-174.418C214.373,-164.757 130.118,-148.275 58,-132 56.7274,-131.713 55.4309,-131.415 54.1222,-131.109"/>
<polygon fill="midnightblue" stroke="midnightblue" points="54.588,-127.621 44.0464,-128.682 52.9487,-134.427 54.588,-127.621"/>
</g>
<!-- Node6 -->
<g id="node6" class="node"><title>Node6</title>
<polygon fill="none" stroke="#bfbfbf" points="549,-112.5 549,-131.5 603,-131.5 603,-112.5 549,-112.5"/>
<text text-anchor="middle" x="576" y="-119.5" font-family="Helvetica,sans-Serif" font-size="10.00">iostream</text>
</g>
<!-- Node2&#45;&gt;Node6 -->
<g id="edge5" class="edge"><title>Node2&#45;&gt;Node6</title>
<path fill="none" stroke="midnightblue" d="M350.184,-174.467C395.648,-164.512 472.838,-147.445 539,-132 539.101,-131.977 539.201,-131.953 539.302,-131.929"/>
<polygon fill="midnightblue" stroke="midnightblue" points="540.014,-135.358 548.936,-129.644 538.398,-128.547 540.014,-135.358"/>
</g>
<!-- Node7 -->
<g id="node7" class="node"><title>Node7</title>
<polygon fill="none" stroke="#bfbfbf" points="179.5,-0.5 179.5,-19.5 220.5,-19.5 220.5,-0.5 179.5,-0.5"/>
<text text-anchor="middle" x="200" y="-7.5" font-family="Helvetica,sans-Serif" font-size="10.00">string</text>
</g>
<!-- Node2&#45;&gt;Node7 -->
<g id="edge6" class="edge"><title>Node2&#45;&gt;Node7</title>
<path fill="none" stroke="midnightblue" d="M240.255,-181.451C197.644,-176.903 145.03,-164.379 110,-132 84.432,-108.367 71.6396,-84.9382 91,-56 108.31,-30.1272 143.51,-19.1137 169.242,-14.4355"/>
<polygon fill="midnightblue" stroke="midnightblue" points="169.941,-17.8684 179.267,-12.8404 168.841,-10.9553 169.941,-17.8684"/>
</g>
<!-- Node8 -->
<g id="node8" class="node"><title>Node8</title>
<polygon fill="none" stroke="#bfbfbf" points="339,-112.5 339,-131.5 383,-131.5 383,-112.5 339,-112.5"/>
<text text-anchor="middle" x="361" y="-119.5" font-family="Helvetica,sans-Serif" font-size="10.00">thread</text>
</g>
<!-- Node2&#45;&gt;Node8 -->
<g id="edge7" class="edge"><title>Node2&#45;&gt;Node8</title>
<path fill="none" stroke="midnightblue" d="M318.164,-174.403C325.738,-165.314 337.87,-150.756 347.293,-139.449"/>
<polygon fill="midnightblue" stroke="midnightblue" points="350.136,-141.503 353.85,-131.581 344.759,-137.022 350.136,-141.503"/>
</g>
<!-- Node9 -->
<g id="node9" class="node"><title>Node9</title>
<polygon fill="none" stroke="#bfbfbf" points="308,-56.5 308,-75.5 352,-75.5 352,-56.5 308,-56.5"/>
<text text-anchor="middle" x="330" y="-63.5" font-family="Helvetica,sans-Serif" font-size="10.00">vector</text>
</g>
<!-- Node2&#45;&gt;Node9 -->
<g id="edge8" class="edge"><title>Node2&#45;&gt;Node9</title>
<path fill="none" stroke="midnightblue" d="M312.428,-174.281C315.497,-155.547 322.777,-111.098 326.94,-85.6822"/>
<polygon fill="midnightblue" stroke="midnightblue" points="330.444,-85.939 328.607,-75.5048 323.537,-84.8075 330.444,-85.939"/>
</g>
<!-- Node10 -->
<g id="node10" class="node"><title>Node10</title>
<g id="a_node10"><a xlink:href="../../d9/d92/Metric_8h.html" target="_top" xlink:title="Monitoring/Metric.h">
<polygon fill="none" stroke="black" points="119,-112.5 119,-131.5 219,-131.5 219,-112.5 119,-112.5"/>
<text text-anchor="middle" x="169" y="-119.5" font-family="Helvetica,sans-Serif" font-size="10.00">Monitoring/Metric.h</text>
</a>
</g>
</g>
<!-- Node2&#45;&gt;Node10 -->
<g id="edge9" class="edge"><title>Node2&#45;&gt;Node10</title>
<path fill="none" stroke="midnightblue" d="M290.655,-174.403C266.613,-164.245 226.403,-147.255 198.837,-135.607"/>
<polygon fill="midnightblue" stroke="midnightblue" points="199.881,-132.249 189.307,-131.581 197.157,-138.697 199.881,-132.249"/>
</g>
<!-- Node10&#45;&gt;Node7 -->
<g id="edge10" class="edge"><title>Node10&#45;&gt;Node7</title>
<path fill="none" stroke="midnightblue" d="M207.845,-112.364C227.377,-105.847 249.327,-94.7042 261,-76 273.546,-55.8965 249.259,-36.5871 227.713,-24.3144"/>
<polygon fill="midnightblue" stroke="midnightblue" points="229.228,-21.155 218.763,-19.5037 225.914,-27.3209 229.228,-21.155"/>
</g>
<!-- Node10&#45;&gt;Node9 -->
<g id="edge12" class="edge"><title>Node10&#45;&gt;Node9</title>
<path fill="none" stroke="midnightblue" d="M194.511,-112.444C222.552,-103.038 267.645,-87.9142 298.026,-77.7242"/>
<polygon fill="midnightblue" stroke="midnightblue" points="299.351,-80.9713 307.719,-74.473 297.125,-74.3347 299.351,-80.9713"/>
</g>
<!-- Node10&#45;&gt;Node11 -->
<g id="edge11" class="edge"><title>Node10&#45;&gt;Node11</title>
<path fill="none" stroke="midnightblue" d="M219.192,-113.203C222.171,-112.784 225.124,-112.38 228,-112 364.806,-93.935 528.377,-77.1521 597.522,-70.2788"/>
<polygon fill="midnightblue" stroke="midnightblue" points="598.184,-73.7305 607.79,-69.2621 597.494,-66.7646 598.184,-73.7305"/>
</g>
<!-- Node12 -->
<g id="node12" class="node"><title>Node12</title>
<polygon fill="none" stroke="#bfbfbf" points="160,-56.5 160,-75.5 252,-75.5 252,-56.5 160,-56.5"/>
<text text-anchor="middle" x="206" y="-63.5" font-family="Helvetica,sans-Serif" font-size="10.00">boost/variant.hpp</text>
</g>
<!-- Node10&#45;&gt;Node12 -->
<g id="edge13" class="edge"><title>Node10&#45;&gt;Node12</title>
<path fill="none" stroke="midnightblue" d="M175.11,-112.083C180.282,-104.534 187.846,-93.4948 194.194,-84.2298"/>
<polygon fill="midnightblue" stroke="midnightblue" points="197.239,-85.9787 200.004,-75.7511 191.464,-82.0221 197.239,-85.9787"/>
</g>
<!-- Node13 -->
<g id="node13" class="node"><title>Node13</title>
<g id="a_node13"><a xlink:href="../../d9/d33/Tag_8h.html" target="_top" xlink:title="Tag.h">
<polygon fill="none" stroke="black" points="100.5,-56.5 100.5,-75.5 141.5,-75.5 141.5,-56.5 100.5,-56.5"/>
<text text-anchor="middle" x="121" y="-63.5" font-family="Helvetica,sans-Serif" font-size="10.00">Tag.h</text>
</a>
</g>
</g>
<!-- Node10&#45;&gt;Node13 -->
<g id="edge14" class="edge"><title>Node10&#45;&gt;Node13</title>
<path fill="none" stroke="midnightblue" d="M161.074,-112.083C154.154,-104.298 143.935,-92.8015 135.548,-83.3665"/>
<polygon fill="midnightblue" stroke="midnightblue" points="138.038,-80.8999 128.779,-75.7511 132.806,-85.5505 138.038,-80.8999"/>
</g>
<!-- Node13&#45;&gt;Node7 -->
<g id="edge15" class="edge"><title>Node13&#45;&gt;Node7</title>
<path fill="none" stroke="midnightblue" d="M133.693,-56.324C145.901,-47.979 164.578,-35.2122 179.003,-25.3524"/>
<polygon fill="midnightblue" stroke="midnightblue" points="181.058,-28.1871 187.339,-19.6545 177.108,-22.4082 181.058,-28.1871"/>
</g>
<!-- Node14&#45;&gt;Node7 -->
<g id="edge18" class="edge"><title>Node14&#45;&gt;Node7</title>
<path fill="none" stroke="midnightblue" d="M811.519,-168.795C786.497,-141.415 727.078,-81.7692 663,-56 583.978,-24.2211 320.861,-14.2607 230.657,-11.7384"/>
<polygon fill="midnightblue" stroke="midnightblue" points="230.628,-8.23641 220.537,-11.4667 230.44,-15.2339 230.628,-8.23641"/>
</g>
<!-- Node15 -->
<g id="node15" class="node"><title>Node15</title>
<polygon fill="none" stroke="#bfbfbf" points="803.5,-112.5 803.5,-131.5 862.5,-131.5 862.5,-112.5 803.5,-112.5"/>
<text text-anchor="middle" x="833" y="-119.5" font-family="Helvetica,sans-Serif" font-size="10.00">exception</text>
</g>
<!-- Node14&#45;&gt;Node15 -->
<g id="edge17" class="edge"><title>Node14&#45;&gt;Node15</title>
<path fill="none" stroke="midnightblue" d="M826.133,-168.781C827.346,-160.691 828.881,-150.462 830.191,-141.725"/>
<polygon fill="midnightblue" stroke="midnightblue" points="833.668,-142.139 831.69,-131.731 826.746,-141.101 833.668,-142.139"/>
</g>
<!-- Node18&#45;&gt;Node6 -->
<g id="edge25" class="edge"><title>Node18&#45;&gt;Node6</title>
<path fill="none" stroke="midnightblue" d="M678.807,-174.403C658.757,-164.379 625.401,-147.701 602.14,-136.07"/>
<polygon fill="midnightblue" stroke="midnightblue" points="603.671,-132.922 593.161,-131.581 600.54,-139.183 603.671,-132.922"/>
</g>
<!-- Node18&#45;&gt;Node11 -->
<g id="edge23" class="edge"><title>Node18&#45;&gt;Node11</title>
<path fill="none" stroke="midnightblue" d="M703.171,-174.124C713.579,-160.088 730.345,-132.283 718,-112 706.256,-92.7028 683.273,-81.3155 663.878,-74.8252"/>
<polygon fill="midnightblue" stroke="midnightblue" points="664.727,-71.4251 654.141,-71.8616 662.688,-78.1218 664.727,-71.4251"/>
</g>
<!-- Node19 -->
<g id="node19" class="node"><title>Node19</title>
<polygon fill="none" stroke="#bfbfbf" points="659,-112.5 659,-131.5 709,-131.5 709,-112.5 659,-112.5"/>
<text text-anchor="middle" x="684" y="-119.5" font-family="Helvetica,sans-Serif" font-size="10.00">iomanip</text>
</g>
<!-- Node18&#45;&gt;Node19 -->
<g id="edge24" class="edge"><title>Node18&#45;&gt;Node19</title>
<path fill="none" stroke="midnightblue" d="M694.281,-174.403C692.57,-165.849 689.89,-152.45 687.695,-141.476"/>
<polygon fill="midnightblue" stroke="midnightblue" points="691.109,-140.7 685.716,-131.581 684.245,-142.073 691.109,-140.7"/>
</g>
</g>
</svg>
